<?xml version="1.0"?>
<svg width="2063.37" height="2063.37" xmlns="http://www.w3.org/2000/svg" xmlns:svg="http://www.w3.org/2000/svg" xmlns:xlink="http://www.w3.org/1999/xlink" data-name="Modo de aislamiento">
 <defs>
  <style>.cls-1{fill:#e4ac4b;}.cls-2{opacity:0.3;}.cls-3{fill:#5d1e4e;}.cls-4{fill:#f1cc30;}.cls-5{opacity:0.65;}.cls-6{fill:#fff;}.cls-7{fill:#cb1e27;}.cls-8{fill:#a01c27;}.cls-9{fill:#e8c352;}.cls-10{fill:#7dc562;}.cls-11{fill:#592047;}.cls-12{fill:#582147;}.cls-13{fill:#d59654;}.cls-14{fill:#5e1e4e;}</style>
  <symbol height="66" id="svg_242" viewBox="0 0 66 66" width="66" xmlns="http://www.w3.org/2000/svg">
   <path d="m7.48,61.5l50.8,-14.57l1.62,-1.5l0,-28.98l-2.1,-4.08l-53.53,15.15l0,30.82c0,2.53 1.03,3.69 3.21,3.16z" fill="url(#svg_241)"/>
   <path d="m7.48,61.5l50.8,-14.57l1.62,-1.5l0,-28.98l-2.1,-4.08l-53.53,15.15l0,30.82c0,2.53 1.03,3.69 3.21,3.16z" fill="url(#svg_240)"/>
   <path d="m7.48,61.5l50.8,-14.57l1.62,-1.5l0,-28.98l-2.1,-4.08l-53.53,15.15l0,30.82c0,2.53 1.03,3.69 3.21,3.16z" fill="url(#svg_239)"/>
   <path d="m7.48,61.5l50.8,-14.57l1.62,-1.5l0,-28.98l-2.1,-4.08l-53.53,15.15l0,30.82c0,2.53 1.03,3.69 3.21,3.16z" fill="url(#svg_238)"/>
   <path d="m7.48,61.5l50.8,-14.57l1.62,-1.5l0,-28.98l-2.1,-4.08l-53.53,15.15l0,30.82c0,2.53 1.03,3.69 3.21,3.16z" fill="url(#svg_237)"/>
   <path d="m26.88,5.17l-20.56,19.03c-4.01,3.42 -1.93,5.79 1.93,4.94l47.49,-13.62c1.22,-0.29 1.99,-0.38 1.99,1.03l0,8.29c0,1.42 0.13,2.15 -0.77,2.44c0,0 -45.8,13.81 -46.79,14.07c-0.98,0.27 -3.17,0.68 -3.85,0.58c-0.68,-0.1 -1.54,-0.58 -1.93,-0.58c-0.39,0 -0.39,0.23 -0.39,1.29l0,4.47c0,0.33 0.29,0.55 0.29,0.55a5.11,5.11 0 0 0 3.95,0.63l47.95,-13.88c0.77,-0.19 1.54,0.33 1.54,1.29l0,10.93c0,0.66 0.4,0.69 0.68,0.66c2.05,-0.59 3.47,-1.8 3.47,-3.88l0,-26.86c0,-1.76 -1.28,-4.7 -4.15,-5.59l-22.75,-5.34c-2.16,-0.45 -6.34,-1.81 -8.1,-0.45z" fill="url(#svg_236)"/>
   <path d="m26.88,5.17l-20.56,19.03c-4.01,3.42 -1.93,5.79 1.93,4.94l47.49,-13.62c1.22,-0.29 1.99,-0.38 1.99,1.03l0,8.29c0,1.42 0.13,2.15 -0.77,2.44c0,0 -45.8,13.81 -46.79,14.07c-0.98,0.27 -3.17,0.68 -3.85,0.58c-0.68,-0.1 -1.54,-0.58 -1.93,-0.58c-0.39,0 -0.39,0.23 -0.39,1.29l0,4.47c0,0.33 0.29,0.55 0.29,0.55a5.11,5.11 0 0 0 3.95,0.63l47.95,-13.88c0.77,-0.19 1.54,0.33 1.54,1.29l0,10.93c0,0.66 0.4,0.69 0.68,0.66c2.05,-0.59 3.47,-1.8 3.47,-3.88l0,-26.86c0,-1.76 -1.28,-4.7 -4.15,-5.59l-22.75,-5.34c-2.16,-0.45 -6.34,-1.81 -8.1,-0.45z" fill="url(#svg_235)"/>
   <path d="m26.88,5.17l-20.56,19.03c-4.01,3.42 -1.93,5.79 1.93,4.94l47.49,-13.62c1.22,-0.29 1.99,-0.38 1.99,1.03l0,8.29c0,1.42 0.13,2.15 -0.77,2.44c0,0 -45.8,13.81 -46.79,14.07c-0.98,0.27 -3.17,0.68 -3.85,0.58c-0.68,-0.1 -1.54,-0.58 -1.93,-0.58c-0.39,0 -0.39,0.23 -0.39,1.29l0,4.47c0,0.33 0.29,0.55 0.29,0.55a5.11,5.11 0 0 0 3.95,0.63l47.95,-13.88c0.77,-0.19 1.54,0.33 1.54,1.29l0,10.93c0,0.66 0.4,0.69 0.68,0.66c2.05,-0.59 3.47,-1.8 3.47,-3.88l0,-26.86c0,-1.76 -1.28,-4.7 -4.15,-5.59l-22.75,-5.34c-2.16,-0.45 -6.34,-1.81 -8.1,-0.45z" fill="url(#svg_234)"/>
   <path d="m26.88,5.17l-20.56,19.03c-4.01,3.42 -1.93,5.79 1.93,4.94l47.49,-13.62c1.22,-0.29 1.99,-0.38 1.99,1.03l0,8.29c0,1.42 0.13,2.15 -0.77,2.44c0,0 -45.8,13.81 -46.79,14.07c-0.98,0.27 -3.17,0.68 -3.85,0.58c-0.68,-0.1 -1.54,-0.58 -1.93,-0.58c-0.39,0 -0.39,0.23 -0.39,1.29l0,4.47c0,0.33 0.29,0.55 0.29,0.55a5.11,5.11 0 0 0 3.95,0.63l47.95,-13.88c0.77,-0.19 1.54,0.33 1.54,1.29l0,10.93c0,0.66 0.4,0.69 0.68,0.66c2.05,-0.59 3.47,-1.8 3.47,-3.88l0,-26.86c0,-1.76 -1.28,-4.7 -4.15,-5.59l-22.75,-5.34c-2.16,-0.45 -6.34,-1.81 -8.1,-0.45z" fill="url(#svg_233)"/>
   <path d="m26.88,5.17l-20.56,19.03c-4.01,3.42 -1.93,5.79 1.93,4.94l47.49,-13.62c1.22,-0.29 1.99,-0.38 1.99,1.03l0,8.29c0,1.42 0.13,2.15 -0.77,2.44c0,0 -45.8,13.81 -46.79,14.07c-0.98,0.27 -3.17,0.68 -3.85,0.58c-0.68,-0.1 -1.54,-0.58 -1.93,-0.58c-0.39,0 -0.39,0.23 -0.39,1.29l0,4.47c0,0.33 0.29,0.55 0.29,0.55a5.11,5.11 0 0 0 3.95,0.63l47.95,-13.88c0.77,-0.19 1.54,0.33 1.54,1.29l0,10.93c0,0.66 0.4,0.69 0.68,0.66c2.05,-0.59 3.47,-1.8 3.47,-3.88l0,-26.86c0,-1.76 -1.28,-4.7 -4.15,-5.59l-22.75,-5.34c-2.16,-0.45 -6.34,-1.81 -8.1,-0.45z" fill="url(#svg_230)"/>
   <path d="m26.88,5.17l-20.56,19.03c-4.01,3.42 -1.93,5.79 1.93,4.94l47.49,-13.62c1.22,-0.29 1.99,-0.38 1.99,1.03l0,8.29c0,1.42 0.13,2.15 -0.77,2.44c0,0 -45.8,13.81 -46.79,14.07c-0.98,0.27 -3.17,0.68 -3.85,0.58c-0.68,-0.1 -1.54,-0.58 -1.93,-0.58c-0.39,0 -0.39,0.23 -0.39,1.29l0,4.47c0,0.33 0.29,0.55 0.29,0.55a5.11,5.11 0 0 0 3.95,0.63l47.95,-13.88c0.77,-0.19 1.54,0.33 1.54,1.29l0,10.93c0,0.66 0.4,0.69 0.68,0.66c2.05,-0.59 3.47,-1.8 3.47,-3.88l0,-26.86c0,-1.76 -1.28,-4.7 -4.15,-5.59l-22.75,-5.34c-2.16,-0.45 -6.34,-1.81 -8.1,-0.45z" fill="url(#svg_232)"/>
   <path d="m26.88,5.17l-20.56,19.03c-4.01,3.42 -1.93,5.79 1.93,4.94l47.49,-13.62c1.22,-0.29 1.99,-0.38 1.99,1.03l0,8.29c0,1.42 0.13,2.15 -0.77,2.44c0,0 -45.8,13.81 -46.79,14.07c-0.98,0.27 -3.17,0.68 -3.85,0.58c-0.68,-0.1 -1.54,-0.58 -1.93,-0.58c-0.39,0 -0.39,0.23 -0.39,1.29l0,4.47c0,0.33 0.29,0.55 0.29,0.55a5.11,5.11 0 0 0 3.95,0.63l47.95,-13.88c0.77,-0.19 1.54,0.33 1.54,1.29l0,10.93c0,0.66 0.4,0.69 0.68,0.66c2.05,-0.59 3.47,-1.8 3.47,-3.88l0,-26.86c0,-1.76 -1.28,-4.7 -4.15,-5.59l-22.75,-5.34c-2.16,-0.45 -6.34,-1.81 -8.1,-0.45z" fill="url(#svg_231)"/>
   <path d="m26.88,5.17l-20.56,19.03c-4.01,3.42 -1.93,5.79 1.93,4.94l47.49,-13.62c1.22,-0.29 1.99,-0.38 1.99,1.03l0,8.29c0,1.42 0.13,2.15 -0.77,2.44c0,0 -45.8,13.81 -46.79,14.07c-0.98,0.27 -3.17,0.68 -3.85,0.58c-0.68,-0.1 -1.54,-0.58 -1.93,-0.58c-0.39,0 -0.39,0.23 -0.39,1.29l0,4.47c0,0.33 0.29,0.55 0.29,0.55a5.11,5.11 0 0 0 3.95,0.63l47.95,-13.88c0.77,-0.19 1.54,0.33 1.54,1.29l0,10.93c0,0.66 0.4,0.69 0.68,0.66c2.05,-0.59 3.47,-1.8 3.47,-3.88l0,-26.86c0,-1.76 -1.28,-4.7 -4.15,-5.59l-22.75,-5.34c-2.16,-0.45 -6.34,-1.81 -8.1,-0.45z" fill="url(#svg_229)"/>
   <g filter="url(#svg_226)">
    <path d="m26.12,15.63c-1.32,0 -1.77,-0.74 -1.59,-2.11c1.37,-19.61 18.23,2.11 5.64,2.11l-4.05,0z" fill="#D52D26"/>
    <path d="m26.12,15.63c-1.32,0 -1.77,-0.74 -1.59,-2.11c1.37,-19.61 18.23,2.11 5.64,2.11l-4.05,0z" fill="#A23828"/>
   </g>
   <path d="m24.8,9.32c0.26,-1.3 0.69,-4.96 5.19,-5.85l4.86,2.49l1.77,5.31c-1.66,4.45 -5.08,4.14 -6.45,4.14l-4.05,0c-1.32,0 -2.07,-0.75 -1.89,-2.13l0.57,-3.96z" fill="#D52D26"/>
   <path d="m24.8,9.32c0.26,-1.3 0.69,-4.96 5.19,-5.85l4.86,2.49l1.77,5.31c-1.66,4.45 -5.08,4.14 -6.45,4.14l-4.05,0c-1.32,0 -2.07,-0.75 -1.89,-2.13l0.57,-3.96z" fill="url(#svg_228)"/>
   <g filter="url(#svg_225)">
    <path d="m34.85,9.22c-0.91,-1.02 -0.73,-2.62 -0.73,-2.62s-1.43,-0.03 -2.15,-0.81c-4.73,-4.73 1.04,-1.57 2.53,-0.25c1.93,1.73 2.27,4.76 2.27,4.76c-0.16,0.19 0.32,1.01 -0.19,0.72c-0.52,-0.29 -1.73,-1.8 -1.73,-1.8z" fill="#8DC527"/>
    <path d="m34.85,9.22c-0.91,-1.02 -0.73,-2.62 -0.73,-2.62s-1.43,-0.03 -2.15,-0.81c-4.73,-4.73 1.04,-1.57 2.53,-0.25c1.93,1.73 2.27,4.76 2.27,4.76c-0.16,0.19 0.32,1.01 -0.19,0.72c-0.52,-0.29 -1.73,-1.8 -1.73,-1.8z" fill="#672A17"/>
   </g>
   <path d="m34.94,9.02c-0.91,-1.02 -0.66,-2.58 -0.66,-2.58s-1.47,0 -2.19,-0.79l-2.46,-2.54c-0.13,-0.18 0,-0.38 0.18,-0.51c0,0 1.45,-1.1 3.69,0.33c1.24,0.91 3.6,3.84 4.2,5.07c1.09,1.85 -0.3,3.45 -0.3,3.45c-0.16,0.19 -0.35,0.25 -0.57,0l-1.89,-2.43z" fill="#8DC527"/>
   <path d="m34.94,9.02c-0.91,-1.02 -0.66,-2.58 -0.66,-2.58s-1.47,0 -2.19,-0.79l-2.46,-2.54c-0.13,-0.18 0,-0.38 0.18,-0.51c0,0 1.45,-1.1 3.69,0.33c1.24,0.91 3.6,3.84 4.2,5.07c1.09,1.85 -0.3,3.45 -0.3,3.45c-0.16,0.19 -0.35,0.25 -0.57,0l-1.89,-2.43z" fill="url(#svg_227)"/>
   <defs>
    <linearGradient gradientUnits="userSpaceOnUse" id="svg_241" x1="3.48" x2="53.5" y1="38.09" y2="38.03">
     <stop offset="0.01" stop-color="#CA957F"/>
     <stop offset="0.05" stop-color="#FFB4A4"/>
     <stop offset="0.08" stop-color="#FFD6B0"/>
     <stop offset="0.14" stop-color="#FFD9B0"/>
     <stop offset="0.52" stop-color="#FFC18A"/>
     <stop offset="0.92" stop-color="#FF9D50"/>
    </linearGradient>
    <linearGradient gradientUnits="userSpaceOnUse" id="svg_240" x1="28.88" x2="32.09" y1="44.73" y2="55.3">
     <stop offset="0.78" stop-color="#FFB37B" stop-opacity="0"/>
     <stop offset="0.89" stop-color="#FF9C81"/>
     <stop offset="0.93" stop-color="#F67F9D"/>
    </linearGradient>
    <linearGradient gradientUnits="userSpaceOnUse" id="svg_239" x1="40.99" x2="43.31" y1="31.32" y2="39.7">
     <stop offset="0.26" stop-color="#F08456" stop-opacity="0"/>
     <stop offset="0.76" stop-color="#E4794B"/>
     <stop offset="0.92" stop-color="#E4794B" stop-opacity="0"/>
    </linearGradient>
    <linearGradient gradientUnits="userSpaceOnUse" id="svg_238" x1="32.09" x2="33.9" y1="16.63" y2="23.07">
     <stop offset="0.26" stop-color="#F08456" stop-opacity="0"/>
     <stop offset="0.76" stop-color="#E4794B"/>
     <stop offset="0.92" stop-color="#E4794B" stop-opacity="0"/>
    </linearGradient>
    <linearGradient gradientUnits="userSpaceOnUse" id="svg_237" x1="4.28" x2="8.25" y1="42.28" y2="42.28">
     <stop stop-color="#C29677"/>
     <stop offset="0.58" stop-color="#FEB3A3"/>
     <stop offset="1" stop-color="#FFCEB1" stop-opacity="0"/>
    </linearGradient>
    <linearGradient gradientUnits="userSpaceOnUse" id="svg_236" x1="22.62" x2="36.35" y1="7.16" y2="53.63">
     <stop stop-color="#F3CFA2"/>
     <stop offset="0.26" stop-color="#F3CFA2"/>
     <stop offset="0.3" stop-color="#FFF0CB"/>
     <stop offset="0.32" stop-color="#FFD5CE"/>
     <stop offset="0.55" stop-color="#FFD6CF"/>
     <stop offset="0.6" stop-color="#FFFEE2"/>
     <stop offset="0.62" stop-color="#FFE4E5"/>
     <stop offset="0.97" stop-color="#FFE3E3"/>
     <stop offset="1" stop-color="#F9AAE0"/>
    </linearGradient>
    <linearGradient gradientUnits="userSpaceOnUse" id="svg_235" x1="4" x2="7.61" y1="44.6" y2="44.6">
     <stop stop-color="#C69C9B"/>
     <stop offset="0.14" stop-color="#DDA4B5"/>
     <stop offset="1" stop-color="#F8B6D3" stop-opacity="0"/>
    </linearGradient>
    <linearGradient gradientUnits="userSpaceOnUse" id="svg_234" x1="17.53" x2="18.47" y1="13.5" y2="14.5">
     <stop stop-color="#B7A287"/>
     <stop offset="0.82" stop-color="#CFB18C" stop-opacity="0"/>
    </linearGradient>
    <linearGradient gradientUnits="userSpaceOnUse" id="svg_233" x1="43.92" x2="43.76" y1="7.57" y2="8.3">
     <stop stop-color="#B7A287"/>
     <stop offset="0.82" stop-color="#CFB18C" stop-opacity="0"/>
    </linearGradient>
    <linearGradient gradientUnits="userSpaceOnUse" id="svg_232" x1="61.88" x2="56.85" y1="26.52" y2="26.52">
     <stop stop-color="#D6C0AA"/>
     <stop offset="0.04" stop-color="#F6D4BC"/>
     <stop offset="0.19" stop-color="#FFDED4"/>
     <stop offset="1" stop-color="#FFDED3" stop-opacity="0"/>
    </linearGradient>
    <linearGradient gradientUnits="userSpaceOnUse" id="svg_231" x1="56.94" x2="58.84" y1="43.28" y2="47.89">
     <stop offset="0.29" stop-color="#FFD6E3" stop-opacity="0"/>
     <stop offset="0.59" stop-color="#F4A8DC" stop-opacity="0"/>
     <stop offset="0.94" stop-color="#E596DD"/>
    </linearGradient>
    <radialGradient cx="0" cy="0" gradientTransform="matrix(0 13.6397 -6.31641 0 59.685 26.515)" gradientUnits="userSpaceOnUse" id="svg_230" r="1">
     <stop stop-color="#FFDED3"/>
     <stop offset="1" stop-color="#FFDED5" stop-opacity="0"/>
    </radialGradient>
    <radialGradient cx="0" cy="0" gradientTransform="matrix(.12893 3.67383 -9.08206 .31874 28.52 13.795)" gradientUnits="userSpaceOnUse" id="svg_229" r="1">
     <stop offset="0.52" stop-color="#B28162"/>
     <stop offset="1" stop-color="#C29A79" stop-opacity="0"/>
    </radialGradient>
    <radialGradient cx="0" cy="0" gradientTransform="rotate(113.864 14.427 14.349) scale(9.24004 9.60481)" gradientUnits="userSpaceOnUse" id="svg_228" r="1">
     <stop offset="0.14" stop-color="#FF6A83"/>
     <stop offset="0.52" stop-color="#EE2D47"/>
     <stop offset="1" stop-color="#F32F59" stop-opacity="0"/>
    </radialGradient>
    <radialGradient cx="0" cy="0" gradientTransform="matrix(0 4.70997 -4.26956 0 33.846 6.905)" gradientUnits="userSpaceOnUse" id="svg_227" r="1">
     <stop stop-color="#B1EB67"/>
     <stop offset="0.9" stop-color="#AFEA63" stop-opacity="0"/>
    </radialGradient>
    <filter color-interpolation-filters="sRGB" filterUnits="userSpaceOnUse" height="10.51" id="svg_226" width="10.52" x="24.39" y="5.22">
     <feFlood flood-opacity="0" result="BackgroundImageFix"/>
     <feBlend in="SourceGraphic" in2="BackgroundImageFix"/>
     <feGaussianBlur result="effect1_foregroundBlur_3_4639" stdDeviation="0.05"/>
    </filter>
    <filter color-interpolation-filters="sRGB" filterUnits="userSpaceOnUse" height="8.01" id="svg_225" width="6.88" x="30.04" y="3.18">
     <feFlood flood-opacity="0" result="BackgroundImageFix"/>
     <feBlend in="SourceGraphic" in2="BackgroundImageFix"/>
     <feGaussianBlur result="effect1_foregroundBlur_3_4639" stdDeviation="0.05"/>
    </filter>
   </defs>
  </symbol>
 </defs>
 <g class="layer">
  <title>Layer 1</title>
  <use id="svg_243" transform="matrix(33.3552 0 0 33.3552 -65.0652 -28.6511)" x="0" xlink:href="#svg_242" y="-0.3"/>
 </g>
</svg>