<?xml version="1.0"?>
<svg width="2063.37" height="2063.37" xmlns="http://www.w3.org/2000/svg" xmlns:svg="http://www.w3.org/2000/svg" xmlns:xlink="http://www.w3.org/1999/xlink" data-name="Modo de aislamiento">
 <defs>
  <style>.cls-1{fill:#e4ac4b;}.cls-2{opacity:0.3;}.cls-3{fill:#5d1e4e;}.cls-4{fill:#f1cc30;}.cls-5{opacity:0.65;}.cls-6{fill:#fff;}.cls-7{fill:#cb1e27;}.cls-8{fill:#a01c27;}.cls-9{fill:#e8c352;}.cls-10{fill:#7dc562;}.cls-11{fill:#592047;}.cls-12{fill:#582147;}.cls-13{fill:#d59654;}.cls-14{fill:#5e1e4e;}</style>
  <symbol height="66" id="svg_223" viewBox="0 0 66 66" width="66" xmlns="http://www.w3.org/2000/svg">
   <path d="m61.68,8.25s-13.76,-0.12 -15.08,-0.39c-1.32,-0.26 -2.93,-3.73 -8.22,-3.73l-9.61,0c-0.84,0 -1.54,0.7 -1.54,1.54s0.7,1.68 1.54,1.68l6.18,0s1.05,-0.08 1.05,0.87c0,0.95 -1.05,0.87 -1.05,0.87l-6.18,0c-0.84,0 -1.55,0.7 -1.55,1.54c0,0.85 0.71,1.55 1.55,1.55l6.18,0s1.05,-0.13 1.05,0.86c0,0.98 -1.05,0.85 -1.05,0.85l-6.18,0c-0.84,0 -1.55,0.8 -1.55,1.64c0,0.85 0.71,1.58 1.55,1.58l9.61,0c6.48,0 6.83,-3.74 8.7,-3.93c1.87,-0.19 14.6,-0.19 14.6,-0.19l0,-4.74z" fill="url(#svg_202)"/>
   <path d="m61.68,8.25s-13.76,-0.12 -15.08,-0.39c-1.32,-0.26 -2.93,-3.73 -8.22,-3.73l-9.61,0c-0.84,0 -1.54,0.7 -1.54,1.54s0.7,1.68 1.54,1.68l6.18,0s1.05,-0.08 1.05,0.87c0,0.95 -1.05,0.87 -1.05,0.87l-6.18,0c-0.84,0 -1.55,0.7 -1.55,1.54c0,0.85 0.71,1.55 1.55,1.55l6.18,0s1.05,-0.13 1.05,0.86c0,0.98 -1.05,0.85 -1.05,0.85l-6.18,0c-0.84,0 -1.55,0.8 -1.55,1.64c0,0.85 0.71,1.58 1.55,1.58l9.61,0c6.48,0 6.83,-3.74 8.7,-3.93c1.87,-0.19 14.6,-0.19 14.6,-0.19l0,-4.74z" fill="url(#svg_222)"/>
   <path d="m61.68,8.25s-13.76,-0.12 -15.08,-0.39c-1.32,-0.26 -2.93,-3.73 -8.22,-3.73l-9.61,0c-0.84,0 -1.54,0.7 -1.54,1.54s0.7,1.68 1.54,1.68l6.18,0s1.05,-0.08 1.05,0.87c0,0.95 -1.05,0.87 -1.05,0.87l-6.18,0c-0.84,0 -1.55,0.7 -1.55,1.54c0,0.85 0.71,1.55 1.55,1.55l6.18,0s1.05,-0.13 1.05,0.86c0,0.98 -1.05,0.85 -1.05,0.85l-6.18,0c-0.84,0 -1.55,0.8 -1.55,1.64c0,0.85 0.71,1.58 1.55,1.58l9.61,0c6.48,0 6.83,-3.74 8.7,-3.93c1.87,-0.19 14.6,-0.19 14.6,-0.19l0,-4.74z" fill="url(#svg_221)"/>
   <path d="m61.68,8.25s-13.76,-0.12 -15.08,-0.39c-1.32,-0.26 -2.93,-3.73 -8.22,-3.73l-9.61,0c-0.84,0 -1.54,0.7 -1.54,1.54s0.7,1.68 1.54,1.68l6.18,0s1.05,-0.08 1.05,0.87c0,0.95 -1.05,0.87 -1.05,0.87l-6.18,0c-0.84,0 -1.55,0.7 -1.55,1.54c0,0.85 0.71,1.55 1.55,1.55l6.18,0s1.05,-0.13 1.05,0.86c0,0.98 -1.05,0.85 -1.05,0.85l-6.18,0c-0.84,0 -1.55,0.8 -1.55,1.64c0,0.85 0.71,1.58 1.55,1.58l9.61,0c6.48,0 6.83,-3.74 8.7,-3.93c1.87,-0.19 14.6,-0.19 14.6,-0.19l0,-4.74z" fill="url(#svg_220)"/>
   <path d="m61.68,8.25s-13.76,-0.12 -15.08,-0.39c-1.32,-0.26 -2.93,-3.73 -8.22,-3.73l-9.61,0c-0.84,0 -1.54,0.7 -1.54,1.54s0.7,1.68 1.54,1.68l6.18,0s1.05,-0.08 1.05,0.87c0,0.95 -1.05,0.87 -1.05,0.87l-6.18,0c-0.84,0 -1.55,0.7 -1.55,1.54c0,0.85 0.71,1.55 1.55,1.55l6.18,0s1.05,-0.13 1.05,0.86c0,0.98 -1.05,0.85 -1.05,0.85l-6.18,0c-0.84,0 -1.55,0.8 -1.55,1.64c0,0.85 0.71,1.58 1.55,1.58l9.61,0c6.48,0 6.83,-3.74 8.7,-3.93c1.87,-0.19 14.6,-0.19 14.6,-0.19l0,-4.74z" fill="url(#svg_219)"/>
   <path d="m61.68,8.25s-13.76,-0.12 -15.08,-0.39c-1.32,-0.26 -2.93,-3.73 -8.22,-3.73l-9.61,0c-0.84,0 -1.54,0.7 -1.54,1.54s0.7,1.68 1.54,1.68l6.18,0s1.05,-0.08 1.05,0.87c0,0.95 -1.05,0.87 -1.05,0.87l-6.18,0c-0.84,0 -1.55,0.7 -1.55,1.54c0,0.85 0.71,1.55 1.55,1.55l6.18,0s1.05,-0.13 1.05,0.86c0,0.98 -1.05,0.85 -1.05,0.85l-6.18,0c-0.84,0 -1.55,0.8 -1.55,1.64c0,0.85 0.71,1.58 1.55,1.58l9.61,0c6.48,0 6.83,-3.74 8.7,-3.93c1.87,-0.19 14.6,-0.19 14.6,-0.19l0,-4.74z" fill="url(#svg_218)"/>
   <path d="m61.68,8.25s-13.76,-0.12 -15.08,-0.39c-1.32,-0.26 -2.93,-3.73 -8.22,-3.73l-9.61,0c-0.84,0 -1.54,0.7 -1.54,1.54s0.7,1.68 1.54,1.68l6.18,0s1.05,-0.08 1.05,0.87c0,0.95 -1.05,0.87 -1.05,0.87l-6.18,0c-0.84,0 -1.55,0.7 -1.55,1.54c0,0.85 0.71,1.55 1.55,1.55l6.18,0s1.05,-0.13 1.05,0.86c0,0.98 -1.05,0.85 -1.05,0.85l-6.18,0c-0.84,0 -1.55,0.8 -1.55,1.64c0,0.85 0.71,1.58 1.55,1.58l9.61,0c6.48,0 6.83,-3.74 8.7,-3.93c1.87,-0.19 14.6,-0.19 14.6,-0.19l0,-4.74z" fill="url(#svg_217)"/>
   <g filter="url(#svg_190)">
    <path d="m60.68,9.41s-12.76,0.56 -14.08,0.29c-1.32,-0.27 -2.93,-4.32 -8.22,-4.32l-8.8,-0.58c-0.84,0 -0.99,0.03 -0.99,0.87c0,0.85 0.15,0.9 0.99,0.9l5.37,0c0.85,0 1.63,0.7 1.63,1.65c0,0.95 -0.86,1.48 -1.63,1.48l-5.66,0c-0.84,0 -0.99,0.09 -0.99,0.93c0,0.85 0.15,0.97 0.99,0.97l5.66,0c0.76,0 1.63,0.45 1.63,1.44c0,0.98 -0.76,1.43 -1.63,1.43l-5.82,0c-0.84,0 -0.99,0.22 -0.99,1.06c0,0.85 0.31,0.94 1.16,0.94l9.08,0c6.48,0 6.93,-3.93 8.8,-4.13c1.87,-0.19 13.5,0 13.5,0l0,-2.93z" fill="#B5AABB"/>
    <path d="m60.68,9.41s-12.76,0.56 -14.08,0.29c-1.32,-0.27 -2.93,-4.32 -8.22,-4.32l-8.8,-0.58c-0.84,0 -0.99,0.03 -0.99,0.87c0,0.85 0.15,0.9 0.99,0.9l5.37,0c0.85,0 1.63,0.7 1.63,1.65c0,0.95 -0.86,1.48 -1.63,1.48l-5.66,0c-0.84,0 -0.99,0.09 -0.99,0.93c0,0.85 0.15,0.97 0.99,0.97l5.66,0c0.76,0 1.63,0.45 1.63,1.44c0,0.98 -0.76,1.43 -1.63,1.43l-5.82,0c-0.84,0 -0.99,0.22 -0.99,1.06c0,0.85 0.31,0.94 1.16,0.94l9.08,0c6.48,0 6.93,-3.93 8.8,-4.13c1.87,-0.19 13.5,0 13.5,0l0,-2.93z" fill="url(#svg_201)"/>
    <path d="m60.68,9.41s-12.76,0.56 -14.08,0.29c-1.32,-0.27 -2.93,-4.32 -8.22,-4.32l-8.8,-0.58c-0.84,0 -0.99,0.03 -0.99,0.87c0,0.85 0.15,0.9 0.99,0.9l5.37,0c0.85,0 1.63,0.7 1.63,1.65c0,0.95 -0.86,1.48 -1.63,1.48l-5.66,0c-0.84,0 -0.99,0.09 -0.99,0.93c0,0.85 0.15,0.97 0.99,0.97l5.66,0c0.76,0 1.63,0.45 1.63,1.44c0,0.98 -0.76,1.43 -1.63,1.43l-5.82,0c-0.84,0 -0.99,0.22 -0.99,1.06c0,0.85 0.31,0.94 1.16,0.94l9.08,0c6.48,0 6.93,-3.93 8.8,-4.13c1.87,-0.19 13.5,0 13.5,0l0,-2.93z" fill="url(#svg_216)"/>
    <path d="m60.68,9.41s-12.76,0.56 -14.08,0.29c-1.32,-0.27 -2.93,-4.32 -8.22,-4.32l-8.8,-0.58c-0.84,0 -0.99,0.03 -0.99,0.87c0,0.85 0.15,0.9 0.99,0.9l5.37,0c0.85,0 1.63,0.7 1.63,1.65c0,0.95 -0.86,1.48 -1.63,1.48l-5.66,0c-0.84,0 -0.99,0.09 -0.99,0.93c0,0.85 0.15,0.97 0.99,0.97l5.66,0c0.76,0 1.63,0.45 1.63,1.44c0,0.98 -0.76,1.43 -1.63,1.43l-5.82,0c-0.84,0 -0.99,0.22 -0.99,1.06c0,0.85 0.31,0.94 1.16,0.94l9.08,0c6.48,0 6.93,-3.93 8.8,-4.13c1.87,-0.19 13.5,0 13.5,0l0,-2.93z" fill="url(#svg_215)"/>
   </g>
   <path d="m42.47,61.69l-19.14,0c-9.41,0 -15.02,-6.72 -15.02,-15.02l0,-5.94l49.17,0l0,5.94c0,8.3 -5.08,15.02 -15.01,15.02z" fill="#9B86B5"/>
   <path d="m42.47,61.69l-19.14,0c-9.41,0 -15.02,-6.72 -15.02,-15.02l0,-5.94l49.17,0l0,5.94c0,8.3 -5.08,15.02 -15.01,15.02z" fill="url(#svg_214)"/>
   <path d="m45.4,25.43l-24.73,0c-9.14,0 -16.54,6.99 -16.54,16.93c0,9.26 7.4,15.84 16.54,15.84l24.73,0c9.13,0 16.54,-6.58 16.54,-15.84c-0.02,-9.27 -7.43,-16.93 -16.54,-16.93z" fill="url(#svg_200)"/>
   <path d="m45.4,25.43l-24.73,0c-9.14,0 -16.54,6.99 -16.54,16.93c0,9.26 7.4,15.84 16.54,15.84l24.73,0c9.13,0 16.54,-6.58 16.54,-15.84c-0.02,-9.27 -7.43,-16.93 -16.54,-16.93z" fill="url(#svg_199)"/>
   <g filter="url(#svg_189)">
    <path d="m44.65,25.91l-23.82,0c-8.8,0 -15.93,6.6 -15.93,15.99c0,8.74 7.13,14.95 15.93,14.95l23.82,0c8.8,0 15.94,-6.21 15.94,-14.95c-0.02,-8.75 -7.16,-15.99 -15.94,-15.99z" fill="url(#svg_198)"/>
    <path d="m44.65,25.91l-23.82,0c-8.8,0 -15.93,6.6 -15.93,15.99c0,8.74 7.13,14.95 15.93,14.95l23.82,0c8.8,0 15.94,-6.21 15.94,-14.95c-0.02,-8.75 -7.16,-15.99 -15.94,-15.99z" fill="url(#svg_213)"/>
   </g>
   <g filter="url(#svg_188)">
    <path d="m32.97,24.75c-9.13,0 -16.21,2.7 -21.63,8.48c-7.34,7.82 -0.72,20.64 10.48,20.64l20.9,0c12.24,0 18.67,-13.05 11.03,-21.18c-5.43,-5.79 -12.59,-7.94 -20.78,-7.94" fill="url(#svg_197)"/>
   </g>
   <path d="m33.21,24.3c-9.04,0 -16.05,2.71 -21.41,8.51c-7.26,7.83 -0.71,20.69 10.37,20.69l20.69,0c12.12,0 18.49,-13.09 10.92,-21.24c-5.38,-5.8 -12.47,-7.96 -20.58,-7.96l0.01,0z" fill="#AD8E36"/>
   <path d="m33.21,24.3c-9.04,0 -16.05,2.71 -21.41,8.51c-7.26,7.83 -0.71,20.69 10.37,20.69l20.69,0c12.12,0 18.49,-13.09 10.92,-21.24c-5.38,-5.8 -12.47,-7.96 -20.58,-7.96l0.01,0z" fill="url(#svg_212)"/>
   <path d="m33.21,24.3c-9.04,0 -16.05,2.71 -21.41,8.51c-7.26,7.83 -0.71,20.69 10.37,20.69l20.69,0c12.12,0 18.49,-13.09 10.92,-21.24c-5.38,-5.8 -12.47,-7.96 -20.58,-7.96l0.01,0z" fill="url(#svg_211)"/>
   <path d="m33.21,24.3c-9.04,0 -16.05,2.71 -21.41,8.51c-7.26,7.83 -0.71,20.69 10.37,20.69l20.69,0c12.12,0 18.49,-13.09 10.92,-21.24c-5.38,-5.8 -12.47,-7.96 -20.58,-7.96l0.01,0z" fill="url(#svg_210)"/>
   <g filter="url(#svg_187)">
    <path d="m47.5,28.88c3.42,2.91 5.71,7.79 3.61,12.82c-0.88,2.11 -4.35,4.92 -10.41,5.8c-2.38,0.35 -10.16,0.21 -14.56,0.19c-3.23,0 -6.01,-0.03 -9.19,-3.41c-3.61,-3.84 -2.42,-8.38 1.42,-14.37c-4.93,2.22 -7.74,10.89 -2.48,16.21c1.76,1.78 4.54,3.54 10.25,3.54l14.56,0c6.32,0 10.43,-3.52 12.06,-7.48c2.08,-5.08 -1.31,-11.49 -5.26,-13.3z" fill="url(#svg_196)"/>
   </g>
   <path d="m17.92,36.7c0,6.41 7.59,9.13 15.14,9.13c7.5,-0.01 14.96,-2.69 14.96,-9.13c0,-6.86 -7.46,-9.78 -14.96,-9.76c-7.55,0.02 -15.14,3.04 -15.14,9.76z" fill="#BF2B3B"/>
   <path d="m17.92,36.7c0,6.41 7.59,9.13 15.14,9.13c7.5,-0.01 14.96,-2.69 14.96,-9.13c0,-6.86 -7.46,-9.78 -14.96,-9.76c-7.55,0.02 -15.14,3.04 -15.14,9.76z" fill="url(#svg_209)"/>
   <path d="m17.92,36.7c0,6.41 7.59,9.13 15.14,9.13c7.5,-0.01 14.96,-2.69 14.96,-9.13c0,-6.86 -7.46,-9.78 -14.96,-9.76c-7.55,0.02 -15.14,3.04 -15.14,9.76z" fill="url(#svg_208)"/>
   <path d="m17.92,36.7c0,6.41 7.59,9.13 15.14,9.13c7.5,-0.01 14.96,-2.69 14.96,-9.13c0,-6.86 -7.46,-9.78 -14.96,-9.76c-7.55,0.02 -15.14,3.04 -15.14,9.76z" fill="url(#svg_207)"/>
   <g filter="url(#svg_186)">
    <path d="m26.36,41.07a2.87,2.87 0 1 0 0,-5.74a2.87,2.87 0 0 0 0,5.74z" fill="#B61738"/>
   </g>
   <g filter="url(#svg_185)">
    <path d="m39.82,41.41a2.87,2.87 0 1 0 0,-5.74a2.87,2.87 0 0 0 0,5.74z" fill="#B61738"/>
   </g>
   <path d="m26.79,41.07a2.91,2.91 0 1 0 0,-5.81a2.91,2.91 0 0 0 0,5.81z" fill="url(#svg_206)"/>
   <g filter="url(#svg_184)">
    <path d="m32.87,33.2a2.87,2.87 0 1 0 0,-5.75a2.87,2.87 0 0 0 0,5.75z" fill="#B61738"/>
   </g>
   <path d="m33.21,33.2a2.87,2.87 0 1 0 0,-5.75a2.87,2.87 0 0 0 0,5.75z" fill="url(#svg_205)"/>
   <path d="m40.1,41.41a2.92,2.92 0 1 0 0,-5.83a2.92,2.92 0 0 0 0,5.84l0,-0.01z" fill="url(#svg_204)"/>
   <g filter="url(#svg_183)">
    <path d="m50.27,33.39c2.32,3.8 4.85,13.85 -10.82,13.85c9.2,-2.95 12.44,-4.96 10.82,-13.85z" fill="url(#svg_195)"/>
   </g>
   <g filter="url(#svg_182)">
    <path d="m54.17,39.96c0,-5.55 -4.02,-10.38 -7.25,-11.54c1.76,0.76 6.77,4.06 6.77,11.54c0,3.9 -4.53,10.02 -11.01,10.02l-17.08,0l0,0.46l17.08,0c8,0 11.49,-7.25 11.49,-10.48z" fill="url(#svg_203)"/>
   </g>
   <g filter="url(#svg_181)">
    <path d="m11.79,39.86c0,-5.55 3.97,-10.08 7.8,-11.18c-1.76,0.75 -6.86,3.7 -6.86,11.18c0,3.9 4.96,10.12 11.44,10.12l17.08,0l0,0.46l-17.08,0c-7.99,0 -12.37,-7.35 -12.37,-10.58l-0.01,0z" fill="url(#svg_194)"/>
   </g>
   <path clip-rule="evenodd" d="m29.93,7.7a1.03,1.03 0 0 1 1.03,1.03l0,15.23c0,0.31 0.15,0.79 0.15,0.79c-0.54,0.48 -1.63,0.56 -2.35,0.19c0,0 0.14,-0.43 0.14,-0.77l0,-15.44a1.03,1.03 0 0 1 1.03,-1.03z" fill="url(#svg_193)" fill-rule="evenodd"/>
   <path clip-rule="evenodd" d="m34.03,12.44a1.03,1.03 0 0 1 1.03,1.03l0,10.6c0,0.26 0.15,0.63 0.15,0.63c-0.49,0.53 -1.85,0.52 -2.34,0c0,0 0.13,-0.37 0.13,-0.63l0,-10.6a1.03,1.03 0 0 1 1.03,-1.03z" fill="url(#svg_192)" fill-rule="evenodd"/>
   <path clip-rule="evenodd" d="m38.2,3.48a1.03,1.03 0 0 1 1.03,1.03l0,19.95c0,0.4 0.18,0.77 0.18,0.77c-0.74,0.34 -2.07,0.17 -2.46,-0.32c0,0 0.22,-0.3 0.22,-0.69l0,-19.71a1.03,1.03 0 0 1 1.03,-1.03z" fill="url(#svg_191)" fill-rule="evenodd"/>
   <defs>
    <radialGradient cx="0" cy="0" gradientTransform="rotate(49.16 13.658 52.026) scale(5.02652 3.41436)" gradientUnits="userSpaceOnUse" id="svg_222" r="1">
     <stop stop-color="#D8D4DF"/>
     <stop offset="1" stop-color="#CECBD6" stop-opacity="0"/>
    </radialGradient>
    <radialGradient cx="0" cy="0" gradientTransform="matrix(0 2.12695 -14.8242 0 53.561 13.406)" gradientUnits="userSpaceOnUse" id="svg_221" r="1">
     <stop stop-color="#9F83AD"/>
     <stop offset="1" stop-color="#9F82AD" stop-opacity="0"/>
    </radialGradient>
    <radialGradient cx="0" cy="0" gradientTransform="matrix(0 2.56202 -9.67473 0 32.614 8.056)" gradientUnits="userSpaceOnUse" id="svg_220" r="1">
     <stop stop-color="#8E74A0"/>
     <stop offset="1" stop-color="#8F74A2" stop-opacity="0"/>
    </radialGradient>
    <radialGradient cx="0" cy="0" gradientTransform="matrix(0 2.57812 -9.73558 0 32.614 12.955)" gradientUnits="userSpaceOnUse" id="svg_219" r="1">
     <stop stop-color="#8E74A0"/>
     <stop offset="1" stop-color="#8F74A2" stop-opacity="0"/>
    </radialGradient>
    <radialGradient cx="0" cy="0" gradientTransform="matrix(0 3.1582 -26.0867 0 37.125 17.467)" gradientUnits="userSpaceOnUse" id="svg_218" r="1">
     <stop stop-color="#9C816C"/>
     <stop offset="0.69" stop-color="#9E8373" stop-opacity="0"/>
    </radialGradient>
    <radialGradient cx="0" cy="0" gradientTransform="matrix(0 7.44433 -1.2917 0 37.189 9.669)" gradientUnits="userSpaceOnUse" id="svg_217" r="1">
     <stop offset="0.44" stop-color="#85747F"/>
     <stop offset="1" stop-color="#867680" stop-opacity="0"/>
    </radialGradient>
    <radialGradient cx="0" cy="0" gradientTransform="matrix(0 4.44727 -1.35352 0 33.194 15.984)" gradientUnits="userSpaceOnUse" id="svg_216" r="1">
     <stop offset="0.17" stop-color="#80736F"/>
     <stop offset="1" stop-color="#7F7371" stop-opacity="0"/>
    </radialGradient>
    <radialGradient cx="0" cy="0" gradientTransform="matrix(0 7.99219 -3.60938 0 28.617 12.633)" gradientUnits="userSpaceOnUse" id="svg_215" r="1">
     <stop offset="0.17" stop-color="#80736F"/>
     <stop offset="1" stop-color="#7F7371" stop-opacity="0"/>
    </radialGradient>
    <radialGradient cx="0" cy="0" gradientTransform="matrix(0 4.64063 -23.0981 0 32.897 59.942)" gradientUnits="userSpaceOnUse" id="svg_214" r="1">
     <stop stop-color="#AB85D4"/>
     <stop offset="1" stop-color="#AB85D4" stop-opacity="0"/>
    </radialGradient>
    <radialGradient cx="0" cy="0" gradientTransform="rotate(87.166 -9.747 35.867) scale(13.0355 31.7487)" gradientUnits="userSpaceOnUse" id="svg_213" r="1">
     <stop stop-color="#9A56A5"/>
     <stop offset="1" stop-color="#A68EAA" stop-opacity="0"/>
    </radialGradient>
    <radialGradient cx="0" cy="0" gradientTransform="matrix(0 31.3242 -48.3733 0 48.083 37.777)" gradientUnits="userSpaceOnUse" id="svg_212" r="1">
     <stop stop-color="#FFEB4A"/>
     <stop offset="0.42" stop-color="#F8D640"/>
     <stop offset="0.85" stop-color="#FFEF4F" stop-opacity="0"/>
    </radialGradient>
    <radialGradient cx="0" cy="0" gradientTransform="matrix(0 25.6523 -58.364 0 32.897 55.044)" gradientUnits="userSpaceOnUse" id="svg_211" r="1">
     <stop offset="0.03" stop-color="#DA9360"/>
     <stop offset="0.65" stop-color="#DA9260" stop-opacity="0"/>
    </radialGradient>
    <radialGradient cx="0" cy="0" gradientTransform="rotate(120.277 11.166 30.406) scale(20.1509 15.8117)" gradientUnits="userSpaceOnUse" id="svg_210" r="1">
     <stop stop-color="#FFF254"/>
     <stop offset="1" stop-color="#FFF254" stop-opacity="0"/>
    </radialGradient>
    <radialGradient cx="0" cy="0" gradientTransform="rotate(75.009 -1.595 46.998) scale(7.97353 15.8097)" gradientUnits="userSpaceOnUse" id="svg_209" r="1">
     <stop stop-color="#FF6E9A"/>
     <stop offset="1" stop-color="#DF2C66"/>
    </radialGradient>
    <radialGradient cx="0" cy="0" gradientTransform="rotate(84.841 -1.049 36.812) scale(18.638 30.6213)" gradientUnits="userSpaceOnUse" id="svg_208" r="1">
     <stop offset="0.34" stop-color="#BB2635" stop-opacity="0"/>
     <stop offset="0.71" stop-color="#D92B83"/>
     <stop offset="1" stop-color="#B72733"/>
    </radialGradient>
    <radialGradient cx="0" cy="0" gradientTransform="matrix(-3.22265 19.59375 -25.57538 -4.20647 37.256 37.383)" gradientUnits="userSpaceOnUse" id="svg_207" r="1">
     <stop offset="0.47" stop-color="#B52833" stop-opacity="0"/>
     <stop offset="0.73" stop-color="#AE2E36"/>
    </radialGradient>
    <radialGradient cx="0" cy="0" gradientTransform="rotate(136.169 6.375 24.412) scale(4.52133)" gradientUnits="userSpaceOnUse" id="svg_206" r="1">
     <stop stop-color="#916561"/>
     <stop offset="0.85" stop-color="#6C2730"/>
    </radialGradient>
    <radialGradient cx="0" cy="0" gradientTransform="rotate(136.169 11.154 21.786) scale(4.46731)" gradientUnits="userSpaceOnUse" id="svg_205" r="1">
     <stop stop-color="#9B6E66"/>
     <stop offset="0.85" stop-color="#6C2730"/>
    </radialGradient>
    <radialGradient cx="0" cy="0" gradientTransform="rotate(136.169 12.971 27.258) scale(4.53639)" gradientUnits="userSpaceOnUse" id="svg_204" r="1">
     <stop stop-color="#A17269"/>
     <stop offset="0.82" stop-color="#793C4F"/>
    </radialGradient>
    <radialGradient cx="0" cy="0" gradientTransform="matrix(-11.40822 8.24999 -10.91911 -15.09914 51.513 41.41)" gradientUnits="userSpaceOnUse" id="svg_203" r="1">
     <stop stop-color="#E7BE4C"/>
     <stop offset="1" stop-color="#D79963" stop-opacity="0"/>
    </radialGradient>
    <linearGradient gradientUnits="userSpaceOnUse" id="svg_202" x1="27.23" x2="60.59" y1="10.62" y2="10.62">
     <stop stop-color="#888291"/>
     <stop offset="0.06" stop-color="#AEADB3"/>
     <stop offset="0.88" stop-color="#AFAEB3"/>
     <stop offset="1" stop-color="#B1B1B6"/>
    </linearGradient>
    <linearGradient gradientUnits="userSpaceOnUse" id="svg_201" x1="35.77" x2="38.67" y1="11.66" y2="11.66">
     <stop stop-color="#7E6C77" stop-opacity="0"/>
     <stop offset="0.47" stop-color="#7E6D77"/>
     <stop offset="1" stop-color="#7E6E77" stop-opacity="0"/>
    </linearGradient>
    <linearGradient gradientUnits="userSpaceOnUse" id="svg_200" x1="4.13" x2="60.07" y1="40.22" y2="40.22">
     <stop stop-color="#9A98A5"/>
     <stop offset="1" stop-color="#F4F2FF"/>
    </linearGradient>
    <linearGradient gradientUnits="userSpaceOnUse" id="svg_199" x1="33.03" x2="33.03" y1="25.43" y2="58.2">
     <stop offset="0.54" stop-color="#C8A0F5" stop-opacity="0"/>
     <stop offset="1" stop-color="#BD8DEF"/>
    </linearGradient>
    <linearGradient gradientUnits="userSpaceOnUse" id="svg_198" x1="5.67" x2="60.59" y1="41.38" y2="41.38">
     <stop stop-color="#BCB4C3"/>
     <stop offset="1" stop-color="#DFD5DB"/>
    </linearGradient>
    <linearGradient gradientUnits="userSpaceOnUse" id="svg_197" x1="10.19" x2="57.05" y1="39.31" y2="39.31">
     <stop stop-color="#8E6E6C"/>
     <stop offset="1" stop-color="#B8A46E"/>
    </linearGradient>
    <linearGradient gradientUnits="userSpaceOnUse" id="svg_196" x1="53.39" x2="13.18" y1="34.42" y2="34.8">
     <stop stop-color="#FFEB59"/>
     <stop offset="0.5" stop-color="#EAB342"/>
     <stop offset="1" stop-color="#D5AA38"/>
    </linearGradient>
    <linearGradient gradientUnits="userSpaceOnUse" id="svg_195" x1="48.58" x2="39.11" y1="33.61" y2="48.88">
     <stop stop-color="#F6CE2C"/>
     <stop offset="1" stop-color="#F4C924"/>
    </linearGradient>
    <linearGradient gradientUnits="userSpaceOnUse" id="svg_194" x1="16.76" x2="16.76" y1="32.65" y2="50.43">
     <stop offset="0.47" stop-color="#AF9345"/>
     <stop offset="0.84" stop-color="#D39A4A"/>
    </linearGradient>
    <linearGradient gradientUnits="userSpaceOnUse" id="svg_193" x1="28.73" x2="32.37" y1="16.13" y2="16.13">
     <stop stop-color="#BA8C3D"/>
     <stop offset="0.25" stop-color="#DEB030"/>
     <stop offset="0.5" stop-color="#FFD851"/>
     <stop offset="0.71" stop-color="#E8B83E"/>
    </linearGradient>
    <linearGradient gradientUnits="userSpaceOnUse" id="svg_192" x1="32.83" x2="36.47" y1="19.25" y2="19.25">
     <stop stop-color="#BA8C3D"/>
     <stop offset="0.25" stop-color="#DEB030"/>
     <stop offset="0.5" stop-color="#FFD851"/>
     <stop offset="0.71" stop-color="#E8B83E"/>
    </linearGradient>
    <linearGradient gradientUnits="userSpaceOnUse" id="svg_191" x1="37" x2="40.64" y1="13.37" y2="13.37">
     <stop stop-color="#BA8C3D"/>
     <stop offset="0.25" stop-color="#DEB030"/>
     <stop offset="0.5" stop-color="#FFD851"/>
     <stop offset="0.71" stop-color="#E8B83E"/>
    </linearGradient>
    <filter color-interpolation-filters="sRGB" filterUnits="userSpaceOnUse" height="12.16" id="svg_190" width="33.04" x="27.89" y="4.55">
     <feFlood flood-opacity="0" result="BackgroundImageFix"/>
     <feBlend in="SourceGraphic" in2="BackgroundImageFix"/>
     <feGaussianBlur result="effect1_foregroundBlur_3_4560" stdDeviation="0.13"/>
    </filter>
    <filter color-interpolation-filters="sRGB" filterUnits="userSpaceOnUse" height="31.94" id="svg_189" width="56.69" x="4.4" y="25.41">
     <feFlood flood-opacity="0" result="BackgroundImageFix"/>
     <feBlend in="SourceGraphic" in2="BackgroundImageFix"/>
     <feGaussianBlur result="effect1_foregroundBlur_3_4560" stdDeviation="0.25"/>
    </filter>
    <filter color-interpolation-filters="sRGB" filterUnits="userSpaceOnUse" height="29.62" id="svg_188" width="49.3" x="8" y="24.5">
     <feFlood flood-opacity="0" result="BackgroundImageFix"/>
     <feBlend in="SourceGraphic" in2="BackgroundImageFix"/>
     <feGaussianBlur result="effect1_foregroundBlur_3_4560" stdDeviation="0.13"/>
    </filter>
    <filter color-interpolation-filters="sRGB" filterUnits="userSpaceOnUse" height="21.79" id="svg_187" width="41.33" x="12.56" y="28.38">
     <feFlood flood-opacity="0" result="BackgroundImageFix"/>
     <feBlend in="SourceGraphic" in2="BackgroundImageFix"/>
     <feGaussianBlur result="effect1_foregroundBlur_3_4560" stdDeviation="0.25"/>
    </filter>
    <filter color-interpolation-filters="sRGB" filterUnits="userSpaceOnUse" height="6.25" id="svg_186" width="6.25" x="23.24" y="35.08">
     <feFlood flood-opacity="0" result="BackgroundImageFix"/>
     <feBlend in="SourceGraphic" in2="BackgroundImageFix"/>
     <feGaussianBlur result="effect1_foregroundBlur_3_4560" stdDeviation="0.13"/>
    </filter>
    <filter color-interpolation-filters="sRGB" filterUnits="userSpaceOnUse" height="6.25" id="svg_185" width="6.25" x="36.7" y="35.42">
     <feFlood flood-opacity="0" result="BackgroundImageFix"/>
     <feBlend in="SourceGraphic" in2="BackgroundImageFix"/>
     <feGaussianBlur result="effect1_foregroundBlur_3_4560" stdDeviation="0.13"/>
    </filter>
    <filter color-interpolation-filters="sRGB" filterUnits="userSpaceOnUse" height="6.25" id="svg_184" width="6.25" x="29.75" y="27.2">
     <feFlood flood-opacity="0" result="BackgroundImageFix"/>
     <feBlend in="SourceGraphic" in2="BackgroundImageFix"/>
     <feGaussianBlur result="effect1_foregroundBlur_3_4560" stdDeviation="0.13"/>
    </filter>
    <filter color-interpolation-filters="sRGB" filterUnits="userSpaceOnUse" height="14.86" id="svg_183" width="13.56" x="38.95" y="32.89">
     <feFlood flood-opacity="0" result="BackgroundImageFix"/>
     <feBlend in="SourceGraphic" in2="BackgroundImageFix"/>
     <feGaussianBlur result="effect1_foregroundBlur_3_4560" stdDeviation="0.25"/>
    </filter>
    <filter color-interpolation-filters="sRGB" filterUnits="userSpaceOnUse" height="23.01" id="svg_182" width="29.57" x="25.1" y="27.92">
     <feFlood flood-opacity="0" result="BackgroundImageFix"/>
     <feBlend in="SourceGraphic" in2="BackgroundImageFix"/>
     <feGaussianBlur result="effect1_foregroundBlur_3_4560" stdDeviation="0.25"/>
    </filter>
    <filter color-interpolation-filters="sRGB" filterUnits="userSpaceOnUse" height="22.75" id="svg_181" width="30.45" x="11.29" y="28.18">
     <feFlood flood-opacity="0" result="BackgroundImageFix"/>
     <feBlend in="SourceGraphic" in2="BackgroundImageFix"/>
     <feGaussianBlur result="effect1_foregroundBlur_3_4560" stdDeviation="0.25"/>
    </filter>
   </defs>
  </symbol>
 </defs>
 <g class="layer">
  <title>Layer 1</title>
  <use id="svg_224" transform="matrix(33.9492 0 0 33.9492 -55.1586 -34.4464)" x="-1.18" xlink:href="#svg_223" y="-1.18"/>
 </g>
</svg>