<?xml version="1.0"?>
<svg width="2242.55" height="2052.37" xmlns="http://www.w3.org/2000/svg" xmlns:svg="http://www.w3.org/2000/svg" xmlns:xlink="http://www.w3.org/1999/xlink" data-name="Modo de aislamiento">
 <defs>
  <style>.cls-1{fill:#e3a13f;}.cls-2{opacity:0.3;}.cls-3{fill:#5e1e4e;}.cls-4{fill:#7dc562;}.cls-5{opacity:0.6;}.cls-6{fill:#fff;}.cls-7{fill:#bb2c3b;}.cls-8{opacity:0.45;}.cls-9{fill:#e8ac30;}.cls-10{fill:#ebcc47;}.cls-11{opacity:0.5;}.cls-12{fill:#f5e4a0;}.cls-13{opacity:0.39;}.cls-14{fill:#c7535f;}</style>
  <symbol height="54" id="svg_108" viewBox="0 0 67 54" width="67" xmlns="http://www.w3.org/2000/svg">
   <path d="m41.1,0l-15.43,0a19.68,19.68 0 0 0 -19.68,19.68l0,3.13l54.81,0l0,-3.13c-0.02,-10.86 -8.84,-19.68 -19.7,-19.68z" fill="#D99A64"/>
   <path d="m41.1,0l-15.43,0a19.68,19.68 0 0 0 -19.68,19.68l0,3.13l54.81,0l0,-3.13c-0.02,-10.86 -8.84,-19.68 -19.7,-19.68z" fill="url(#svg_107)"/>
   <g filter="url(#svg_86)">
    <path d="m32.84,15.31a1.83,1.83 0 1 0 0.13,-3.65a1.83,1.83 0 0 0 -0.13,3.65z" fill="#E5A671"/>
   </g>
   <path d="m33.38,14.82a1.83,1.83 0 1 0 0.13,-3.66a1.83,1.83 0 0 0 -0.13,3.66z" fill="url(#svg_106)"/>
   <g filter="url(#svg_85)">
    <path d="m20.06,13.48c1.1,0 1.99,-0.89 1.99,-2.01a2,2 0 0 0 -2,-2.01a2,2 0 0 0 -1.99,2.01c0,1.12 0.89,2.01 2,2.01z" fill="#DE9B64"/>
   </g>
   <path d="m21.26,12.73a1.83,1.83 0 1 0 0,0" fill="url(#svg_105)"/>
   <g filter="url(#svg_84)">
    <path d="m44.95,12.99a1.83,1.83 0 1 0 0.13,-3.65a1.83,1.83 0 0 0 -0.13,3.65z" fill="#F4B982"/>
   </g>
   <path d="m45.49,12.73a1.83,1.83 0 1 0 0,-3.65a1.83,1.83 0 0 0 0,3.65z" fill="url(#svg_104)"/>
   <g filter="url(#svg_83)">
    <path d="m26.65,7.98a2,2 0 0 0 1.99,-2.01a2,2 0 0 0 -1.99,-2.01a2,2 0 0 0 -2,2.01c0,1.11 0.89,2.01 2,2.01z" fill="#DE9D64"/>
   </g>
   <path d="m27.61,7.61a1.83,1.83 0 1 0 0.14,-3.65a1.83,1.83 0 0 0 -0.14,3.65z" fill="url(#svg_103)"/>
   <g filter="url(#svg_82)">
    <path d="m38.25,7.98a1.83,1.83 0 1 0 0.13,-3.65a1.83,1.83 0 0 0 -0.13,3.65z" fill="#E6A769"/>
   </g>
   <path d="m39.14,7.61a1.83,1.83 0 1 0 0.13,-3.65a1.83,1.83 0 0 0 -0.13,3.65z" fill="url(#svg_102)"/>
   <path d="m60.43,22.26l-54.11,0l0,7.59l54.11,0l0,-7.59z" fill="url(#svg_96)"/>
   <path d="m60.43,22.26l-54.11,0l0,7.59l54.11,0l0,-7.59z" fill="url(#svg_95)"/>
   <path d="m60.99,42.91l-55.23,0a5.5,5.5 0 0 1 -5.5,-5.5a5.5,5.5 0 0 1 5.5,-5.5l55.23,0a5.5,5.5 0 0 1 5.5,5.5a5.5,5.5 0 0 1 -5.5,5.5z" fill="url(#svg_94)"/>
   <path d="m60.99,42.91l-55.23,0a5.5,5.5 0 0 1 -5.5,-5.5a5.5,5.5 0 0 1 5.5,-5.5l55.23,0a5.5,5.5 0 0 1 5.5,5.5a5.5,5.5 0 0 1 -5.5,5.5z" fill="url(#svg_101)"/>
   <path d="m60.99,42.91l-55.23,0a5.5,5.5 0 0 1 -5.5,-5.5a5.5,5.5 0 0 1 5.5,-5.5l55.23,0a5.5,5.5 0 0 1 5.5,5.5a5.5,5.5 0 0 1 -5.5,5.5z" fill="url(#svg_100)"/>
   <g filter="url(#svg_81)">
    <path clip-rule="evenodd" d="m18.39,19.9c3.74,0 7.43,1.52 9.09,2.41c1.67,0.89 2.98,1.59 5.92,1.59c4.39,0 17.52,-4 22.89,-1.13c1.67,0.89 -0.33,1.13 2.59,1.13l0.74,3.38c-1.7,0 -3.22,-0.47 -5.28,-1.57l-0.04,-0.02c-1.67,-0.89 -2.97,-1.59 -5.89,-1.59c-2.92,0 -4.23,0.7 -5.89,1.59l-0.06,0.02c-2.06,1.11 -4.51,2.4 -9.06,2.4c-4.55,0 -7,-1.29 -9.07,-2.39l-0.05,-0.03c-1.66,-0.89 -2.97,-1.59 -5.89,-1.59c-2.92,0 -4.23,0.7 -5.91,1.59l-0.04,0.02c-2.06,1.11 -2.5,1.57 -4.94,1.57c0,0 0.13,-4.08 1.79,-4.97c2.07,-1.1 4.53,-2.41 9.1,-2.41z" fill="url(#svg_93)" fill-rule="evenodd"/>
    <path clip-rule="evenodd" d="m18.39,19.9c3.74,0 7.43,1.52 9.09,2.41c1.67,0.89 2.98,1.59 5.92,1.59c4.39,0 17.52,-4 22.89,-1.13c1.67,0.89 -0.33,1.13 2.59,1.13l0.74,3.38c-1.7,0 -3.22,-0.47 -5.28,-1.57l-0.04,-0.02c-1.67,-0.89 -2.97,-1.59 -5.89,-1.59c-2.92,0 -4.23,0.7 -5.89,1.59l-0.06,0.02c-2.06,1.11 -4.51,2.4 -9.06,2.4c-4.55,0 -7,-1.29 -9.07,-2.39l-0.05,-0.03c-1.66,-0.89 -2.97,-1.59 -5.89,-1.59c-2.92,0 -4.23,0.7 -5.91,1.59l-0.04,0.02c-2.06,1.11 -2.5,1.57 -4.94,1.57c0,0 0.13,-4.08 1.79,-4.97c2.07,-1.1 4.53,-2.41 9.1,-2.41z" fill="#E0215C" fill-rule="evenodd"/>
   </g>
   <path clip-rule="evenodd" d="m9.34,19.34c2.06,-1.1 4.51,-2.39 9.05,-2.39c4.55,0 6.99,1.29 9.05,2.39l0.04,0.02c1.67,0.89 2.98,1.59 5.92,1.59s4.25,-0.7 5.91,-1.59l0.05,-0.02c2.06,-1.1 4.5,-2.39 9.05,-2.39c4.54,0 6.99,1.29 9.04,2.39l0.05,0.02c1.66,0.9 2.97,1.59 5.89,1.59a3.3,3.3 0 0 1 0,6.6c-4.55,0 -6.99,-1.29 -9.05,-2.39l-0.04,-0.03c-1.67,-0.89 -2.97,-1.59 -5.89,-1.59c-2.92,0 -4.23,0.7 -5.9,1.59l-0.04,0.03c-2.07,1.1 -4.52,2.39 -9.07,2.39s-7,-1.29 -9.07,-2.39l-0.05,-0.03c-1.66,-0.89 -2.97,-1.59 -5.89,-1.59c-2.92,0 -4.23,0.7 -5.91,1.59l-0.04,0.03c-2.06,1.1 -4.51,2.39 -9.05,2.39a3.3,3.3 0 1 1 0,-6.6c2.92,0 4.23,-0.69 5.9,-1.59l0.05,-0.02z" fill="url(#svg_92)" fill-rule="evenodd"/>
   <path clip-rule="evenodd" d="m9.34,19.34c2.06,-1.1 4.51,-2.39 9.05,-2.39c4.55,0 6.99,1.29 9.05,2.39l0.04,0.02c1.67,0.89 2.98,1.59 5.92,1.59s4.25,-0.7 5.91,-1.59l0.05,-0.02c2.06,-1.1 4.5,-2.39 9.05,-2.39c4.54,0 6.99,1.29 9.04,2.39l0.05,0.02c1.66,0.9 2.97,1.59 5.89,1.59a3.3,3.3 0 0 1 0,6.6c-4.55,0 -6.99,-1.29 -9.05,-2.39l-0.04,-0.03c-1.67,-0.89 -2.97,-1.59 -5.89,-1.59c-2.92,0 -4.23,0.7 -5.9,1.59l-0.04,0.03c-2.07,1.1 -4.52,2.39 -9.07,2.39s-7,-1.29 -9.07,-2.39l-0.05,-0.03c-1.66,-0.89 -2.97,-1.59 -5.89,-1.59c-2.92,0 -4.23,0.7 -5.91,1.59l-0.04,0.03c-2.06,1.1 -4.51,2.39 -9.05,2.39a3.3,3.3 0 1 1 0,-6.6c2.92,0 4.23,-0.69 5.9,-1.59l0.05,-0.02z" fill="url(#svg_99)" fill-rule="evenodd"/>
   <path d="m54.31,53.7l-41.87,0a6.09,6.09 0 0 1 -6.09,-6.1l0,-4.69l54.1,0l0,4.67a6.15,6.15 0 0 1 -6.14,6.12" fill="url(#svg_91)"/>
   <path d="m54.31,53.7l-41.87,0a6.09,6.09 0 0 1 -6.09,-6.1l0,-4.69l54.1,0l0,4.67a6.15,6.15 0 0 1 -6.14,6.12" fill="url(#svg_98)"/>
   <path d="m60.43,29.85l-54.11,0l0,2.06l17.24,3.86a44.8,44.8 0 0 0 19.61,0l17.23,-3.86l0,-2.06l0.03,0z" fill="url(#svg_90)"/>
   <g filter="url(#svg_80)">
    <path d="m59.32,30.83c-5.25,1.85 -14.18,3.59 -15.6,3.77" stroke="url(#svg_89)" stroke-width="0.25"/>
   </g>
   <g filter="url(#svg_79)">
    <path d="m7.06,30.83c5.25,1.85 14.18,3.59 15.6,3.77" stroke="url(#svg_88)" stroke-width="0.25"/>
   </g>
   <g filter="url(#svg_78)">
    <path d="m24.06,21.29c1.78,1.14 6.74,4.07 9.46,4.07c3.4,0 14.22,-8.95 20.63,-5.55c4.88,2.59 9.04,2.44 8.65,2.59" stroke="url(#svg_97)" stroke-width="0.75"/>
   </g>
   <g filter="url(#svg_77)">
    <path d="m14.01,22.07c-3.51,1.83 -8.43,4.25 -11.32,4.91l-0.81,-4.91s1.18,0.76 5.77,-1.37c6.21,-2.88 9.57,-4.14 13.19,-2.96l3.52,6.95c-2.25,-1.55 -8.73,-3.48 -10.36,-2.62" fill="url(#svg_87)"/>
   </g>
   <defs>
    <radialGradient cx="0" cy="0" gradientTransform="rotate(154.335 25.654 11.21) scale(37.8923 36.7109)" gradientUnits="userSpaceOnUse" id="svg_107" r="1">
     <stop offset="0.13" stop-color="#FFD39B"/>
     <stop offset="1" stop-color="#FFD39A" stop-opacity="0"/>
    </radialGradient>
    <radialGradient cx="0" cy="0" gradientTransform="rotate(124.244 14.044 15.068) scale(5.07351)" gradientUnits="userSpaceOnUse" id="svg_106" r="1">
     <stop offset="0.18" stop-color="#F6E8D9"/>
     <stop offset="0.61" stop-color="#E2CFC1"/>
    </radialGradient>
    <radialGradient cx="0" cy="0" gradientTransform="rotate(124.244 8.539 10.822) scale(5.07351)" gradientUnits="userSpaceOnUse" id="svg_105" r="1">
     <stop offset="0.18" stop-color="#F6E8D9"/>
     <stop offset="0.61" stop-color="#E2CFC1"/>
    </radialGradient>
    <radialGradient cx="0" cy="0" gradientTransform="rotate(124.244 20.653 17.23) scale(5.07351)" gradientUnits="userSpaceOnUse" id="svg_104" r="1">
     <stop offset="0.18" stop-color="#F6E8D9"/>
     <stop offset="0.61" stop-color="#E2CFC1"/>
    </radialGradient>
    <radialGradient cx="0" cy="0" gradientTransform="rotate(124.244 13.072 9.942) scale(5.07351)" gradientUnits="userSpaceOnUse" id="svg_103" r="1">
     <stop offset="0.18" stop-color="#F6E8D9"/>
     <stop offset="0.61" stop-color="#E2CFC1"/>
    </radialGradient>
    <radialGradient cx="0" cy="0" gradientTransform="rotate(124.244 18.832 12.989) scale(5.07352)" gradientUnits="userSpaceOnUse" id="svg_102" r="1">
     <stop offset="0.18" stop-color="#F6E8D9"/>
     <stop offset="0.61" stop-color="#E2CFC1"/>
    </radialGradient>
    <radialGradient cx="0" cy="0" gradientTransform="rotate(84.289 -6.38 27.43) scale(13.3731 44.1923)" gradientUnits="userSpaceOnUse" id="svg_101" r="1">
     <stop stop-color="#6B544C"/>
     <stop offset="1" stop-color="#6B544C" stop-opacity="0"/>
    </radialGradient>
    <radialGradient cx="0" cy="0" gradientTransform="matrix(0 8.87114 -27.8585 0 33.375 41.103)" gradientUnits="userSpaceOnUse" id="svg_100" r="1">
     <stop stop-color="#803E4C"/>
     <stop offset="1" stop-color="#824456" stop-opacity="0"/>
    </radialGradient>
    <radialGradient cx="0" cy="0" gradientTransform="matrix(.59141 4.13987 -11.4651 1.63787 2.03 23.879)" gradientUnits="userSpaceOnUse" id="svg_99" r="1">
     <stop stop-color="#6C9B83"/>
     <stop offset="1" stop-color="#6D9B85" stop-opacity="0"/>
    </radialGradient>
    <radialGradient cx="0" cy="0" gradientTransform="matrix(0 8.57544 -48.4142 0 61.32 46.575)" gradientUnits="userSpaceOnUse" id="svg_98" r="1">
     <stop stop-color="#FFD5AE"/>
     <stop offset="1" stop-color="#FFC8A0" stop-opacity="0"/>
    </radialGradient>
    <radialGradient cx="0" cy="0" gradientTransform="matrix(17.89014 5.027 -2.42701 8.63727 46.83 19.813)" gradientUnits="userSpaceOnUse" id="svg_97" r="1">
     <stop offset="0.23" stop-color="#87BE66"/>
     <stop offset="1" stop-color="#92C771" stop-opacity="0"/>
    </radialGradient>
    <linearGradient gradientUnits="userSpaceOnUse" id="svg_96" x1="6.33" x2="60.43" y1="29.85" y2="29.85">
     <stop stop-color="#DD7476"/>
     <stop offset="0.09" stop-color="#E2565F"/>
     <stop offset="0.24" stop-color="#DE445C"/>
     <stop offset="0.51" stop-color="#D62650"/>
     <stop offset="0.78" stop-color="#EB4A80"/>
     <stop offset="0.94" stop-color="#DB4379"/>
     <stop offset="1" stop-color="#D45E85"/>
    </linearGradient>
    <linearGradient gradientUnits="userSpaceOnUse" id="svg_95" x1="33.38" x2="33.38" y1="30.61" y2="28.39">
     <stop offset="0.47" stop-color="#E72D62"/>
     <stop offset="0.85" stop-color="#E72E64" stop-opacity="0"/>
    </linearGradient>
    <linearGradient gradientUnits="userSpaceOnUse" id="svg_94" x1="33.38" x2="33.38" y1="31.91" y2="42.91">
     <stop stop-color="#946B52"/>
     <stop offset="0.31" stop-color="#A77A6F"/>
     <stop offset="0.66" stop-color="#98655D"/>
     <stop offset="1" stop-color="#86536D"/>
    </linearGradient>
    <linearGradient gradientUnits="userSpaceOnUse" id="svg_93" x1="0.85" x2="65.76" y1="22.81" y2="22.81">
     <stop stop-color="#437151"/>
     <stop offset="0.51" stop-color="#619F49"/>
     <stop offset="1" stop-color="#79B142"/>
    </linearGradient>
    <linearGradient gradientUnits="userSpaceOnUse" id="svg_92" x1="0.85" x2="65.76" y1="22.25" y2="22.25">
     <stop stop-color="#437151"/>
     <stop offset="0.51" stop-color="#619F49"/>
     <stop offset="1" stop-color="#79B142"/>
    </linearGradient>
    <linearGradient gradientUnits="userSpaceOnUse" id="svg_91" x1="33.4" x2="33.4" y1="42.91" y2="53.7">
     <stop stop-color="#E18F63"/>
     <stop offset="0.38" stop-color="#E89C6E"/>
     <stop offset="0.57" stop-color="#EA9D75"/>
     <stop offset="1" stop-color="#E0819D"/>
    </linearGradient>
    <linearGradient gradientUnits="userSpaceOnUse" id="svg_90" x1="33.38" x2="33.38" y1="27.65" y2="36.86">
     <stop stop-color="#C7850F"/>
     <stop offset="0.49" stop-color="#F0CD2D"/>
     <stop offset="1" stop-color="#F7C747"/>
    </linearGradient>
    <linearGradient gradientUnits="userSpaceOnUse" id="svg_89" x1="41.36" x2="41.68" y1="33.56" y2="28.88">
     <stop stop-color="#FFE07A" stop-opacity="0"/>
     <stop offset="0.22" stop-color="#FFE68F"/>
     <stop offset="1" stop-color="#FFDB5C"/>
    </linearGradient>
    <linearGradient gradientUnits="userSpaceOnUse" id="svg_88" x1="25.02" x2="24.7" y1="33.56" y2="28.88">
     <stop stop-color="#FFE07A" stop-opacity="0"/>
     <stop offset="0.22" stop-color="#FFE68F"/>
     <stop offset="1" stop-color="#FFDB5C"/>
    </linearGradient>
    <linearGradient gradientUnits="userSpaceOnUse" id="svg_87" x1="3.95" x2="23.1" y1="24.47" y2="21.66">
     <stop stop-color="#66987E"/>
     <stop offset="0.46" stop-color="#66987E" stop-opacity="0.54"/>
     <stop offset="1" stop-color="#66987E" stop-opacity="0"/>
    </linearGradient>
    <filter color-interpolation-filters="sRGB" filterUnits="userSpaceOnUse" height="4.65" id="svg_86" width="4.65" x="30.57" y="11.16">
     <feFlood flood-opacity="0" result="BackgroundImageFix"/>
     <feBlend in="SourceGraphic" in2="BackgroundImageFix"/>
     <feGaussianBlur result="effect1_foregroundBlur_3_4521" stdDeviation="0.25"/>
    </filter>
    <filter color-interpolation-filters="sRGB" filterUnits="userSpaceOnUse" height="5.02" id="svg_85" width="4.99" x="17.56" y="8.96">
     <feFlood flood-opacity="0" result="BackgroundImageFix"/>
     <feBlend in="SourceGraphic" in2="BackgroundImageFix"/>
     <feGaussianBlur result="effect1_foregroundBlur_3_4521" stdDeviation="0.25"/>
    </filter>
    <filter color-interpolation-filters="sRGB" filterUnits="userSpaceOnUse" height="4.65" id="svg_84" width="4.65" x="42.69" y="8.84">
     <feFlood flood-opacity="0" result="BackgroundImageFix"/>
     <feBlend in="SourceGraphic" in2="BackgroundImageFix"/>
     <feGaussianBlur result="effect1_foregroundBlur_3_4521" stdDeviation="0.25"/>
    </filter>
    <filter color-interpolation-filters="sRGB" filterUnits="userSpaceOnUse" height="5.02" id="svg_83" width="4.99" x="24.15" y="3.46">
     <feFlood flood-opacity="0" result="BackgroundImageFix"/>
     <feBlend in="SourceGraphic" in2="BackgroundImageFix"/>
     <feGaussianBlur result="effect1_foregroundBlur_3_4521" stdDeviation="0.25"/>
    </filter>
    <filter color-interpolation-filters="sRGB" filterUnits="userSpaceOnUse" height="4.65" id="svg_82" width="4.65" x="35.99" y="3.83">
     <feFlood flood-opacity="0" result="BackgroundImageFix"/>
     <feBlend in="SourceGraphic" in2="BackgroundImageFix"/>
     <feGaussianBlur result="effect1_foregroundBlur_3_4521" stdDeviation="0.25"/>
    </filter>
    <filter color-interpolation-filters="sRGB" filterUnits="userSpaceOnUse" height="9.21" id="svg_81" width="53.12" x="7" y="19.4">
     <feFlood flood-opacity="0" result="BackgroundImageFix"/>
     <feBlend in="SourceGraphic" in2="BackgroundImageFix"/>
     <feGaussianBlur result="effect1_foregroundBlur_3_4521" stdDeviation="0.25"/>
    </filter>
    <filter color-interpolation-filters="sRGB" filterUnits="userSpaceOnUse" height="4.51" id="svg_80" width="16.16" x="43.46" y="30.46">
     <feFlood flood-opacity="0" result="BackgroundImageFix"/>
     <feBlend in="SourceGraphic" in2="BackgroundImageFix"/>
     <feGaussianBlur result="effect1_foregroundBlur_3_4521" stdDeviation="0.13"/>
    </filter>
    <filter color-interpolation-filters="sRGB" filterUnits="userSpaceOnUse" height="4.51" id="svg_79" width="16.16" x="6.77" y="30.46">
     <feFlood flood-opacity="0" result="BackgroundImageFix"/>
     <feBlend in="SourceGraphic" in2="BackgroundImageFix"/>
     <feGaussianBlur result="effect1_foregroundBlur_3_4521" stdDeviation="0.13"/>
    </filter>
    <filter color-interpolation-filters="sRGB" filterUnits="userSpaceOnUse" height="8.06" id="svg_78" width="40.34" x="23.36" y="18.17">
     <feFlood flood-opacity="0" result="BackgroundImageFix"/>
     <feBlend in="SourceGraphic" in2="BackgroundImageFix"/>
     <feGaussianBlur result="effect1_foregroundBlur_3_4521" stdDeviation="0.25"/>
    </filter>
    <filter color-interpolation-filters="sRGB" filterUnits="userSpaceOnUse" height="10.68" id="svg_77" width="23.48" x="1.38" y="16.8">
     <feFlood flood-opacity="0" result="BackgroundImageFix"/>
     <feBlend in="SourceGraphic" in2="BackgroundImageFix"/>
     <feGaussianBlur result="effect1_foregroundBlur_3_4521" stdDeviation="0.25"/>
    </filter>
   </defs>
  </symbol>
 </defs>
 <g class="layer">
  <title>Layer 1</title>
  <use id="svg_110" transform="matrix(33.3043 0 0 33.3043 11.2292 123.972)" x="0" xlink:href="#svg_108" y="0"/>
 </g>
</svg>