<svg xmlns="http://www.w3.org/2000/svg" width="2063" height="2063" fill="none" viewBox="0 0 84 126">
  <g filter="url(#a)">
    <path fill="url(#b)" d="M57.288 0H6.4A6.4 6.4 0 0 0 0 6.4v98.952a6.4 6.4 0 0 0 6.4 6.4h50.888a6.4 6.4 0 0 0 6.4-6.4V6.4a6.4 6.4 0 0 0-6.4-6.4Z"/>
    <path fill="url(#c)" d="M57.288 0H6.4A6.4 6.4 0 0 0 0 6.4v98.952a6.4 6.4 0 0 0 6.4 6.4h50.888a6.4 6.4 0 0 0 6.4-6.4V6.4a6.4 6.4 0 0 0-6.4-6.4Z"/>
  </g>
  <g filter="url(#d)">
    <path fill="url(#e)" d="M50.992 7.892H12.896a5.6 5.6 0 0 0-5.6 5.6v24.004a5.6 5.6 0 0 0 5.6 5.6h38.096a5.6 5.6 0 0 0 5.6-5.6V13.492a5.6 5.6 0 0 0-5.6-5.6Z"/>
  </g>
  <g filter="url(#f)">
    <path fill="url(#g)" d="M50.992 56.064H12.896a5.6 5.6 0 0 0-5.6 5.6V69.9a5.6 5.6 0 0 0 5.6 5.6h38.096a5.6 5.6 0 0 0 5.6-5.6v-8.236a5.6 5.6 0 0 0-5.6-5.6Z"/>
  </g>
  <g filter="url(#h)">
    <path fill="url(#i)" d="M50.992 83.86H12.896a5.6 5.6 0 0 0-5.6 5.6v8.236a5.6 5.6 0 0 0 5.6 5.6h38.096a5.6 5.6 0 0 0 5.6-5.6V89.46a5.6 5.6 0 0 0-5.6-5.6Z"/>
  </g>
  <g filter="url(#j)">
    <path fill="#C76B48" d="M55.188 55.312a4.092 4.092 0 1 0 0-8.184 4.092 4.092 0 0 0 0 8.184Z"/>
  </g>
  <path fill="url(#k)" d="M56.592 53.764a4.092 4.092 0 1 0 0-8.184 4.092 4.092 0 0 0 0 8.184Z"/>
  <path fill="url(#l)" d="M56.592 53.764a4.092 4.092 0 1 0 0-8.184 4.092 4.092 0 0 0 0 8.184Z"/>
  <path fill="url(#m)" d="M56.592 53.764a4.092 4.092 0 1 0 0-8.184 4.092 4.092 0 0 0 0 8.184Z"/>
  <g filter="url(#n)">
    <path stroke="#C2C2C6" stroke-width="2.75" d="M46.263 97.119v-9.04a8.15 8.15 0 0 1 16.302 0v9.04"/>
  </g>
  <path stroke="url(#o)" stroke-width="2.75" d="M46.263 97.119v-9.04a8.15 8.15 0 0 1 16.302 0v9.04"/>
  <g filter="url(#p)">
    <path stroke="url(#q)" d="M46.898 97.119v-9.36c0-4.66 3.73-8.44 8.329-8.44 4.598 0 8.328 3.78 8.328 8.44v9.36"/>
    <path stroke="url(#r)" d="M46.898 97.119v-9.36c0-4.66 3.73-8.44 8.329-8.44 4.598 0 8.328 3.78 8.328 8.44v9.36"/>
  </g>
  <g filter="url(#s)">
    <path fill="url(#t)" d="M67.414 92.218h-25.9a4.875 4.875 0 0 0-4.874 4.875v20.871a4.875 4.875 0 0 0 4.875 4.875h25.899a4.875 4.875 0 0 0 4.875-4.875V97.093a4.875 4.875 0 0 0-4.875-4.875Z"/>
  </g>
  <path fill="url(#u)" d="M67.414 92.218h-25.9a4.875 4.875 0 0 0-4.874 4.875v20.871a4.875 4.875 0 0 0 4.875 4.875h25.899a4.875 4.875 0 0 0 4.875-4.875V97.093a4.875 4.875 0 0 0-4.875-4.875Z"/>
  <path fill="url(#v)" d="M67.414 92.218h-25.9a4.875 4.875 0 0 0-4.874 4.875v20.871a4.875 4.875 0 0 0 4.875 4.875h25.899a4.875 4.875 0 0 0 4.875-4.875V97.093a4.875 4.875 0 0 0-4.875-4.875Z"/>
  <path fill="url(#w)" d="M67.414 92.218h-25.9a4.875 4.875 0 0 0-4.874 4.875v20.871a4.875 4.875 0 0 0 4.875 4.875h25.899a4.875 4.875 0 0 0 4.875-4.875V97.093a4.875 4.875 0 0 0-4.875-4.875Z"/>
  <g filter="url(#x)">
    <path fill="url(#y)" d="M63.672 92.564a7.53 7.53 0 0 0 4.503 8.279v4.617c0 .337.132.661.367.903l.68.704a1.164 1.164 0 0 1 .063 1.549l-.325.395a1.098 1.098 0 0 0-.009 1.386l.317.395a1.208 1.208 0 0 1-.12 1.642l-.556.516a1.292 1.292 0 0 0-.416.953v2.488a2.92 2.92 0 0 0 4.051 2.693c.041-.252.062-.51.062-.775v-20.87c0-2.693-1.056-4.04-3.747-4.04l-4.87-.835Z"/>
    <path fill="url(#z)" d="M63.672 92.564a7.53 7.53 0 0 0 4.503 8.279v4.617c0 .337.132.661.367.903l.68.704a1.164 1.164 0 0 1 .063 1.549l-.325.395a1.098 1.098 0 0 0-.009 1.386l.317.395a1.208 1.208 0 0 1-.12 1.642l-.556.516a1.292 1.292 0 0 0-.416.953v2.488a2.92 2.92 0 0 0 4.051 2.693c.041-.252.062-.51.062-.775v-20.87c0-2.693-1.056-4.04-3.747-4.04l-4.87-.835Z"/>
  </g>
  <g filter="url(#A)">
    <path stroke="url(#B)" stroke-width="1.75" d="M56.738 107.39a4.233 4.233 0 0 0 1.766-4.769 4.235 4.235 0 0 0-6.624-2.165 4.236 4.236 0 0 0 .313 6.962v5.353a2.272 2.272 0 1 0 4.545 0v-5.381Z"/>
    <path stroke="url(#C)" stroke-width="1.75" d="M56.738 107.39a4.233 4.233 0 0 0 1.766-4.769 4.235 4.235 0 0 0-6.624-2.165 4.236 4.236 0 0 0 .313 6.962v5.353a2.272 2.272 0 1 0 4.545 0v-5.381Z"/>
  </g>
  <path fill="url(#D)" d="M56.738 107.39a4.233 4.233 0 0 0 1.766-4.769 4.235 4.235 0 0 0-6.624-2.165 4.236 4.236 0 0 0 .313 6.962v5.353a2.272 2.272 0 1 0 4.545 0v-5.381Z"/>
  <g filter="url(#E)">
    <path fill="url(#F)" fill-rule="evenodd" d="M75.78 100.487a7.527 7.527 0 0 0 4.448-8.437 7.53 7.53 0 1 0-10.287 8.447v4.618c0 .338.131.662.365.904l.68.702a1.165 1.165 0 0 1 .061 1.55l-.325.393a1.102 1.102 0 0 0-.006 1.388l.317.395a1.209 1.209 0 0 1-.12 1.641l-.556.517a1.304 1.304 0 0 0-.416.952v2.49a2.917 2.917 0 0 0 1.786 2.76 2.922 2.922 0 0 0 4.052-2.76v-15.56Zm-1.244-10.833a1.69 1.69 0 1 1-3.378.148 1.69 1.69 0 0 1 3.378-.148Z" clip-rule="evenodd"/>
  </g>
  <path fill="url(#G)" fill-rule="evenodd" d="M75.78 100.487a7.527 7.527 0 0 0 4.448-8.437 7.53 7.53 0 1 0-10.287 8.447v4.618c0 .338.131.662.365.904l.68.702a1.165 1.165 0 0 1 .061 1.55l-.325.393a1.102 1.102 0 0 0-.006 1.388l.317.395a1.209 1.209 0 0 1-.12 1.641l-.556.517a1.304 1.304 0 0 0-.416.952v2.49a2.917 2.917 0 0 0 1.786 2.76 2.922 2.922 0 0 0 4.052-2.76v-15.56Zm-1.244-10.833a1.69 1.69 0 1 1-3.378.148 1.69 1.69 0 0 1 3.378-.148Z" clip-rule="evenodd"/>
  <g filter="url(#H)">
    <path stroke="url(#I)" stroke-width=".4" d="M73.147 100.299c3.672 0 6.65-3.028 6.65-6.763 0-3.736-2.978-6.764-6.65-6.764-3.673 0-6.65 3.028-6.65 6.764 0 3.735 2.977 6.763 6.65 6.763Z"/>
  </g>
  <defs>
    <radialGradient id="c" cx="0" cy="0" r="1" gradientTransform="rotate(137.527 31.472 13.33) scale(10.4038 9.51599)" gradientUnits="userSpaceOnUse">
      <stop offset=".039" stop-color="#E8A66F"/>
      <stop offset="1" stop-color="#E8A66F" stop-opacity="0"/>
    </radialGradient>
    <radialGradient id="k" cx="0" cy="0" r="1" gradientTransform="rotate(118.044 15.172 41.29) scale(7.3116)" gradientUnits="userSpaceOnUse">
      <stop offset=".242" stop-color="#FFB62F"/>
      <stop offset=".905" stop-color="#E07124"/>
    </radialGradient>
    <radialGradient id="l" cx="0" cy="0" r="1" gradientTransform="rotate(131.634 18.375 37.355) scale(3.763)" gradientUnits="userSpaceOnUse">
      <stop offset=".167" stop-color="#FFCB6E"/>
      <stop offset="1" stop-color="#FEA32F" stop-opacity="0"/>
    </radialGradient>
    <radialGradient id="m" cx="0" cy="0" r="1" gradientTransform="rotate(180 29.688 24.836) scale(7.68748)" gradientUnits="userSpaceOnUse">
      <stop offset=".682" stop-color="#F0972A" stop-opacity="0"/>
      <stop offset="1" stop-color="#D37D22"/>
    </radialGradient>
    <radialGradient id="o" cx="0" cy="0" r="1" gradientTransform="matrix(0 -7.87109 8.59394 0 54.414 86.58)" gradientUnits="userSpaceOnUse">
      <stop offset=".531" stop-color="#AB83C0"/>
      <stop offset="1" stop-color="#CBBBDC" stop-opacity="0"/>
    </radialGradient>
    <radialGradient id="q" cx="0" cy="0" r="1" gradientTransform="rotate(136.74 15.846 53.502) scale(8.52146 11.7054)" gradientUnits="userSpaceOnUse">
      <stop offset=".216" stop-color="#EDECF3"/>
      <stop offset="1" stop-color="#EDECF3" stop-opacity="0"/>
    </radialGradient>
    <radialGradient id="r" cx="0" cy="0" r="1" gradientTransform="matrix(0 -11.5781 8.39018 0 48.86 94.706)" gradientUnits="userSpaceOnUse">
      <stop stop-color="#EDECF3"/>
      <stop offset="1" stop-color="#EDECF3" stop-opacity="0"/>
    </radialGradient>
    <radialGradient id="u" cx="0" cy="0" r="1" gradientTransform="matrix(-3.5547 -3.91013 9.10936 -8.28132 71.374 122.839)" gradientUnits="userSpaceOnUse">
      <stop stop-color="#FF8650"/>
      <stop offset="1" stop-color="#FF8650" stop-opacity="0"/>
    </radialGradient>
    <radialGradient id="w" cx="0" cy="0" r="1" gradientTransform="matrix(-2.23438 3.04687 -6.88187 -5.04673 71.782 92.217)" gradientUnits="userSpaceOnUse">
      <stop stop-color="#FFF760"/>
      <stop offset="1" stop-color="#FFF760" stop-opacity="0"/>
    </radialGradient>
    <radialGradient id="z" cx="0" cy="0" r="1" gradientTransform="matrix(-4.96662 0 0 -6.9843 72.889 109.05)" gradientUnits="userSpaceOnUse">
      <stop offset=".336" stop-color="#763C16"/>
      <stop offset="1" stop-color="#763C16" stop-opacity="0"/>
    </radialGradient>
    <radialGradient id="D" cx="0" cy="0" r="1" gradientTransform="matrix(7.66161 5.1797 -7.1237 10.53712 50.206 104.507)" gradientUnits="userSpaceOnUse">
      <stop offset=".217" stop-color="#564F80"/>
      <stop offset="1" stop-color="#473154"/>
    </radialGradient>
    <radialGradient id="G" cx="0" cy="0" r="1" gradientTransform="matrix(0 21.4882 -10.551 0 72.848 97.478)" gradientUnits="userSpaceOnUse">
      <stop offset=".935" stop-color="#C0A3E0" stop-opacity="0"/>
      <stop offset="1" stop-color="#B778E9"/>
    </radialGradient>
    <filter id="a" width="64.388" height="112.452" x="-.2" y="-.5" color-interpolation-filters="sRGB" filterUnits="userSpaceOnUse">
      <feFlood flood-opacity="0" result="BackgroundImageFix"/>
      <feBlend in="SourceGraphic" in2="BackgroundImageFix" result="shape"/>
      <feColorMatrix in="SourceAlpha" result="hardAlpha" values="0 0 0 0 0 0 0 0 0 0 0 0 0 0 0 0 0 0 127 0"/>
      <feOffset dx=".5" dy="-.5"/>
      <feGaussianBlur stdDeviation=".625"/>
      <feComposite in2="hardAlpha" k2="-1" k3="1" operator="arithmetic"/>
      <feColorMatrix values="0 0 0 0 0.694118 0 0 0 0 0.368627 0 0 0 0 0.329412 0 0 0 1 0"/>
      <feBlend in2="shape" result="effect1_innerShadow_88_60"/>
      <feColorMatrix in="SourceAlpha" result="hardAlpha" values="0 0 0 0 0 0 0 0 0 0 0 0 0 0 0 0 0 0 127 0"/>
      <feOffset dx="-.2" dy=".2"/>
      <feGaussianBlur stdDeviation=".25"/>
      <feComposite in2="hardAlpha" k2="-1" k3="1" operator="arithmetic"/>
      <feColorMatrix values="0 0 0 0 0.811765 0 0 0 0 0.556863 0 0 0 0 0.321569 0 0 0 1 0"/>
      <feBlend in2="effect1_innerShadow_88_60" result="effect2_innerShadow_88_60"/>
    </filter>
    <filter id="d" width="50.296" height="36.204" x="6.796" y="7.392" color-interpolation-filters="sRGB" filterUnits="userSpaceOnUse">
      <feFlood flood-opacity="0" result="BackgroundImageFix"/>
      <feBlend in="SourceGraphic" in2="BackgroundImageFix" result="shape"/>
      <feColorMatrix in="SourceAlpha" result="hardAlpha" values="0 0 0 0 0 0 0 0 0 0 0 0 0 0 0 0 0 0 127 0"/>
      <feOffset dx=".5" dy="-.5"/>
      <feGaussianBlur stdDeviation=".325"/>
      <feComposite in2="hardAlpha" k2="-1" k3="1" operator="arithmetic"/>
      <feColorMatrix values="0 0 0 0 0.811765 0 0 0 0 0.592157 0 0 0 0 0.435294 0 0 0 1 0"/>
      <feBlend in2="shape" result="effect1_innerShadow_88_60"/>
      <feColorMatrix in="SourceAlpha" result="hardAlpha" values="0 0 0 0 0 0 0 0 0 0 0 0 0 0 0 0 0 0 127 0"/>
      <feOffset dx=".2" dy="-.4"/>
      <feGaussianBlur stdDeviation=".325"/>
      <feComposite in2="hardAlpha" k2="-1" k3="1" operator="arithmetic"/>
      <feColorMatrix values="0 0 0 0 0.760784 0 0 0 0 0.486275 0 0 0 0 0.270588 0 0 0 1 0"/>
      <feBlend in2="effect1_innerShadow_88_60" result="effect2_innerShadow_88_60"/>
      <feColorMatrix in="SourceAlpha" result="hardAlpha" values="0 0 0 0 0 0 0 0 0 0 0 0 0 0 0 0 0 0 127 0"/>
      <feOffset dx="-.5" dy=".5"/>
      <feGaussianBlur stdDeviation=".325"/>
      <feComposite in2="hardAlpha" k2="-1" k3="1" operator="arithmetic"/>
      <feColorMatrix values="0 0 0 0 0.717647 0 0 0 0 0.403922 0 0 0 0 0.278431 0 0 0 1 0"/>
      <feBlend in2="effect2_innerShadow_88_60" result="effect3_innerShadow_88_60"/>
    </filter>
    <filter id="f" width="50.296" height="20.436" x="6.796" y="55.564" color-interpolation-filters="sRGB" filterUnits="userSpaceOnUse">
      <feFlood flood-opacity="0" result="BackgroundImageFix"/>
      <feBlend in="SourceGraphic" in2="BackgroundImageFix" result="shape"/>
      <feColorMatrix in="SourceAlpha" result="hardAlpha" values="0 0 0 0 0 0 0 0 0 0 0 0 0 0 0 0 0 0 127 0"/>
      <feOffset dx=".5" dy="-.5"/>
      <feGaussianBlur stdDeviation=".325"/>
      <feComposite in2="hardAlpha" k2="-1" k3="1" operator="arithmetic"/>
      <feColorMatrix values="0 0 0 0 0.811765 0 0 0 0 0.592157 0 0 0 0 0.435294 0 0 0 1 0"/>
      <feBlend in2="shape" result="effect1_innerShadow_88_60"/>
      <feColorMatrix in="SourceAlpha" result="hardAlpha" values="0 0 0 0 0 0 0 0 0 0 0 0 0 0 0 0 0 0 127 0"/>
      <feOffset dx=".2" dy="-.4"/>
      <feGaussianBlur stdDeviation=".325"/>
      <feComposite in2="hardAlpha" k2="-1" k3="1" operator="arithmetic"/>
      <feColorMatrix values="0 0 0 0 0.760784 0 0 0 0 0.486275 0 0 0 0 0.270588 0 0 0 1 0"/>
      <feBlend in2="effect1_innerShadow_88_60" result="effect2_innerShadow_88_60"/>
      <feColorMatrix in="SourceAlpha" result="hardAlpha" values="0 0 0 0 0 0 0 0 0 0 0 0 0 0 0 0 0 0 127 0"/>
      <feOffset dx="-.5" dy=".5"/>
      <feGaussianBlur stdDeviation=".325"/>
      <feComposite in2="hardAlpha" k2="-1" k3="1" operator="arithmetic"/>
      <feColorMatrix values="0 0 0 0 0.717647 0 0 0 0 0.403922 0 0 0 0 0.278431 0 0 0 1 0"/>
      <feBlend in2="effect2_innerShadow_88_60" result="effect3_innerShadow_88_60"/>
    </filter>
    <filter id="h" width="50.296" height="20.436" x="6.796" y="83.36" color-interpolation-filters="sRGB" filterUnits="userSpaceOnUse">
      <feFlood flood-opacity="0" result="BackgroundImageFix"/>
      <feBlend in="SourceGraphic" in2="BackgroundImageFix" result="shape"/>
      <feColorMatrix in="SourceAlpha" result="hardAlpha" values="0 0 0 0 0 0 0 0 0 0 0 0 0 0 0 0 0 0 127 0"/>
      <feOffset dx=".5" dy="-.5"/>
      <feGaussianBlur stdDeviation=".325"/>
      <feComposite in2="hardAlpha" k2="-1" k3="1" operator="arithmetic"/>
      <feColorMatrix values="0 0 0 0 0.811765 0 0 0 0 0.592157 0 0 0 0 0.435294 0 0 0 1 0"/>
      <feBlend in2="shape" result="effect1_innerShadow_88_60"/>
      <feColorMatrix in="SourceAlpha" result="hardAlpha" values="0 0 0 0 0 0 0 0 0 0 0 0 0 0 0 0 0 0 127 0"/>
      <feOffset dx=".2" dy="-.4"/>
      <feGaussianBlur stdDeviation=".325"/>
      <feComposite in2="hardAlpha" k2="-1" k3="1" operator="arithmetic"/>
      <feColorMatrix values="0 0 0 0 0.760784 0 0 0 0 0.486275 0 0 0 0 0.270588 0 0 0 1 0"/>
      <feBlend in2="effect1_innerShadow_88_60" result="effect2_innerShadow_88_60"/>
      <feColorMatrix in="SourceAlpha" result="hardAlpha" values="0 0 0 0 0 0 0 0 0 0 0 0 0 0 0 0 0 0 127 0"/>
      <feOffset dx="-.5" dy=".5"/>
      <feGaussianBlur stdDeviation=".325"/>
      <feComposite in2="hardAlpha" k2="-1" k3="1" operator="arithmetic"/>
      <feColorMatrix values="0 0 0 0 0.717647 0 0 0 0 0.403922 0 0 0 0 0.278431 0 0 0 1 0"/>
      <feBlend in2="effect2_innerShadow_88_60" result="effect3_innerShadow_88_60"/>
    </filter>
    <filter id="j" width="9.484" height="9.484" x="50.446" y="46.478" color-interpolation-filters="sRGB" filterUnits="userSpaceOnUse">
      <feFlood flood-opacity="0" result="BackgroundImageFix"/>
      <feBlend in="SourceGraphic" in2="BackgroundImageFix" result="shape"/>
      <feGaussianBlur result="effect1_foregroundBlur_88_60" stdDeviation=".325"/>
    </filter>
    <filter id="n" width="20.052" height="18.566" x="44.888" y="78.553" color-interpolation-filters="sRGB" filterUnits="userSpaceOnUse">
      <feFlood flood-opacity="0" result="BackgroundImageFix"/>
      <feBlend in="SourceGraphic" in2="BackgroundImageFix" result="shape"/>
      <feColorMatrix in="SourceAlpha" result="hardAlpha" values="0 0 0 0 0 0 0 0 0 0 0 0 0 0 0 0 0 0 127 0"/>
      <feOffset dx="1"/>
      <feGaussianBlur stdDeviation=".5"/>
      <feComposite in2="hardAlpha" k2="-1" k3="1" operator="arithmetic"/>
      <feColorMatrix values="0 0 0 0 0.560784 0 0 0 0 0.556863 0 0 0 0 0.576471 0 0 0 1 0"/>
      <feBlend in2="shape" result="effect1_innerShadow_88_60"/>
    </filter>
    <filter id="p" width="19.156" height="19.8" x="45.648" y="78.069" color-interpolation-filters="sRGB" filterUnits="userSpaceOnUse">
      <feFlood flood-opacity="0" result="BackgroundImageFix"/>
      <feBlend in="SourceGraphic" in2="BackgroundImageFix" result="shape"/>
      <feGaussianBlur result="effect1_foregroundBlur_88_60" stdDeviation=".375"/>
    </filter>
    <filter id="s" width="37.149" height="32.122" x="35.89" y="91.468" color-interpolation-filters="sRGB" filterUnits="userSpaceOnUse">
      <feFlood flood-opacity="0" result="BackgroundImageFix"/>
      <feBlend in="SourceGraphic" in2="BackgroundImageFix" result="shape"/>
      <feColorMatrix in="SourceAlpha" result="hardAlpha" values="0 0 0 0 0 0 0 0 0 0 0 0 0 0 0 0 0 0 127 0"/>
      <feOffset dy="-.75"/>
      <feGaussianBlur stdDeviation=".375"/>
      <feComposite in2="hardAlpha" k2="-1" k3="1" operator="arithmetic"/>
      <feColorMatrix values="0 0 0 0 0.898039 0 0 0 0 0.364706 0 0 0 0 0.423529 0 0 0 1 0"/>
      <feBlend in2="shape" result="effect1_innerShadow_88_60"/>
      <feColorMatrix in="SourceAlpha" result="hardAlpha" values="0 0 0 0 0 0 0 0 0 0 0 0 0 0 0 0 0 0 127 0"/>
      <feOffset dx="-1"/>
      <feGaussianBlur stdDeviation=".375"/>
      <feComposite in2="hardAlpha" k2="-1" k3="1" operator="arithmetic"/>
      <feColorMatrix values="0 0 0 0 1 0 0 0 0 0.772549 0 0 0 0 0.364706 0 0 0 1 0"/>
      <feBlend in2="effect1_innerShadow_88_60" result="effect2_innerShadow_88_60"/>
      <feColorMatrix in="SourceAlpha" result="hardAlpha" values="0 0 0 0 0 0 0 0 0 0 0 0 0 0 0 0 0 0 127 0"/>
      <feOffset dy="1"/>
      <feGaussianBlur stdDeviation=".375"/>
      <feComposite in2="hardAlpha" k2="-1" k3="1" operator="arithmetic"/>
      <feColorMatrix values="0 0 0 0 1 0 0 0 0 0.843137 0 0 0 0 0.266667 0 0 0 1 0"/>
      <feBlend in2="effect2_innerShadow_88_60" result="effect3_innerShadow_88_60"/>
      <feColorMatrix in="SourceAlpha" result="hardAlpha" values="0 0 0 0 0 0 0 0 0 0 0 0 0 0 0 0 0 0 127 0"/>
      <feOffset dx=".75"/>
      <feGaussianBlur stdDeviation=".375"/>
      <feComposite in2="hardAlpha" k2="-1" k3="1" operator="arithmetic"/>
      <feColorMatrix values="0 0 0 0 0.729412 0 0 0 0 0.478431 0 0 0 0 0.207843 0 0 0 1 0"/>
      <feBlend in2="effect3_innerShadow_88_60" result="effect4_innerShadow_88_60"/>
    </filter>
    <filter id="x" width="10.736" height="28.748" x="62.553" y="91.564" color-interpolation-filters="sRGB" filterUnits="userSpaceOnUse">
      <feFlood flood-opacity="0" result="BackgroundImageFix"/>
      <feBlend in="SourceGraphic" in2="BackgroundImageFix" result="shape"/>
      <feGaussianBlur result="effect1_foregroundBlur_88_60" stdDeviation=".5"/>
    </filter>
    <filter id="A" width="11.223" height="18.201" x="48.832" y="98.218" color-interpolation-filters="sRGB" filterUnits="userSpaceOnUse">
      <feFlood flood-opacity="0" result="BackgroundImageFix"/>
      <feBlend in="SourceGraphic" in2="BackgroundImageFix" result="shape"/>
      <feGaussianBlur result="effect1_foregroundBlur_88_60" stdDeviation=".25"/>
    </filter>
    <filter id="E" width="15.661" height="33.365" x="65.068" y="85.921" color-interpolation-filters="sRGB" filterUnits="userSpaceOnUse">
      <feFlood flood-opacity="0" result="BackgroundImageFix"/>
      <feBlend in="SourceGraphic" in2="BackgroundImageFix" result="shape"/>
      <feColorMatrix in="SourceAlpha" result="hardAlpha" values="0 0 0 0 0 0 0 0 0 0 0 0 0 0 0 0 0 0 127 0"/>
      <feOffset dx=".35" dy="-.1"/>
      <feGaussianBlur stdDeviation=".3"/>
      <feComposite in2="hardAlpha" k2="-1" k3="1" operator="arithmetic"/>
      <feColorMatrix values="0 0 0 0 0.686275 0 0 0 0 0.529412 0 0 0 0 0.784314 0 0 0 1 0"/>
      <feBlend in2="shape" result="effect1_innerShadow_88_60"/>
      <feColorMatrix in="SourceAlpha" result="hardAlpha" values="0 0 0 0 0 0 0 0 0 0 0 0 0 0 0 0 0 0 127 0"/>
      <feOffset dx="-.25" dy=".25"/>
      <feGaussianBlur stdDeviation=".25"/>
      <feComposite in2="hardAlpha" k2="-1" k3="1" operator="arithmetic"/>
      <feColorMatrix values="0 0 0 0 0.898039 0 0 0 0 0.886275 0 0 0 0 0.929412 0 0 0 1 0"/>
      <feBlend in2="effect1_innerShadow_88_60" result="effect2_innerShadow_88_60"/>
      <feColorMatrix in="SourceAlpha" result="hardAlpha" values="0 0 0 0 0 0 0 0 0 0 0 0 0 0 0 0 0 0 127 0"/>
      <feOffset dx=".15" dy=".15"/>
      <feGaussianBlur stdDeviation=".3"/>
      <feComposite in2="hardAlpha" k2="-1" k3="1" operator="arithmetic"/>
      <feColorMatrix values="0 0 0 0 0.588235 0 0 0 0 0.568627 0 0 0 0 0.607843 0 0 0 1 0"/>
      <feBlend in2="effect2_innerShadow_88_60" result="effect3_innerShadow_88_60"/>
    </filter>
    <filter id="H" width="14.199" height="14.427" x="66.047" y="86.323" color-interpolation-filters="sRGB" filterUnits="userSpaceOnUse">
      <feFlood flood-opacity="0" result="BackgroundImageFix"/>
      <feBlend in="SourceGraphic" in2="BackgroundImageFix" result="shape"/>
      <feGaussianBlur result="effect1_foregroundBlur_88_60" stdDeviation=".125"/>
    </filter>
    <linearGradient id="b" x1="31.844" x2="31.844" y1="0" y2="111.748" gradientUnits="userSpaceOnUse">
      <stop stop-color="#DA9662"/>
      <stop offset="1" stop-color="#D58763"/>
    </linearGradient>
    <linearGradient id="e" x1="7.296" x2="56.592" y1="26.748" y2="26.748" gradientUnits="userSpaceOnUse">
      <stop stop-color="#CC8D6A"/>
      <stop offset="1" stop-color="#C48462"/>
    </linearGradient>
    <linearGradient id="g" x1="7.296" x2="56.592" y1="66.476" y2="66.476" gradientUnits="userSpaceOnUse">
      <stop stop-color="#CC8D6A"/>
      <stop offset="1" stop-color="#C48462"/>
    </linearGradient>
    <linearGradient id="i" x1="7.296" x2="56.592" y1="94.272" y2="94.272" gradientUnits="userSpaceOnUse">
      <stop stop-color="#CC8D6A"/>
      <stop offset="1" stop-color="#C48462"/>
    </linearGradient>
    <linearGradient id="t" x1="44.968" x2="56.242" y1="97.194" y2="122.839" gradientUnits="userSpaceOnUse">
      <stop stop-color="#FFC74E"/>
      <stop offset="1" stop-color="#F7864E"/>
    </linearGradient>
    <linearGradient id="v" x1="54.464" x2="54.464" y1="91.709" y2="94.147" gradientUnits="userSpaceOnUse">
      <stop stop-color="#F3D04E"/>
      <stop offset="1" stop-color="#F3D04E" stop-opacity="0"/>
    </linearGradient>
    <linearGradient id="y" x1="67.921" x2="67.921" y1="92.564" y2="119.311" gradientUnits="userSpaceOnUse">
      <stop stop-color="#BE7F3B"/>
      <stop offset="1" stop-color="#BC553E"/>
    </linearGradient>
    <linearGradient id="B" x1="59.542" x2="53.246" y1="109.483" y2="109.483" gradientUnits="userSpaceOnUse">
      <stop offset=".331" stop-color="#D98A40"/>
      <stop offset="1" stop-color="#D98A40" stop-opacity="0"/>
    </linearGradient>
    <linearGradient id="C" x1="49.386" x2="53.805" y1="107.959" y2="107.959" gradientUnits="userSpaceOnUse">
      <stop stop-color="#FFCD63"/>
      <stop offset="1" stop-color="#FFCD63" stop-opacity="0"/>
    </linearGradient>
    <linearGradient id="F" x1="72.848" x2="72.848" y1="105.384" y2="118.967" gradientUnits="userSpaceOnUse">
      <stop stop-color="#CDC1DE"/>
      <stop offset="1" stop-color="#C3B0DB"/>
    </linearGradient>
    <linearGradient id="I" x1="80.116" x2="75.823" y1="88.365" y2="91.823" gradientUnits="userSpaceOnUse">
      <stop offset=".126" stop-color="#EBE8F3"/>
      <stop offset="1" stop-color="#EBE8F3" stop-opacity="0"/>
    </linearGradient>
  </defs>
</svg>
