<svg xmlns="http://www.w3.org/2000/svg" width="2200" height="2200" fill="none" viewBox="0 0 52 52">
  <g filter="url(#a)">
    <path fill="url(#b)" d="M3.25 6.5A3.25 3.25 0 0 1 6.5 3.25h39a3.25 3.25 0 0 1 3.25 3.25v39a3.25 3.25 0 0 1-3.25 3.25h-39a3.25 3.25 0 0 1-3.25-3.25v-39Z"/>
  </g>
  <path fill="url(#c)" d="M25.7 36.966c6.075 0 10.999-4.924 10.999-10.998 0-6.074-4.924-10.998-10.998-10.998-6.074 0-10.998 4.924-10.998 10.998 0 6.074 4.923 10.998 10.997 10.998Z"/>
  <path fill="url(#d)" d="M25.7 36.966c6.075 0 10.999-4.924 10.999-10.998 0-6.074-4.924-10.998-10.998-10.998-6.074 0-10.998 4.924-10.998 10.998 0 6.074 4.923 10.998 10.997 10.998Z"/>
  <g filter="url(#e)">
    <path fill="#DDCEF5" d="M25.726 36.613c5.893 0 10.67-4.777 10.67-10.67s-4.777-10.67-10.67-10.67-10.67 4.776-10.67 10.67c0 5.893 4.777 10.67 10.67 10.67Z"/>
    <path fill="url(#f)" d="M25.726 36.613c5.893 0 10.67-4.777 10.67-10.67s-4.777-10.67-10.67-10.67-10.67 4.776-10.67 10.67c0 5.893 4.777 10.67 10.67 10.67Z"/>
  </g>
  <g filter="url(#g)">
    <path fill="url(#h)" d="M24.755 15.302c3.202-.437 7.271.946 9.264 4.326-2.577-2.476-5.315-4.002-9.264-4.326Z"/>
  </g>
  <path fill="#D8CBF0" d="M25.7 33.535a7.567 7.567 0 1 0 .001-15.133 7.567 7.567 0 0 0-.001 15.133Z"/>
  <path fill="url(#i)" d="M25.7 33.535a7.567 7.567 0 1 0 .001-15.133 7.567 7.567 0 0 0-.001 15.133Z"/>
  <path fill="url(#j)" d="M25.7 33.535a7.567 7.567 0 1 0 .001-15.133 7.567 7.567 0 0 0-.001 15.133Z"/>
  <path fill="url(#k)" d="M25.7 33.535a7.567 7.567 0 1 0 .001-15.133 7.567 7.567 0 0 0-.001 15.133Z"/>
  <g filter="url(#l)">
    <path fill="#B9A9D2" d="M37.906 19.49v9.031l-2.053-.822c-1.384-.55-2.295-2.01-2.295-3.653V19.49h4.348Z"/>
  </g>
  <path fill="url(#m)" d="M36.949 14c1.127 0 2.041.895 2.041 1.998v11.226h-2.63a3.834 3.834 0 0 1-2.329-3.553v-6.803c-.012-1.58 1.29-2.868 2.918-2.868Z"/>
  <path fill="url(#n)" d="M36.949 14c1.127 0 2.041.895 2.041 1.998v11.226h-2.63a3.834 3.834 0 0 1-2.329-3.553v-6.803c-.012-1.58 1.29-2.868 2.918-2.868Z"/>
  <path fill="url(#o)" d="M36.949 14c1.127 0 2.041.895 2.041 1.998v11.226h-2.63a3.834 3.834 0 0 1-2.329-3.553v-6.803c-.012-1.58 1.29-2.868 2.918-2.868Z"/>
  <path fill="url(#p)" d="M36.949 14c1.127 0 2.041.895 2.041 1.998v11.226h-2.63a3.834 3.834 0 0 1-2.329-3.553v-6.803c-.012-1.58 1.29-2.868 2.918-2.868Z"/>
  <g filter="url(#q)">
    <path fill="url(#r)" d="M36.806 14.97c.758 0 1.374.603 1.374 1.345v10.023c-1.374 0-3.339-1.052-3.339-3.665v-5.77c-.008-1.065.869-1.933 1.965-1.933Z"/>
  </g>
  <path fill="url(#s)" d="M36.348 27.224v10.573c0 .638.526 1.153 1.177 1.153h.288c.651 0 1.177-.515 1.177-1.153V27.224h-2.642Z"/>
  <path fill="url(#t)" d="M36.348 27.224v10.573c0 .638.526 1.153 1.177 1.153h.288c.651 0 1.177-.515 1.177-1.153V27.224h-2.642Z"/>
  <path fill="url(#u)" d="M36.348 27.224v10.573c0 .638.526 1.153 1.177 1.153h.288c.651 0 1.177-.515 1.177-1.153V27.224h-2.642Z"/>
  <path fill="url(#v)" d="M16.965 14c-.47 0-.841.33-.841.723v3.315c0 .213-.198.372-.434.372-.247 0-.433-.17-.433-.372v-3.283c0-.393-.359-.744-.817-.755-.482-.01-.878.32-.878.723v3.315c0 .213-.198.372-.433.372-.248 0-.434-.17-.434-.372v-3.283c0-.393-.358-.744-.816-.755-.483-.01-.879.32-.879.723v5.83c0 2.054 2.116 2.611 2.116 4.064v13.005c0 .706.595 1.328 1.306 1.328.71 0 1.306-.622 1.306-1.328V24.618c0-1.505 2.116-1.994 2.116-4.065v-5.83c-.025-.392-.409-.722-.879-.722"/>
  <path fill="url(#w)" d="M16.965 14c-.47 0-.841.33-.841.723v3.315c0 .213-.198.372-.434.372-.247 0-.433-.17-.433-.372v-3.283c0-.393-.359-.744-.817-.755-.482-.01-.878.32-.878.723v3.315c0 .213-.198.372-.433.372-.248 0-.434-.17-.434-.372v-3.283c0-.393-.358-.744-.816-.755-.483-.01-.879.32-.879.723v5.83c0 2.054 2.116 2.611 2.116 4.064v13.005c0 .706.595 1.328 1.306 1.328.71 0 1.306-.622 1.306-1.328V24.618c0-1.505 2.116-1.994 2.116-4.065v-5.83c-.025-.392-.409-.722-.879-.722"/>
  <path fill="url(#x)" d="M16.965 14c-.47 0-.841.33-.841.723v3.315c0 .213-.198.372-.434.372-.247 0-.433-.17-.433-.372v-3.283c0-.393-.359-.744-.817-.755-.482-.01-.878.32-.878.723v3.315c0 .213-.198.372-.433.372-.248 0-.434-.17-.434-.372v-3.283c0-.393-.358-.744-.816-.755-.483-.01-.879.32-.879.723v5.83c0 2.054 2.116 2.611 2.116 4.064v13.005c0 .706.595 1.328 1.306 1.328.71 0 1.306-.622 1.306-1.328V24.618c0-1.505 2.116-1.994 2.116-4.065v-5.83c-.025-.392-.409-.722-.879-.722"/>
  <path fill="url(#y)" d="M16.965 14c-.47 0-.841.33-.841.723v3.315c0 .213-.198.372-.434.372-.247 0-.433-.17-.433-.372v-3.283c0-.393-.359-.744-.817-.755-.482-.01-.878.32-.878.723v3.315c0 .213-.198.372-.433.372-.248 0-.434-.17-.434-.372v-3.283c0-.393-.358-.744-.816-.755-.483-.01-.879.32-.879.723v5.83c0 2.054 2.116 2.611 2.116 4.064v13.005c0 .706.595 1.328 1.306 1.328.71 0 1.306-.622 1.306-1.328V24.618c0-1.505 2.116-1.994 2.116-4.065v-5.83c-.025-.392-.409-.722-.879-.722"/>
  <path fill="url(#z)" d="M16.965 14c-.47 0-.841.33-.841.723v3.315c0 .213-.198.372-.434.372-.247 0-.433-.17-.433-.372v-3.283c0-.393-.359-.744-.817-.755-.482-.01-.878.32-.878.723v3.315c0 .213-.198.372-.433.372-.248 0-.434-.17-.434-.372v-3.283c0-.393-.358-.744-.816-.755-.483-.01-.879.32-.879.723v5.83c0 2.054 2.116 2.611 2.116 4.064v13.005c0 .706.595 1.328 1.306 1.328.71 0 1.306-.622 1.306-1.328V24.618c0-1.505 2.116-1.994 2.116-4.065v-5.83c-.025-.392-.409-.722-.879-.722"/>
  <g filter="url(#A)">
    <path fill="url(#B)" d="M16.96 14.516c-.388 0-.444.361-.444.755v2.681c0 .64-.485.795-.79.795-.304 0-.851-.172-.851-.795v-2.68c0-.395-.055-.756-.383-.756s-.406.35-.406.754v2.682c0 .435-.445.795-.953.795-.375 0-.883-.25-.883-.795v-2.68c0-.395-.07-.756-.398-.756-.329 0-.399.35-.399.755v5.281c0 2.055 2.125 2.612 2.125 4.065v12.958c0 .706.225 1.102.813 1.102.587 0 .922-.349.922-1.055V24.618c0-1.505 2.14-1.994 2.14-4.065v-2.6l-.078-2.682c-.02-.393-.025-.754-.414-.754"/>
    <path fill="url(#C)" d="M16.96 14.516c-.388 0-.444.361-.444.755v2.681c0 .64-.485.795-.79.795-.304 0-.851-.172-.851-.795v-2.68c0-.395-.055-.756-.383-.756s-.406.35-.406.754v2.682c0 .435-.445.795-.953.795-.375 0-.883-.25-.883-.795v-2.68c0-.395-.07-.756-.398-.756-.329 0-.399.35-.399.755v5.281c0 2.055 2.125 2.612 2.125 4.065v12.958c0 .706.225 1.102.813 1.102.587 0 .922-.349.922-1.055V24.618c0-1.505 2.14-1.994 2.14-4.065v-2.6l-.078-2.682c-.02-.393-.025-.754-.414-.754"/>
  </g>
  <g filter="url(#D)">
    <path stroke="#C3BDCF" stroke-linecap="round" stroke-width=".5" d="M15.156 24.552v13.031"/>
  </g>
  <g filter="url(#E)">
    <path fill="url(#F)" d="M12.34 14.892a.2.2 0 1 0-.4 0h.4Zm.683 4.203h.2v-.4h-.2v.4Zm-1.083-4.203v2.8h.4v-2.8h-.4Zm0 2.8c0 .172.044.504.19.802.149.302.426.601.893.601v-.4c-.258 0-.423-.153-.534-.378-.113-.23-.148-.5-.148-.625h-.4Z"/>
  </g>
  <g filter="url(#G)">
    <path fill="url(#H)" d="M14.903 14.892a.2.2 0 0 0-.4 0h.4Zm.683 4.203h.2v-.4h-.2v.4Zm-1.083-4.203v2.8h.4v-2.8h-.4Zm0 2.8c0 .172.043.504.19.802.15.302.425.601.893.601v-.4c-.259 0-.424-.153-.535-.378-.113-.23-.148-.5-.148-.625h-.4Z"/>
  </g>
  <g filter="url(#I)">
    <path stroke="#C3BDCF" stroke-linecap="round" stroke-width=".4" d="M17.344 14.833v5.625c0 .86-1.016 2.125-1.485 2.563"/>
  </g>
  <g filter="url(#J)">
    <path fill="#E0DCE8" d="M12.063 14.97a.258.258 0 1 0 0-.516.258.258 0 0 0 0 .516Z"/>
  </g>
  <g filter="url(#K)">
    <path fill="#E0DCE8" d="M14.68 14.97a.258.258 0 1 0 0-.516.258.258 0 0 0 0 .516Z"/>
  </g>
  <g filter="url(#L)">
    <path fill="#E0DCE8" d="M17.195 14.97a.258.258 0 1 0 0-.516.258.258 0 0 0 0 .516Z"/>
  </g>
  <defs>
    <radialGradient id="d" cx="0" cy="0" r="1" gradientTransform="rotate(115.805 10.234 18.154) scale(6.10527 9.71154)" gradientUnits="userSpaceOnUse">
      <stop stop-color="#DADAE0"/>
      <stop offset="1" stop-color="#D7D6DE" stop-opacity="0"/>
    </radialGradient>
    <radialGradient id="f" cx="0" cy="0" r="1" gradientTransform="rotate(-42.333 49.932 -7.116) scale(16.1484 16.1483)" gradientUnits="userSpaceOnUse">
      <stop stop-color="#EAE0FD"/>
      <stop offset="1" stop-color="#E7DDF9" stop-opacity="0"/>
    </radialGradient>
    <radialGradient id="h" cx="0" cy="0" r="1" gradientTransform="rotate(114.444 9.705 18.003) scale(3.61031 6.75832)" gradientUnits="userSpaceOnUse">
      <stop stop-color="#E5E3EF"/>
      <stop offset="1" stop-color="#E5E3EF" stop-opacity="0"/>
    </radialGradient>
    <radialGradient id="i" cx="0" cy="0" r="1" gradientTransform="matrix(1.2539 10.20778 -11.68974 1.43594 24.447 27.413)" gradientUnits="userSpaceOnUse">
      <stop offset=".596" stop-color="#DACEF3"/>
      <stop offset=".754" stop-color="#CCB9EB"/>
      <stop offset=".962" stop-color="#BCA7DC"/>
    </radialGradient>
    <radialGradient id="j" cx="0" cy="0" r="1" gradientTransform="rotate(142.239 11.23 15.372) scale(18.642 17.7929)" gradientUnits="userSpaceOnUse">
      <stop offset=".477" stop-color="#DACEF3" stop-opacity="0"/>
      <stop offset=".694" stop-color="#E9E2FD"/>
      <stop offset=".816" stop-color="#EBE8FB"/>
      <stop offset=".962" stop-color="#EAE7F9"/>
    </radialGradient>
    <radialGradient id="k" cx="0" cy="0" r="1" gradientTransform="matrix(9.96614 14.85861 -17.01589 11.4131 21.306 21.433)" gradientUnits="userSpaceOnUse">
      <stop offset=".537" stop-color="#DACEF3" stop-opacity="0"/>
      <stop offset=".754" stop-color="#B9B5CA"/>
      <stop offset=".962" stop-color="#B2AEC4"/>
    </radialGradient>
    <radialGradient id="n" cx="0" cy="0" r="1" gradientTransform="matrix(3.9375 1.3125 -.67555 2.02665 35.531 26.927)" gradientUnits="userSpaceOnUse">
      <stop stop-color="#9B89B3"/>
      <stop offset="1" stop-color="#A28EBB" stop-opacity="0"/>
    </radialGradient>
    <radialGradient id="o" cx="0" cy="0" r="1" gradientTransform="rotate(47.386 .673 46.499) scale(2.12316 8.3205)" gradientUnits="userSpaceOnUse">
      <stop stop-color="#94929A"/>
      <stop offset=".799" stop-color="#A29EAB" stop-opacity="0"/>
    </radialGradient>
    <radialGradient id="p" cx="0" cy="0" r="1" gradientTransform="rotate(136.219 16.07 15.38) scale(1.0388 1.62421)" gradientUnits="userSpaceOnUse">
      <stop stop-color="#D7D2E0"/>
      <stop offset="1" stop-color="#E1DEE8" stop-opacity="0"/>
    </radialGradient>
    <radialGradient id="t" cx="0" cy="0" r="1" gradientTransform="matrix(0 2.22656 -6.54842 0 37.669 38.95)" gradientUnits="userSpaceOnUse">
      <stop stop-color="#8B72A8"/>
      <stop offset=".733" stop-color="#AE9AC8" stop-opacity="0"/>
    </radialGradient>
    <radialGradient id="w" cx="0" cy="0" r="1" gradientTransform="rotate(41.424 -12.979 23.47) scale(.70849 .86541)" gradientUnits="userSpaceOnUse">
      <stop stop-color="#C9C7D0"/>
      <stop offset="1" stop-color="#CDCAD5" stop-opacity="0"/>
    </radialGradient>
    <radialGradient id="x" cx="0" cy="0" r="1" gradientTransform="matrix(.59375 .48437 -.59166 .72526 14.78 14.286)" gradientUnits="userSpaceOnUse">
      <stop stop-color="#C9C7D0"/>
      <stop offset="1" stop-color="#CDCAD5" stop-opacity="0"/>
    </radialGradient>
    <radialGradient id="y" cx="0" cy="0" r="1" gradientTransform="matrix(.45312 .51563 -.62984 .55348 17.39 14.271)" gradientUnits="userSpaceOnUse">
      <stop stop-color="#C9C7D0"/>
      <stop offset="1" stop-color="#CDCAD5" stop-opacity="0"/>
    </radialGradient>
    <radialGradient id="z" cx="0" cy="0" r="1" gradientTransform="matrix(0 1.25781 -4.10938 0 14.422 38.95)" gradientUnits="userSpaceOnUse">
      <stop stop-color="#8F78AB"/>
      <stop offset="1" stop-color="#9883B3" stop-opacity="0"/>
    </radialGradient>
    <radialGradient id="C" cx="0" cy="0" r="1" gradientTransform="matrix(0 1.25 -9.42188 0 14.453 38.958)" gradientUnits="userSpaceOnUse">
      <stop stop-color="#8F78AB"/>
      <stop offset="1" stop-color="#A493BC" stop-opacity="0"/>
    </radialGradient>
    <filter id="a" width="47.5" height="47.5" x="2.25" y="2.25" color-interpolation-filters="sRGB" filterUnits="userSpaceOnUse">
      <feFlood flood-opacity="0" result="BackgroundImageFix"/>
      <feBlend in="SourceGraphic" in2="BackgroundImageFix" result="shape"/>
      <feColorMatrix in="SourceAlpha" result="hardAlpha" values="0 0 0 0 0 0 0 0 0 0 0 0 0 0 0 0 0 0 127 0"/>
      <feOffset dy="-1"/>
      <feGaussianBlur stdDeviation=".5"/>
      <feComposite in2="hardAlpha" k2="-1" k3="1" operator="arithmetic"/>
      <feColorMatrix values="0 0 0 0 0.403922 0 0 0 0 0.176471 0 0 0 0 0.384314 0 0 0 1 0"/>
      <feBlend in2="shape" result="effect1_innerShadow_12_8111"/>
      <feColorMatrix in="SourceAlpha" result="hardAlpha" values="0 0 0 0 0 0 0 0 0 0 0 0 0 0 0 0 0 0 127 0"/>
      <feOffset dx="-1"/>
      <feGaussianBlur stdDeviation=".5"/>
      <feComposite in2="hardAlpha" k2="-1" k3="1" operator="arithmetic"/>
      <feColorMatrix values="0 0 0 0 0.635294 0 0 0 0 0.454902 0 0 0 0 0.427451 0 0 0 1 0"/>
      <feBlend in2="effect1_innerShadow_12_8111" result="effect2_innerShadow_12_8111"/>
      <feColorMatrix in="SourceAlpha" result="hardAlpha" values="0 0 0 0 0 0 0 0 0 0 0 0 0 0 0 0 0 0 127 0"/>
      <feOffset dx="1"/>
      <feGaussianBlur stdDeviation=".5"/>
      <feComposite in2="hardAlpha" k2="-1" k3="1" operator="arithmetic"/>
      <feColorMatrix values="0 0 0 0 0.341176 0 0 0 0 0.207843 0 0 0 0 0.227451 0 0 0 1 0"/>
      <feBlend in2="effect2_innerShadow_12_8111" result="effect3_innerShadow_12_8111"/>
      <feColorMatrix in="SourceAlpha" result="hardAlpha" values="0 0 0 0 0 0 0 0 0 0 0 0 0 0 0 0 0 0 127 0"/>
      <feOffset dy="1"/>
      <feGaussianBlur stdDeviation=".5"/>
      <feComposite in2="hardAlpha" k2="-1" k3="1" operator="arithmetic"/>
      <feColorMatrix values="0 0 0 0 0.584314 0 0 0 0 0.392157 0 0 0 0 0.333333 0 0 0 1 0"/>
      <feBlend in2="effect3_innerShadow_12_8111" result="effect4_innerShadow_12_8111"/>
    </filter>
    <filter id="e" width="22.34" height="22.34" x="14.556" y="14.773" color-interpolation-filters="sRGB" filterUnits="userSpaceOnUse">
      <feFlood flood-opacity="0" result="BackgroundImageFix"/>
      <feBlend in="SourceGraphic" in2="BackgroundImageFix" result="shape"/>
      <feGaussianBlur result="effect1_foregroundBlur_12_8111" stdDeviation=".25"/>
    </filter>
    <filter id="g" width="9.864" height="5.004" x="24.455" y="14.924" color-interpolation-filters="sRGB" filterUnits="userSpaceOnUse">
      <feFlood flood-opacity="0" result="BackgroundImageFix"/>
      <feBlend in="SourceGraphic" in2="BackgroundImageFix" result="shape"/>
      <feGaussianBlur result="effect1_foregroundBlur_12_8111" stdDeviation=".15"/>
    </filter>
    <filter id="l" width="6.348" height="11.032" x="32.558" y="18.489" color-interpolation-filters="sRGB" filterUnits="userSpaceOnUse">
      <feFlood flood-opacity="0" result="BackgroundImageFix"/>
      <feBlend in="SourceGraphic" in2="BackgroundImageFix" result="shape"/>
      <feGaussianBlur result="effect1_foregroundBlur_12_8111" stdDeviation=".5"/>
    </filter>
    <filter id="q" width="4.339" height="12.368" x="34.341" y="14.47" color-interpolation-filters="sRGB" filterUnits="userSpaceOnUse">
      <feFlood flood-opacity="0" result="BackgroundImageFix"/>
      <feBlend in="SourceGraphic" in2="BackgroundImageFix" result="shape"/>
      <feGaussianBlur result="effect1_foregroundBlur_12_8111" stdDeviation=".25"/>
    </filter>
    <filter id="A" width="7.5" height="25.661" x="10.703" y="13.766" color-interpolation-filters="sRGB" filterUnits="userSpaceOnUse">
      <feFlood flood-opacity="0" result="BackgroundImageFix"/>
      <feBlend in="SourceGraphic" in2="BackgroundImageFix" result="shape"/>
      <feGaussianBlur result="effect1_foregroundBlur_12_8111" stdDeviation=".375"/>
    </filter>
    <filter id="D" width="1.5" height="14.531" x="14.406" y="23.802" color-interpolation-filters="sRGB" filterUnits="userSpaceOnUse">
      <feFlood flood-opacity="0" result="BackgroundImageFix"/>
      <feBlend in="SourceGraphic" in2="BackgroundImageFix" result="shape"/>
      <feGaussianBlur result="effect1_foregroundBlur_12_8111" stdDeviation=".25"/>
    </filter>
    <filter id="E" width="1.783" height="4.903" x="11.69" y="14.442" color-interpolation-filters="sRGB" filterUnits="userSpaceOnUse">
      <feFlood flood-opacity="0" result="BackgroundImageFix"/>
      <feBlend in="SourceGraphic" in2="BackgroundImageFix" result="shape"/>
      <feGaussianBlur result="effect1_foregroundBlur_12_8111" stdDeviation=".125"/>
    </filter>
    <filter id="G" width="1.783" height="4.903" x="14.253" y="14.442" color-interpolation-filters="sRGB" filterUnits="userSpaceOnUse">
      <feFlood flood-opacity="0" result="BackgroundImageFix"/>
      <feBlend in="SourceGraphic" in2="BackgroundImageFix" result="shape"/>
      <feGaussianBlur result="effect1_foregroundBlur_12_8111" stdDeviation=".125"/>
    </filter>
    <filter id="I" width="2.885" height="9.588" x="15.159" y="14.133" color-interpolation-filters="sRGB" filterUnits="userSpaceOnUse">
      <feFlood flood-opacity="0" result="BackgroundImageFix"/>
      <feBlend in="SourceGraphic" in2="BackgroundImageFix" result="shape"/>
      <feGaussianBlur result="effect1_foregroundBlur_12_8111" stdDeviation=".25"/>
    </filter>
    <filter id="J" width="1.516" height="1.516" x="11.305" y="13.954" color-interpolation-filters="sRGB" filterUnits="userSpaceOnUse">
      <feFlood flood-opacity="0" result="BackgroundImageFix"/>
      <feBlend in="SourceGraphic" in2="BackgroundImageFix" result="shape"/>
      <feGaussianBlur result="effect1_foregroundBlur_12_8111" stdDeviation=".25"/>
    </filter>
    <filter id="K" width="1.516" height="1.516" x="13.922" y="13.954" color-interpolation-filters="sRGB" filterUnits="userSpaceOnUse">
      <feFlood flood-opacity="0" result="BackgroundImageFix"/>
      <feBlend in="SourceGraphic" in2="BackgroundImageFix" result="shape"/>
      <feGaussianBlur result="effect1_foregroundBlur_12_8111" stdDeviation=".25"/>
    </filter>
    <filter id="L" width="1.516" height="1.516" x="16.437" y="13.954" color-interpolation-filters="sRGB" filterUnits="userSpaceOnUse">
      <feFlood flood-opacity="0" result="BackgroundImageFix"/>
      <feBlend in="SourceGraphic" in2="BackgroundImageFix" result="shape"/>
      <feGaussianBlur result="effect1_foregroundBlur_12_8111" stdDeviation=".25"/>
    </filter>
    <linearGradient id="b" x1="26" x2="26" y1="3.25" y2="48.75" gradientUnits="userSpaceOnUse">
      <stop stop-color="#925E5D"/>
      <stop offset="1" stop-color="#6F4553"/>
    </linearGradient>
    <linearGradient id="c" x1="24.447" x2="25.701" y1="14.97" y2="36.966" gradientUnits="userSpaceOnUse">
      <stop offset=".115" stop-color="#BCBBC4"/>
      <stop offset=".228" stop-color="#8F8D9B"/>
      <stop offset=".689" stop-color="#A8A0BC"/>
      <stop offset=".766" stop-color="#BFA1E2"/>
    </linearGradient>
    <linearGradient id="m" x1="38.99" x2="34.031" y1="21.021" y2="21.021" gradientUnits="userSpaceOnUse">
      <stop stop-color="#C4C2CB"/>
      <stop offset=".036" stop-color="#CFC9D9"/>
      <stop offset=".515" stop-color="#B9B1C7"/>
      <stop offset="1" stop-color="#A398B4"/>
    </linearGradient>
    <linearGradient id="r" x1="36.511" x2="36.511" y1="14.97" y2="26.337" gradientUnits="userSpaceOnUse">
      <stop stop-color="#C1B6D0"/>
      <stop offset=".818" stop-color="#B4A9C5"/>
    </linearGradient>
    <linearGradient id="s" x1="36.348" x2="38.99" y1="33.646" y2="33.646" gradientUnits="userSpaceOnUse">
      <stop stop-color="#7E748E"/>
      <stop offset=".359" stop-color="#A69BB8"/>
      <stop offset=".734" stop-color="#CBC4D9"/>
      <stop offset="1" stop-color="#C4C1CC"/>
    </linearGradient>
    <linearGradient id="u" x1="37.669" x2="37.669" y1="27.224" y2="27.427" gradientUnits="userSpaceOnUse">
      <stop stop-color="#8E80A3"/>
      <stop offset="1" stop-color="#8D80A2" stop-opacity="0"/>
    </linearGradient>
    <linearGradient id="v" x1="11" x2="19.75" y1="16.958" y2="18.896" gradientUnits="userSpaceOnUse">
      <stop stop-color="#8B8893"/>
      <stop offset=".59" stop-color="#938DA0"/>
      <stop offset=".839" stop-color="#AFA3C1"/>
      <stop offset="1" stop-color="#ACA0C0"/>
    </linearGradient>
    <linearGradient id="B" x1="13.438" x2="14.453" y1="15.021" y2="38.677" gradientUnits="userSpaceOnUse">
      <stop offset=".143" stop-color="#B4AAC2"/>
      <stop offset="1" stop-color="#B5A9C8"/>
    </linearGradient>
    <linearGradient id="F" x1="12.344" x2="13.938" y1="15.177" y2="19.552" gradientUnits="userSpaceOnUse">
      <stop offset=".412" stop-color="#C0B9CC"/>
      <stop offset="1" stop-color="#C0B9CC" stop-opacity="0"/>
    </linearGradient>
    <linearGradient id="H" x1="14.906" x2="16.5" y1="15.177" y2="19.552" gradientUnits="userSpaceOnUse">
      <stop offset=".412" stop-color="#C0B9CC"/>
      <stop offset="1" stop-color="#C0B9CC" stop-opacity="0"/>
    </linearGradient>
  </defs>
</svg>