  <svg xmlns="http://www.w3.org/2000/svg" width="2200" height="2200" fill="none" viewBox="0 0 32 32">
  <g filter="url(#a)">
    <path fill="url(#b)" d="M25.85 2.695c.077-.074.195-.095.277-.027.173.142.342.393.342.792v22.543a4.25 4.25 0 0 1-4.25 4.25H7.437v-.828h-.89V3.258a.927.927 0 0 1 .376-.628c.08-.057.188-.036.26.032l.932.873a.4.4 0 0 0 .553-.006L9.71 2.512a.413.413 0 0 1 .571-.007l1.1 1.03a.4.4 0 0 0 .553-.006l1.042-1.017a.413.413 0 0 1 .571-.007l1.1 1.03a.4.4 0 0 0 .552-.006l1.043-1.017a.413.413 0 0 1 .57-.007l1.1 1.03a.4.4 0 0 0 .553-.006l1.042-1.017a.413.413 0 0 1 .571-.007l1.1 1.03a.4.4 0 0 0 .553-.006l1.042-1.017a.413.413 0 0 1 .571-.007l1.1 1.03a.4.4 0 0 0 .552-.006l.854-.834Z"/>
    <path fill="url(#c)" d="M25.85 2.695c.077-.074.195-.095.277-.027.173.142.342.393.342.792v22.543a4.25 4.25 0 0 1-4.25 4.25H7.437v-.828h-.89V3.258a.927.927 0 0 1 .376-.628c.08-.057.188-.036.26.032l.932.873a.4.4 0 0 0 .553-.006L9.71 2.512a.413.413 0 0 1 .571-.007l1.1 1.03a.4.4 0 0 0 .553-.006l1.042-1.017a.413.413 0 0 1 .571-.007l1.1 1.03a.4.4 0 0 0 .552-.006l1.043-1.017a.413.413 0 0 1 .57-.007l1.1 1.03a.4.4 0 0 0 .553-.006l1.042-1.017a.413.413 0 0 1 .571-.007l1.1 1.03a.4.4 0 0 0 .553-.006l1.042-1.017a.413.413 0 0 1 .571-.007l1.1 1.03a.4.4 0 0 0 .552-.006l.854-.834Z"/>
  </g>
  <g filter="url(#d)">
    <path fill="url(#e)" d="M18.638 26.285a1 1 0 0 0-1-1H4.541a.994.994 0 0 0-.994.993 3.975 3.975 0 0 0 3.975 3.975h14.15c-2.396-.212-3.01-2.548-3.034-3.88v-.088Z"/>
    <path fill="url(#f)" d="M18.638 26.285a1 1 0 0 0-1-1H4.541a.994.994 0 0 0-.994.993 3.975 3.975 0 0 0 3.975 3.975h14.15c-2.396-.212-3.01-2.548-3.034-3.88v-.088Z"/>
  </g>
  <path fill="#97939D" d="M22.523 6.363H10.524a.977.977 0 1 0 0 1.953h11.999a.977.977 0 1 0 0-1.953Zm-4.554 3.968h-7.906a.516.516 0 1 0 0 1.031h7.906a.516.516 0 1 0 0-1.031Zm0 2.969h-7.906a.516.516 0 1 0 0 1.031h7.906a.516.516 0 1 0 0-1.031Zm0 3.024h-7.906a.516.516 0 1 0 0 1.031h7.906a.516.516 0 1 0 0-1.031Zm0 3.023h-7.906a.516.516 0 1 0 0 1.031h7.906a.516.516 0 1 0 0-1.031Z"/>
  <path fill="#97929F" d="M17.969 22.37h-7.906a.516.516 0 1 0 0 1.031h7.906a.516.516 0 1 0 0-1.031Z"/>
  <path fill="#97939D" d="M22.984 13.3h-2.952a.516.516 0 1 0 0 1.031h2.952a.516.516 0 1 0 0-1.031Zm0-2.969h-2.952a.516.516 0 1 0 0 1.031h2.952a.516.516 0 1 0 0-1.031Zm0 5.993h-2.952a.516.516 0 1 0 0 1.031h2.952a.516.516 0 1 0 0-1.031Zm0 3.023h-2.952a.516.516 0 1 0 0 1.031h2.952a.516.516 0 1 0 0-1.031Z"/>
  <path fill="#9893A0" d="M22.984 22.37h-2.952a.516.516 0 1 0 0 1.031h2.952a.516.516 0 1 0 0-1.031Z"/>
  <defs>
    <linearGradient id="b" x1="8.5" x2="26.469" y1="17.003" y2="17.003" gradientUnits="userSpaceOnUse">
      <stop stop-color="#DFD8E8"/>
      <stop offset="1" stop-color="#E0DBEA"/>
    </linearGradient>
    <linearGradient id="e" x1="12.609" x2="12.609" y1="25.285" y2="30.253" gradientUnits="userSpaceOnUse">
      <stop stop-color="#DCD4E8"/>
      <stop offset="1" stop-color="#C9BADD"/>
    </linearGradient>
    <linearGradient id="f" x1="15.25" x2="15.25" y1="30.253" y2="27.769" gradientUnits="userSpaceOnUse">
      <stop stop-color="#A58BC5"/>
      <stop offset="1" stop-color="#C7B7DD" stop-opacity="0"/>
    </linearGradient>
    <filter id="a" width="20.222" height="28.009" x="6.397" y="2.244" color-interpolation-filters="sRGB" filterUnits="userSpaceOnUse">
      <feFlood flood-opacity="0" result="BackgroundImageFix"/>
      <feBlend in="SourceGraphic" in2="BackgroundImageFix" result="shape"/>
      <feColorMatrix in="SourceAlpha" result="hardAlpha" values="0 0 0 0 0 0 0 0 0 0 0 0 0 0 0 0 0 0 127 0"/>
      <feOffset dx="-.15" dy="-.15"/>
      <feGaussianBlur stdDeviation=".175"/>
      <feComposite in2="hardAlpha" k2="-1" k3="1" operator="arithmetic"/>
      <feColorMatrix values="0 0 0 0 1 0 0 0 0 1 0 0 0 0 1 0 0 0 1 0"/>
      <feBlend in2="shape" result="effect1_innerShadow_72_2"/>
      <feColorMatrix in="SourceAlpha" result="hardAlpha" values="0 0 0 0 0 0 0 0 0 0 0 0 0 0 0 0 0 0 127 0"/>
      <feOffset dx="-.15"/>
      <feGaussianBlur stdDeviation=".125"/>
      <feComposite in2="hardAlpha" k2="-1" k3="1" operator="arithmetic"/>
      <feColorMatrix values="0 0 0 0 1 0 0 0 0 1 0 0 0 0 1 0 0 0 1 0"/>
      <feBlend in2="effect1_innerShadow_72_2" result="effect2_innerShadow_72_2"/>
      <feColorMatrix in="SourceAlpha" result="hardAlpha" values="0 0 0 0 0 0 0 0 0 0 0 0 0 0 0 0 0 0 127 0"/>
      <feOffset dx=".15"/>
      <feGaussianBlur stdDeviation=".175"/>
      <feComposite in2="hardAlpha" k2="-1" k3="1" operator="arithmetic"/>
      <feColorMatrix values="0 0 0 0 0.733333 0 0 0 0 0.713726 0 0 0 0 0.764706 0 0 0 1 0"/>
      <feBlend in2="effect2_innerShadow_72_2" result="effect3_innerShadow_72_2"/>
    </filter>
    <filter id="d" width="18.375" height="4.968" x="3.397" y="25.285" color-interpolation-filters="sRGB" filterUnits="userSpaceOnUse">
      <feFlood flood-opacity="0" result="BackgroundImageFix"/>
      <feBlend in="SourceGraphic" in2="BackgroundImageFix" result="shape"/>
      <feColorMatrix in="SourceAlpha" result="hardAlpha" values="0 0 0 0 0 0 0 0 0 0 0 0 0 0 0 0 0 0 127 0"/>
      <feOffset dx="-.15"/>
      <feGaussianBlur stdDeviation=".125"/>
      <feComposite in2="hardAlpha" k2="-1" k3="1" operator="arithmetic"/>
      <feColorMatrix values="0 0 0 0 1 0 0 0 0 1 0 0 0 0 1 0 0 0 1 0"/>
      <feBlend in2="shape" result="effect1_innerShadow_72_2"/>
      <feColorMatrix in="SourceAlpha" result="hardAlpha" values="0 0 0 0 0 0 0 0 0 0 0 0 0 0 0 0 0 0 127 0"/>
      <feOffset dx=".1"/>
      <feGaussianBlur stdDeviation=".2"/>
      <feComposite in2="hardAlpha" k2="-1" k3="1" operator="arithmetic"/>
      <feColorMatrix values="0 0 0 0 0.666667 0 0 0 0 0.6 0 0 0 0 0.74902 0 0 0 1 0"/>
      <feBlend in2="effect1_innerShadow_72_2" result="effect2_innerShadow_72_2"/>
    </filter>
    <radialGradient id="c" cx="0" cy="0" r="1" gradientTransform="matrix(3.5 -6.0625 9.50597 5.48798 18.938 31.69)" gradientUnits="userSpaceOnUse">
      <stop stop-color="#F9F3FE"/>
      <stop offset="1" stop-color="#F9F3FE" stop-opacity="0"/>
    </radialGradient>
  </defs>
</svg>
