<svg xmlns="http://www.w3.org/2000/svg" width="2200" height="2200" fill="none" viewBox="0 0 2200 2200">
  <g filter="url(#a)">
    <path fill="url(#b)" d="M1777.19 185.281c5.29-5.087 13.4-6.531 19.04-1.856 11.9 9.762 23.51 27.019 23.51 54.45V1787.71c0 77.49-30.78 151.81-85.58 206.6a292.13 292.13 0 0 1-94.79 63.34 292.234 292.234 0 0 1-111.81 22.24H511.293v-56.92h-61.188V223.987a63.734 63.734 0 0 1 25.85-43.174c5.5-3.919 12.925-2.476 17.875 2.199l64.075 60.019a27.5 27.5 0 0 0 38.019-.412l71.638-69.919a28.39 28.39 0 0 1 39.256-.481l75.625 70.812a27.498 27.498 0 0 0 38.019-.412l71.637-69.919a28.39 28.39 0 0 1 39.256-.481l75.625 70.812a27.5 27.5 0 0 0 37.95-.412l71.71-69.919a28.396 28.396 0 0 1 39.19-.481l75.62 70.812a27.495 27.495 0 0 0 19.09 7.423 27.54 27.54 0 0 0 18.93-7.835l71.64-69.919a28.374 28.374 0 0 1 19.53-8.118 28.376 28.376 0 0 1 19.72 7.637l75.63 70.812a27.495 27.495 0 0 0 19.09 7.423 27.54 27.54 0 0 0 18.93-7.835l71.63-69.919a28.402 28.402 0 0 1 39.26-.481l75.63 70.812a27.48 27.48 0 0 0 19.05 7.39 27.534 27.534 0 0 0 18.9-7.802l58.71-57.338Z"/>
    <path fill="url(#c)" d="M1777.19 185.281c5.29-5.087 13.4-6.531 19.04-1.856 11.9 9.762 23.51 27.019 23.51 54.45V1787.71c0 77.49-30.78 151.81-85.58 206.6a292.13 292.13 0 0 1-94.79 63.34 292.234 292.234 0 0 1-111.81 22.24H511.293v-56.92h-61.188V223.987a63.734 63.734 0 0 1 25.85-43.174c5.5-3.919 12.925-2.476 17.875 2.199l64.075 60.019a27.5 27.5 0 0 0 38.019-.412l71.638-69.919a28.39 28.39 0 0 1 39.256-.481l75.625 70.812a27.498 27.498 0 0 0 38.019-.412l71.637-69.919a28.39 28.39 0 0 1 39.256-.481l75.625 70.812a27.5 27.5 0 0 0 37.95-.412l71.71-69.919a28.396 28.396 0 0 1 39.19-.481l75.62 70.812a27.495 27.495 0 0 0 19.09 7.423 27.54 27.54 0 0 0 18.93-7.835l71.64-69.919a28.374 28.374 0 0 1 19.53-8.118 28.376 28.376 0 0 1 19.72 7.637l75.63 70.812a27.495 27.495 0 0 0 19.09 7.423 27.54 27.54 0 0 0 18.93-7.835l71.63-69.919a28.402 28.402 0 0 1 39.26-.481l75.63 70.812a27.48 27.48 0 0 0 19.05 7.39 27.534 27.534 0 0 0 18.9-7.802l58.71-57.338Z"/>
  </g>
  <g filter="url(#d)">
    <path fill="url(#e)" d="M1281.36 1807.09a68.75 68.75 0 0 0-20.13-48.61 68.782 68.782 0 0 0-48.62-20.14H312.193a68.3 68.3 0 0 0-48.298 20 68.338 68.338 0 0 0-20.04 48.27 273.279 273.279 0 0 0 80.043 193.24 273.142 273.142 0 0 0 88.659 59.24 273.162 273.162 0 0 0 104.58 20.8h972.813c-164.72-14.57-206.94-175.17-208.59-266.75v-6.05Z"/>
    <path fill="url(#f)" d="M1281.36 1807.09a68.75 68.75 0 0 0-20.13-48.61 68.782 68.782 0 0 0-48.62-20.14H312.193a68.3 68.3 0 0 0-48.298 20 68.338 68.338 0 0 0-20.04 48.27 273.279 273.279 0 0 0 80.043 193.24 273.142 273.142 0 0 0 88.659 59.24 273.162 273.162 0 0 0 104.58 20.8h972.813c-164.72-14.57-206.94-175.17-208.59-266.75v-6.05Z"/>
  </g>
  <path fill="#97939D" d="M1548.46 437.456H723.525a67.17 67.17 0 1 0 0 134.269h824.935a67.122 67.122 0 0 0 26.35-4.48 67.009 67.009 0 0 0 22.52-14.405 67.075 67.075 0 0 0 15.12-22.049 67.193 67.193 0 0 0 5.32-26.2c0-9.001-1.81-17.911-5.32-26.2a67.069 67.069 0 0 0-15.12-22.05 67.009 67.009 0 0 0-22.52-14.405 67.14 67.14 0 0 0-26.35-4.48Zm-313.09 272.8H691.832a35.47 35.47 0 0 0-34.186 21.505 35.47 35.47 0 0 0 0 27.872 35.473 35.473 0 0 0 20.138 19.269 35.491 35.491 0 0 0 14.048 2.236h543.538a35.478 35.478 0 0 0 26.09-9.809 35.444 35.444 0 0 0 8.09-11.697 35.323 35.323 0 0 0 2.86-13.935c0-4.79-.97-9.531-2.86-13.936a35.43 35.43 0 0 0-13.73-16.096 35.44 35.44 0 0 0-20.45-5.409Zm0 204.119H691.832a35.47 35.47 0 0 0-34.186 21.505 35.47 35.47 0 0 0 0 27.872 35.48 35.48 0 0 0 34.186 21.504h543.538a35.478 35.478 0 0 0 26.09-9.808 35.444 35.444 0 0 0 8.09-11.697 35.323 35.323 0 0 0 2.86-13.935c0-4.79-.97-9.531-2.86-13.936a35.43 35.43 0 0 0-13.73-16.096 35.44 35.44 0 0 0-20.45-5.409Zm0 207.895H691.832c-4.786-.21-9.564.55-14.048 2.24a35.578 35.578 0 0 0-12.04 7.57 35.51 35.51 0 0 0-10.949 25.64c0 4.79.97 9.53 2.852 13.93a35.444 35.444 0 0 0 8.097 11.7 35.578 35.578 0 0 0 12.04 7.57 35.42 35.42 0 0 0 14.048 2.24h543.538c4.78.21 9.56-.55 14.05-2.24 4.48-1.69 8.58-4.26 12.04-7.57 3.46-3.32 6.21-7.29 8.09-11.7 1.89-4.4 2.86-9.14 2.86-13.94 0-4.79-.97-9.53-2.86-13.93a35.394 35.394 0 0 0-8.09-11.7 35.578 35.578 0 0 0-12.04-7.57 35.41 35.41 0 0 0-14.05-2.24Zm0 207.84H691.832c-4.786-.21-9.564.55-14.048 2.23a35.52 35.52 0 0 0-20.137 19.27 35.51 35.51 0 0 0-2.852 13.94c0 4.79.97 9.53 2.852 13.93a35.37 35.37 0 0 0 8.097 11.7 35.386 35.386 0 0 0 12.04 7.57 35.42 35.42 0 0 0 14.048 2.24h543.538c4.78.21 9.56-.55 14.05-2.24a35.394 35.394 0 0 0 20.13-19.27c1.89-4.4 2.86-9.14 2.86-13.93 0-4.8-.97-9.54-2.86-13.94-1.88-4.4-4.63-8.38-8.09-11.69a35.604 35.604 0 0 0-12.04-7.58 35.61 35.61 0 0 0-14.05-2.23Z"/>
  <path fill="#97929F" d="M1235.37 1537.94H691.831c-4.785-.21-9.562.55-14.047 2.23a35.595 35.595 0 0 0-12.04 7.58 35.506 35.506 0 0 0-8.097 11.69 35.51 35.51 0 0 0-2.852 13.94c0 4.79.97 9.53 2.852 13.93a35.37 35.37 0 0 0 8.097 11.7 35.386 35.386 0 0 0 12.04 7.57 35.415 35.415 0 0 0 14.047 2.24h543.539c4.78.21 9.56-.55 14.05-2.24a35.394 35.394 0 0 0 20.13-19.27c1.89-4.4 2.86-9.14 2.86-13.94 0-4.79-.97-9.53-2.86-13.93-1.88-4.4-4.63-8.38-8.09-11.69a35.604 35.604 0 0 0-12.04-7.58 35.61 35.61 0 0 0-14.05-2.23Z"/>
  <path fill="#97939D" d="M1580.15 914.375H1377.2c-4.79-.21-9.56.55-14.05 2.236a35.512 35.512 0 0 0-12.04 7.574 35.446 35.446 0 0 0-8.09 11.695 35.328 35.328 0 0 0-2.86 13.936c0 4.79.97 9.53 2.86 13.935a35.444 35.444 0 0 0 8.09 11.697 35.478 35.478 0 0 0 26.09 9.808h202.95a35.488 35.488 0 0 0 26.09-9.808 35.444 35.444 0 0 0 8.09-11.697 35.323 35.323 0 0 0 2.86-13.935c0-4.79-.97-9.531-2.86-13.936a35.43 35.43 0 0 0-13.73-16.096 35.44 35.44 0 0 0-20.45-5.409Zm0-204.119H1377.2c-4.79-.21-9.56.55-14.05 2.236a35.512 35.512 0 0 0-12.04 7.574 35.446 35.446 0 0 0-8.09 11.695 35.328 35.328 0 0 0-2.86 13.936c0 4.79.97 9.531 2.86 13.936a35.446 35.446 0 0 0 8.09 11.695 35.478 35.478 0 0 0 26.09 9.81h202.95c4.79.21 9.56-.55 14.05-2.236a35.527 35.527 0 0 0 12.04-7.574 35.446 35.446 0 0 0 8.09-11.695 35.328 35.328 0 0 0 2.86-13.936c0-4.79-.97-9.531-2.86-13.936a35.43 35.43 0 0 0-13.73-16.096 35.44 35.44 0 0 0-20.45-5.409Zm0 412.014H1377.2c-4.79-.21-9.56.55-14.05 2.24a35.578 35.578 0 0 0-12.04 7.57 35.6 35.6 0 0 0-8.09 11.7c-1.89 4.4-2.86 9.14-2.86 13.93 0 4.8.97 9.54 2.86 13.94 1.88 4.41 4.63 8.38 8.09 11.7 3.46 3.31 7.56 5.88 12.04 7.57 4.49 1.69 9.26 2.45 14.05 2.24h202.95c4.79.21 9.56-.55 14.05-2.24 4.48-1.69 8.58-4.26 12.04-7.57 3.46-3.32 6.21-7.29 8.09-11.7 1.89-4.4 2.86-9.14 2.86-13.94 0-4.79-.97-9.53-2.86-13.93a35.6 35.6 0 0 0-8.09-11.7 35.578 35.578 0 0 0-12.04-7.57 35.41 35.41 0 0 0-14.05-2.24Zm0 207.84H1377.2c-4.79-.21-9.56.55-14.05 2.23a35.604 35.604 0 0 0-12.04 7.58 35.457 35.457 0 0 0-8.09 11.69c-1.89 4.4-2.86 9.14-2.86 13.94 0 4.79.97 9.53 2.86 13.93a35.394 35.394 0 0 0 20.13 19.27c4.49 1.69 9.26 2.45 14.05 2.24h202.95c4.79.21 9.56-.55 14.05-2.24a35.394 35.394 0 0 0 20.13-19.27c1.89-4.4 2.86-9.14 2.86-13.93 0-4.8-.97-9.54-2.86-13.94-1.88-4.4-4.63-8.38-8.09-11.69a35.604 35.604 0 0 0-12.04-7.58 35.61 35.61 0 0 0-14.05-2.23Z"/>
  <path fill="#9893A0" d="M1580.15 1537.94H1377.2c-4.79-.21-9.56.55-14.05 2.23a35.604 35.604 0 0 0-12.04 7.58 35.457 35.457 0 0 0-8.09 11.69c-1.89 4.4-2.86 9.14-2.86 13.93 0 4.8.97 9.54 2.86 13.94a35.394 35.394 0 0 0 20.13 19.27c4.49 1.69 9.26 2.45 14.05 2.24h202.95c4.79.21 9.56-.55 14.05-2.24a35.394 35.394 0 0 0 20.13-19.27c1.89-4.4 2.86-9.14 2.86-13.94 0-4.79-.97-9.53-2.86-13.93-1.88-4.4-4.63-8.38-8.09-11.69a35.604 35.604 0 0 0-12.04-7.58 35.61 35.61 0 0 0-14.05-2.23Z"/>
  <path fill="#FFF740" d="M1585.5 2149c193.06 0 349.56-159.83 349.56-357s-156.5-357-349.56-357-349.56 159.83-349.56 357 156.5 357 349.56 357Z"/>
  <path fill="#000" fill-rule="evenodd" d="M1398.49 1946.21a27.124 27.124 0 0 0-7.93 19.15c0 7.18 2.86 14.07 7.93 19.15 105.76 105.76 277.26 105.76 383.02 0 105.76-105.76 105.76-277.26 0-383.02-105.76-105.76-277.26-105.76-383.02 0a269.89 269.89 0 0 0-78 164.43h-28.41c-5.35 0-10.59 1.59-15.04 4.56a27.127 27.127 0 0 0-9.97 12.16 27.01 27.01 0 0 0-1.54 15.64 27.019 27.019 0 0 0 7.41 13.87l54.16 54.16.06.06c2.51 2.51 5.5 4.51 8.78 5.86 3.29 1.36 6.81 2.06 10.37 2.05 3.55-.01 7.07-.72 10.35-2.09 3.28-1.37 6.26-3.38 8.77-5.9l54.16-54.14c3.79-3.79 6.37-8.62 7.41-13.87 1.05-5.26.51-10.71-1.55-15.66a27.058 27.058 0 0 0-25.03-16.7h-25.41a216.7 216.7 0 0 1 63.54-127.87 216.68 216.68 0 0 1 129.3-60.57c48.71-5 97.67 6.64 138.91 33.04a216.652 216.652 0 0 1 88.2 112.29 216.696 216.696 0 0 1-.83 142.78 216.649 216.649 0 0 1-89.49 111.26 216.66 216.66 0 0 1-139.29 31.43 216.737 216.737 0 0 1-128.59-62.07 27.085 27.085 0 0 0-19.13-7.92c-7.18 0-14.06 2.85-19.14 7.92Zm137.34-261.54c0-7.19 2.86-14.07 7.94-19.15a27.074 27.074 0 0 1 19.15-7.94 27.092 27.092 0 0 1 27.08 27.09V1793h108.33c7.19 0 14.08 2.85 19.15 7.93a27.092 27.092 0 0 1 7.94 19.15c0 7.19-2.86 14.08-7.94 19.15a27.057 27.057 0 0 1-19.15 7.94h-135.41c-7.19 0-14.07-2.86-19.15-7.94a27.057 27.057 0 0 1-7.94-19.15v-135.41Z" clip-rule="evenodd"/>
  <defs>
    <linearGradient id="b" x1="584.374" x2="1819.74" y1="1168.96" y2="1168.96" gradientUnits="userSpaceOnUse">
      <stop stop-color="#DFD8E8"/>
      <stop offset="1" stop-color="#E0DBEA"/>
    </linearGradient>
    <linearGradient id="e" x1="866.868" x2="866.868" y1="1738.34" y2="2079.89" gradientUnits="userSpaceOnUse">
      <stop stop-color="#DCD4E8"/>
      <stop offset="1" stop-color="#C9BADD"/>
    </linearGradient>
    <linearGradient id="f" x1="1048.44" x2="1048.44" y1="2079.89" y2="1909.12" gradientUnits="userSpaceOnUse">
      <stop stop-color="#A58BC5"/>
      <stop offset="1" stop-color="#C7B7DD" stop-opacity="0"/>
    </linearGradient>
    <filter id="a" width="1390.26" height="1925.62" x="439.792" y="154.265" color-interpolation-filters="sRGB" filterUnits="userSpaceOnUse">
      <feFlood flood-opacity="0" result="BackgroundImageFix"/>
      <feBlend in="SourceGraphic" in2="BackgroundImageFix" result="shape"/>
      <feColorMatrix in="SourceAlpha" result="hardAlpha" values="0 0 0 0 0 0 0 0 0 0 0 0 0 0 0 0 0 0 127 0"/>
      <feOffset dx="-10.313" dy="-10.313"/>
      <feGaussianBlur stdDeviation="12.031"/>
      <feComposite in2="hardAlpha" k2="-1" k3="1" operator="arithmetic"/>
      <feColorMatrix values="0 0 0 0 1 0 0 0 0 1 0 0 0 0 1 0 0 0 1 0"/>
      <feBlend in2="shape" result="effect1_innerShadow_98_435"/>
      <feColorMatrix in="SourceAlpha" result="hardAlpha" values="0 0 0 0 0 0 0 0 0 0 0 0 0 0 0 0 0 0 127 0"/>
      <feOffset dx="-10.313"/>
      <feGaussianBlur stdDeviation="8.594"/>
      <feComposite in2="hardAlpha" k2="-1" k3="1" operator="arithmetic"/>
      <feColorMatrix values="0 0 0 0 1 0 0 0 0 1 0 0 0 0 1 0 0 0 1 0"/>
      <feBlend in2="effect1_innerShadow_98_435" result="effect2_innerShadow_98_435"/>
      <feColorMatrix in="SourceAlpha" result="hardAlpha" values="0 0 0 0 0 0 0 0 0 0 0 0 0 0 0 0 0 0 127 0"/>
      <feOffset dx="10.313"/>
      <feGaussianBlur stdDeviation="12.031"/>
      <feComposite in2="hardAlpha" k2="-1" k3="1" operator="arithmetic"/>
      <feColorMatrix values="0 0 0 0 0.733333 0 0 0 0 0.713726 0 0 0 0 0.764706 0 0 0 1 0"/>
      <feBlend in2="effect2_innerShadow_98_435" result="effect3_innerShadow_98_435"/>
    </filter>
    <filter id="d" width="1263.28" height="341.55" x="233.542" y="1738.34" color-interpolation-filters="sRGB" filterUnits="userSpaceOnUse">
      <feFlood flood-opacity="0" result="BackgroundImageFix"/>
      <feBlend in="SourceGraphic" in2="BackgroundImageFix" result="shape"/>
      <feColorMatrix in="SourceAlpha" result="hardAlpha" values="0 0 0 0 0 0 0 0 0 0 0 0 0 0 0 0 0 0 127 0"/>
      <feOffset dx="-10.313"/>
      <feGaussianBlur stdDeviation="8.594"/>
      <feComposite in2="hardAlpha" k2="-1" k3="1" operator="arithmetic"/>
      <feColorMatrix values="0 0 0 0 1 0 0 0 0 1 0 0 0 0 1 0 0 0 1 0"/>
      <feBlend in2="shape" result="effect1_innerShadow_98_435"/>
      <feColorMatrix in="SourceAlpha" result="hardAlpha" values="0 0 0 0 0 0 0 0 0 0 0 0 0 0 0 0 0 0 127 0"/>
      <feOffset dx="6.875"/>
      <feGaussianBlur stdDeviation="13.75"/>
      <feComposite in2="hardAlpha" k2="-1" k3="1" operator="arithmetic"/>
      <feColorMatrix values="0 0 0 0 0.666667 0 0 0 0 0.6 0 0 0 0 0.74902 0 0 0 1 0"/>
      <feBlend in2="effect1_innerShadow_98_435" result="effect2_innerShadow_98_435"/>
    </filter>
    <radialGradient id="c" cx="0" cy="0" r="1" gradientTransform="rotate(-60.001 2537.744 -38.185) scale(481.269 754.628)" gradientUnits="userSpaceOnUse">
      <stop stop-color="#F9F3FE"/>
      <stop offset="1" stop-color="#F9F3FE" stop-opacity="0"/>
    </radialGradient>
  </defs>
</svg>
