<svg xmlns="http://www.w3.org/2000/svg" width="2200" height="2200" fill="none" viewBox="0 0 2200 2200">
  <g filter="url(#a)">
    <path fill="url(#b)" d="M1777.19 185.281c5.29-5.087 13.4-6.531 19.04-1.856 11.9 9.762 23.51 27.019 23.51 54.45V1787.71c0 77.49-30.78 151.81-85.58 206.6a292.147 292.147 0 0 1-206.6 85.58H511.294v-56.92h-61.188V223.987a63.734 63.734 0 0 1 25.85-43.174c5.5-3.919 12.925-2.476 17.875 2.199l64.075 60.019a27.5 27.5 0 0 0 38.019-.412l71.638-69.919a28.393 28.393 0 0 1 39.256-.481l75.625 70.812a27.498 27.498 0 0 0 38.019-.412L892.1 172.7a28.39 28.39 0 0 1 39.256-.481l75.624 70.812a27.504 27.504 0 0 0 19.06 7.39 27.487 27.487 0 0 0 18.89-7.802l71.71-69.919a28.4 28.4 0 0 1 19.5-8.086 28.421 28.421 0 0 1 19.69 7.605l75.62 70.812a27.495 27.495 0 0 0 19.09 7.423 27.526 27.526 0 0 0 18.93-7.835l71.64-69.919a28.368 28.368 0 0 1 19.53-8.118 28.376 28.376 0 0 1 19.72 7.637l75.63 70.812a27.495 27.495 0 0 0 19.09 7.423 27.526 27.526 0 0 0 18.93-7.835l71.63-69.919a28.41 28.41 0 0 1 19.54-8.118 28.393 28.393 0 0 1 19.72 7.637l75.63 70.812a27.48 27.48 0 0 0 19.05 7.39 27.53 27.53 0 0 0 18.9-7.802l58.71-57.338Z"/>
    <path fill="url(#c)" d="M1777.19 185.281c5.29-5.087 13.4-6.531 19.04-1.856 11.9 9.762 23.51 27.019 23.51 54.45V1787.71c0 77.49-30.78 151.81-85.58 206.6a292.147 292.147 0 0 1-206.6 85.58H511.294v-56.92h-61.188V223.987a63.734 63.734 0 0 1 25.85-43.174c5.5-3.919 12.925-2.476 17.875 2.199l64.075 60.019a27.5 27.5 0 0 0 38.019-.412l71.638-69.919a28.393 28.393 0 0 1 39.256-.481l75.625 70.812a27.498 27.498 0 0 0 38.019-.412L892.1 172.7a28.39 28.39 0 0 1 39.256-.481l75.624 70.812a27.504 27.504 0 0 0 19.06 7.39 27.487 27.487 0 0 0 18.89-7.802l71.71-69.919a28.4 28.4 0 0 1 19.5-8.086 28.421 28.421 0 0 1 19.69 7.605l75.62 70.812a27.495 27.495 0 0 0 19.09 7.423 27.526 27.526 0 0 0 18.93-7.835l71.64-69.919a28.368 28.368 0 0 1 19.53-8.118 28.376 28.376 0 0 1 19.72 7.637l75.63 70.812a27.495 27.495 0 0 0 19.09 7.423 27.526 27.526 0 0 0 18.93-7.835l71.63-69.919a28.41 28.41 0 0 1 19.54-8.118 28.393 28.393 0 0 1 19.72 7.637l75.63 70.812a27.48 27.48 0 0 0 19.05 7.39 27.53 27.53 0 0 0 18.9-7.802l58.71-57.338Z"/>
  </g>
  <g filter="url(#d)">
    <path fill="url(#e)" d="M1281.36 1807.09a68.75 68.75 0 0 0-20.13-48.61 68.782 68.782 0 0 0-48.62-20.14H312.194a68.31 68.31 0 0 0-48.298 20 68.33 68.33 0 0 0-20.04 48.27c0 35.89 7.069 71.43 20.803 104.58a273.263 273.263 0 0 0 59.24 88.66 273.152 273.152 0 0 0 88.659 59.24 273.158 273.158 0 0 0 104.58 20.8h972.812c-164.72-14.57-206.94-175.17-208.59-266.75v-6.05Z"/>
    <path fill="url(#f)" d="M1281.36 1807.09a68.75 68.75 0 0 0-20.13-48.61 68.782 68.782 0 0 0-48.62-20.14H312.194a68.31 68.31 0 0 0-48.298 20 68.33 68.33 0 0 0-20.04 48.27c0 35.89 7.069 71.43 20.803 104.58a273.263 273.263 0 0 0 59.24 88.66 273.152 273.152 0 0 0 88.659 59.24 273.158 273.158 0 0 0 104.58 20.8h972.812c-164.72-14.57-206.94-175.17-208.59-266.75v-6.05Z"/>
  </g>
  <path fill="#97939D" d="M1548.46 437.456H723.525a67.167 67.167 0 0 0-63.997 40.935 67.168 67.168 0 0 0 63.997 93.334h824.935a67.122 67.122 0 0 0 26.35-4.48 67.07 67.07 0 0 0 22.52-14.405 67.106 67.106 0 0 0 15.12-22.049 67.186 67.186 0 0 0 0-52.4 67.1 67.1 0 0 0-15.12-22.05 67.07 67.07 0 0 0-22.52-14.405 67.14 67.14 0 0 0-26.35-4.48Zm-313.09 272.8H691.832a35.473 35.473 0 0 0-37.037 35.441 35.467 35.467 0 0 0 10.949 25.631 35.483 35.483 0 0 0 26.088 9.81h543.538c4.78.21 9.56-.55 14.05-2.236a35.44 35.44 0 0 0 20.13-19.27 35.334 35.334 0 0 0 2.86-13.935c0-4.79-.97-9.531-2.86-13.936a35.446 35.446 0 0 0-34.18-21.505Zm0 204.119H691.832a35.473 35.473 0 0 0-37.037 35.441 35.467 35.467 0 0 0 10.949 25.63 35.47 35.47 0 0 0 26.088 9.81h543.538c4.78.211 9.56-.549 14.05-2.235a35.436 35.436 0 0 0 20.13-19.27 35.334 35.334 0 0 0 2.86-13.935c0-4.79-.97-9.531-2.86-13.936a35.446 35.446 0 0 0-34.18-21.505Zm0 207.895H691.832c-4.786-.21-9.564.55-14.048 2.24a35.549 35.549 0 0 0-12.04 7.57 35.532 35.532 0 0 0-8.097 11.7 35.51 35.51 0 0 0-2.852 13.94c0 4.79.97 9.53 2.852 13.93a35.532 35.532 0 0 0 8.097 11.7 35.549 35.549 0 0 0 12.04 7.57 35.423 35.423 0 0 0 14.048 2.24h543.538c4.78.21 9.56-.55 14.05-2.24 4.48-1.69 8.58-4.26 12.04-7.57 3.46-3.32 6.21-7.29 8.09-11.7a35.376 35.376 0 0 0 0-27.87 35.497 35.497 0 0 0-8.09-11.7 35.578 35.578 0 0 0-12.04-7.57 35.467 35.467 0 0 0-14.05-2.24Zm0 207.84H691.832c-4.786-.21-9.564.55-14.048 2.23a35.422 35.422 0 0 0-12.04 7.58 35.491 35.491 0 0 0-8.097 11.69 35.51 35.51 0 0 0-2.852 13.94c0 4.79.97 9.53 2.852 13.93a35.429 35.429 0 0 0 8.097 11.7 35.396 35.396 0 0 0 12.04 7.57 35.423 35.423 0 0 0 14.048 2.24h543.538c4.78.21 9.56-.55 14.05-2.24a35.394 35.394 0 0 0 20.13-19.27 35.376 35.376 0 0 0 0-27.87c-1.88-4.4-4.63-8.38-8.09-11.69a35.45 35.45 0 0 0-12.04-7.58 35.638 35.638 0 0 0-14.05-2.23Z"/>
  <path fill="#97929F" d="M1235.37 1537.94H691.831a35.59 35.59 0 0 0-14.047 2.23 35.566 35.566 0 0 0-12.04 7.58 35.476 35.476 0 0 0-8.097 11.69 35.51 35.51 0 0 0-2.852 13.94c0 4.79.97 9.53 2.852 13.93a35.414 35.414 0 0 0 8.097 11.7 35.386 35.386 0 0 0 12.04 7.57 35.418 35.418 0 0 0 14.047 2.24h543.539c4.78.21 9.56-.55 14.05-2.24a35.394 35.394 0 0 0 20.13-19.27 35.376 35.376 0 0 0 0-27.87c-1.88-4.4-4.63-8.38-8.09-11.69a35.604 35.604 0 0 0-12.04-7.58 35.638 35.638 0 0 0-14.05-2.23Z"/>
  <path fill="#97939D" d="M1580.15 914.375H1377.2a35.489 35.489 0 0 0-26.09 9.81 35.446 35.446 0 0 0-8.09 11.695 35.339 35.339 0 0 0-2.86 13.936c0 4.79.97 9.53 2.86 13.935a35.436 35.436 0 0 0 20.13 19.27 35.488 35.488 0 0 0 14.05 2.235h202.95c4.79.211 9.56-.549 14.05-2.235a35.436 35.436 0 0 0 20.13-19.27 35.334 35.334 0 0 0 2.86-13.935c0-4.79-.97-9.531-2.86-13.936a35.446 35.446 0 0 0-34.18-21.505Zm0-204.119H1377.2a35.489 35.489 0 0 0-26.09 9.81 35.446 35.446 0 0 0-8.09 11.695 35.339 35.339 0 0 0-2.86 13.936c0 4.79.97 9.531 2.86 13.936a35.446 35.446 0 0 0 8.09 11.695 35.512 35.512 0 0 0 12.04 7.574 35.507 35.507 0 0 0 14.05 2.236h202.95c4.79.21 9.56-.55 14.05-2.236a35.512 35.512 0 0 0 12.04-7.574 35.446 35.446 0 0 0 8.09-11.695 35.339 35.339 0 0 0 2.86-13.936c0-4.79-.97-9.531-2.86-13.936a35.446 35.446 0 0 0-34.18-21.505Zm0 412.014H1377.2c-4.79-.21-9.56.55-14.05 2.24a35.578 35.578 0 0 0-12.04 7.57 35.6 35.6 0 0 0-8.09 11.7 35.376 35.376 0 0 0 0 27.87c1.88 4.41 4.63 8.38 8.09 11.7 3.46 3.31 7.56 5.88 12.04 7.57 4.49 1.69 9.26 2.45 14.05 2.24h202.95c4.79.21 9.56-.55 14.05-2.24 4.48-1.69 8.58-4.26 12.04-7.57 3.46-3.32 6.21-7.29 8.09-11.7a35.376 35.376 0 0 0 0-27.87 35.6 35.6 0 0 0-8.09-11.7 35.578 35.578 0 0 0-12.04-7.57 35.438 35.438 0 0 0-14.05-2.24Zm0 207.84H1377.2c-4.79-.21-9.56.55-14.05 2.23a35.45 35.45 0 0 0-12.04 7.58 35.457 35.457 0 0 0-8.09 11.69 35.376 35.376 0 0 0 0 27.87 35.394 35.394 0 0 0 20.13 19.27c4.49 1.69 9.26 2.45 14.05 2.24h202.95c4.79.21 9.56-.55 14.05-2.24a35.394 35.394 0 0 0 20.13-19.27 35.376 35.376 0 0 0 0-27.87c-1.88-4.4-4.63-8.38-8.09-11.69a35.45 35.45 0 0 0-12.04-7.58 35.61 35.61 0 0 0-14.05-2.23Z"/>
  <path fill="#9893A0" d="M1580.15 1537.94H1377.2c-4.79-.21-9.56.55-14.05 2.23a35.604 35.604 0 0 0-12.04 7.58 35.457 35.457 0 0 0-8.09 11.69 35.376 35.376 0 0 0 0 27.87 35.394 35.394 0 0 0 20.13 19.27c4.49 1.69 9.26 2.45 14.05 2.24h202.95c4.79.21 9.56-.55 14.05-2.24a35.394 35.394 0 0 0 20.13-19.27 35.376 35.376 0 0 0 0-27.87c-1.88-4.4-4.63-8.38-8.09-11.69a35.604 35.604 0 0 0-12.04-7.58 35.61 35.61 0 0 0-14.05-2.23Z"/>
  <path fill="#4CAF50" d="M1585.5 2149c193.06 0 349.56-159.83 349.56-357s-156.5-357-349.56-357-349.56 159.83-349.56 357 156.5 357 349.56 357Z"/>
  <path fill="#CCFF90" d="m1761.95 1632.2-226.39 231.2-93.21-95.2-46.61 47.6 139.82 142.8 272.99-278.8-46.6-47.6Z"/>
  <defs>
    <linearGradient id="b" x1="584.375" x2="1819.74" y1="1168.96" y2="1168.96" gradientUnits="userSpaceOnUse">
      <stop stop-color="#DFD8E8"/>
      <stop offset="1" stop-color="#E0DBEA"/>
    </linearGradient>
    <linearGradient id="e" x1="866.869" x2="866.869" y1="1738.34" y2="2079.89" gradientUnits="userSpaceOnUse">
      <stop stop-color="#DCD4E8"/>
      <stop offset="1" stop-color="#C9BADD"/>
    </linearGradient>
    <linearGradient id="f" x1="1048.44" x2="1048.44" y1="2079.89" y2="1909.12" gradientUnits="userSpaceOnUse">
      <stop stop-color="#A58BC5"/>
      <stop offset="1" stop-color="#C7B7DD" stop-opacity="0"/>
    </linearGradient>
    <filter id="a" width="1390.26" height="1925.63" x="439.794" y="154.267" color-interpolation-filters="sRGB" filterUnits="userSpaceOnUse">
      <feFlood flood-opacity="0" result="BackgroundImageFix"/>
      <feBlend in="SourceGraphic" in2="BackgroundImageFix" result="shape"/>
      <feColorMatrix in="SourceAlpha" result="hardAlpha" values="0 0 0 0 0 0 0 0 0 0 0 0 0 0 0 0 0 0 127 0"/>
      <feOffset dx="-10.313" dy="-10.313"/>
      <feGaussianBlur stdDeviation="12.031"/>
      <feComposite in2="hardAlpha" k2="-1" k3="1" operator="arithmetic"/>
      <feColorMatrix values="0 0 0 0 1 0 0 0 0 1 0 0 0 0 1 0 0 0 1 0"/>
      <feBlend in2="shape" result="effect1_innerShadow_98_2"/>
      <feColorMatrix in="SourceAlpha" result="hardAlpha" values="0 0 0 0 0 0 0 0 0 0 0 0 0 0 0 0 0 0 127 0"/>
      <feOffset dx="-10.313"/>
      <feGaussianBlur stdDeviation="8.594"/>
      <feComposite in2="hardAlpha" k2="-1" k3="1" operator="arithmetic"/>
      <feColorMatrix values="0 0 0 0 1 0 0 0 0 1 0 0 0 0 1 0 0 0 1 0"/>
      <feBlend in2="effect1_innerShadow_98_2" result="effect2_innerShadow_98_2"/>
      <feColorMatrix in="SourceAlpha" result="hardAlpha" values="0 0 0 0 0 0 0 0 0 0 0 0 0 0 0 0 0 0 127 0"/>
      <feOffset dx="10.313"/>
      <feGaussianBlur stdDeviation="12.031"/>
      <feComposite in2="hardAlpha" k2="-1" k3="1" operator="arithmetic"/>
      <feColorMatrix values="0 0 0 0 0.733333 0 0 0 0 0.713726 0 0 0 0 0.764706 0 0 0 1 0"/>
      <feBlend in2="effect2_innerShadow_98_2" result="effect3_innerShadow_98_2"/>
    </filter>
    <filter id="d" width="1263.28" height="341.55" x="233.544" y="1738.34" color-interpolation-filters="sRGB" filterUnits="userSpaceOnUse">
      <feFlood flood-opacity="0" result="BackgroundImageFix"/>
      <feBlend in="SourceGraphic" in2="BackgroundImageFix" result="shape"/>
      <feColorMatrix in="SourceAlpha" result="hardAlpha" values="0 0 0 0 0 0 0 0 0 0 0 0 0 0 0 0 0 0 127 0"/>
      <feOffset dx="-10.313"/>
      <feGaussianBlur stdDeviation="8.594"/>
      <feComposite in2="hardAlpha" k2="-1" k3="1" operator="arithmetic"/>
      <feColorMatrix values="0 0 0 0 1 0 0 0 0 1 0 0 0 0 1 0 0 0 1 0"/>
      <feBlend in2="shape" result="effect1_innerShadow_98_2"/>
      <feColorMatrix in="SourceAlpha" result="hardAlpha" values="0 0 0 0 0 0 0 0 0 0 0 0 0 0 0 0 0 0 127 0"/>
      <feOffset dx="6.875"/>
      <feGaussianBlur stdDeviation="13.75"/>
      <feComposite in2="hardAlpha" k2="-1" k3="1" operator="arithmetic"/>
      <feColorMatrix values="0 0 0 0 0.666667 0 0 0 0 0.6 0 0 0 0 0.74902 0 0 0 1 0"/>
      <feBlend in2="effect1_innerShadow_98_2" result="effect2_innerShadow_98_2"/>
    </filter>
    <radialGradient id="c" cx="0" cy="0" r="1" gradientTransform="rotate(-60.001 2537.746 -38.182) scale(481.269 754.628)" gradientUnits="userSpaceOnUse">
      <stop stop-color="#F9F3FE"/>
      <stop offset="1" stop-color="#F9F3FE" stop-opacity="0"/>
    </radialGradient>
  </defs>
</svg>
