<svg xmlns="http://www.w3.org/2000/svg" width="2200" height="2200" fill="none" viewBox="0 0 2200 2200">
  <path fill="#F8A18D" d="M1059.09 675.812H198.206V2044.62h860.884V675.812Z"/>
  <path fill="url(#a)" d="M1059.09 675.812H198.206V2044.62h860.884V675.812Z"/>
  <path fill="url(#b)" d="M1059.09 675.812H198.206V2044.62h860.884V675.812Z"/>
  <path fill="url(#c)" d="M1059.09 675.812H198.206V2044.62h860.884V675.812Z"/>
  <path fill="url(#d)" d="M1985.71 675.812H1100V2044.62h885.71V675.812Z"/>
  <path fill="url(#e)" d="M1985.71 675.812H1100V2044.62h885.71V675.812Z"/>
  <path fill="url(#f)" d="M1985.71 675.812H1100V2044.62h885.71V675.812Z"/>
  <path fill="url(#g)" d="M1985.71 675.812H1100V2044.62h885.71V675.812Z"/>
  <path fill="url(#h)" d="M1985.71 675.812H1100V2044.62h885.71V675.812Z"/>
  <path fill="url(#i)" d="M1471.52 2044.62H706.199V575.438c0-213.813 171.05-387.063 382.321-387.063 211.27 0 382.32 173.25 382.32 387.063V2044.62h.68Z"/>
  <path fill="url(#j)" d="M1471.52 2044.62H706.199V575.438c0-213.813 171.05-387.063 382.321-387.063 211.27 0 382.32 173.25 382.32 387.063V2044.62h.68Z"/>
  <path fill="url(#k)" d="M1471.52 2044.62H706.199V575.438c0-213.813 171.05-387.063 382.321-387.063 211.27 0 382.32 173.25 382.32 387.063V2044.62h.68Z"/>
  <g filter="url(#l)">
    <path fill="url(#m)" d="M502.149 1220.31H379.774c-23.375 0-41.937-18.56-41.937-41.94v-129.93c0-57.065 46.062-103.128 103.125-103.128 57.062 0 103.125 46.063 103.125 103.128v129.93c0 22.69-18.563 41.94-41.938 41.94Z"/>
    <path fill="url(#n)" d="M502.149 1220.31H379.774c-23.375 0-41.937-18.56-41.937-41.94v-129.93c0-57.065 46.062-103.128 103.125-103.128 57.062 0 103.125 46.063 103.125 103.128v129.93c0 22.69-18.563 41.94-41.938 41.94Z"/>
  </g>
  <g filter="url(#o)">
    <path fill="url(#p)" d="M502.149 1701.56H379.774c-23.375 0-41.937-18.56-41.937-41.94v-129.93c0-57.07 46.062-103.13 103.125-103.13 57.062 0 103.125 46.06 103.125 103.13v129.93c0 22.69-18.563 41.94-41.938 41.94Z"/>
    <path fill="url(#q)" d="M502.149 1701.56H379.774c-23.375 0-41.937-18.56-41.937-41.94v-129.93c0-57.07 46.062-103.13 103.125-103.13 57.062 0 103.125 46.06 103.125 103.13v129.93c0 22.69-18.563 41.94-41.938 41.94Z"/>
  </g>
  <g filter="url(#r)">
    <path fill="url(#s)" d="M1808.4 1220.31h-122.38c-23.37 0-41.93-18.56-41.93-41.94v-129.93c0-57.065 46.06-103.128 103.12-103.128s103.13 46.063 103.13 103.128v129.93c0 22.69-18.57 41.94-41.94 41.94Z"/>
    <path fill="url(#t)" d="M1808.4 1220.31h-122.38c-23.37 0-41.93-18.56-41.93-41.94v-129.93c0-57.065 46.06-103.128 103.12-103.128s103.13 46.063 103.13 103.128v129.93c0 22.69-18.57 41.94-41.94 41.94Z"/>
  </g>
  <g filter="url(#u)">
    <path fill="url(#v)" d="M1808.4 1701.56h-122.38c-23.37 0-41.93-18.56-41.93-41.94v-129.93c0-57.07 46.06-103.13 103.12-103.13s103.13 46.06 103.13 103.13v129.93c0 22.69-18.57 41.94-41.94 41.94Z"/>
    <path fill="url(#w)" d="M1808.4 1701.56h-122.38c-23.37 0-41.93-18.56-41.93-41.94v-129.93c0-57.07 46.06-103.13 103.12-103.13s103.13 46.06 103.13 103.13v129.93c0 22.69-18.57 41.94-41.94 41.94Z"/>
  </g>
  <path fill="url(#x)" d="M787.943 1398.65h612.287v645.97H787.943v-645.97Z"/>
  <path fill="url(#y)" d="M787.943 1398.65h612.287v645.97H787.943v-645.97Z"/>
  <path fill="url(#z)" d="M787.943 1398.65h612.287v645.97H787.943v-645.97Z"/>
  <path fill="url(#A)" d="M787.943 1398.65h612.287v645.97H787.943v-645.97Z"/>
  <path fill="url(#B)" d="M787.943 1398.65h612.287v645.97H787.943v-645.97Z"/>
  <g filter="url(#C)">
    <path fill="url(#D)" d="M1385.86 1516.97v-122.38l-1.65-1.72H804.237l-1.925 1.93v121.69c.926-.2 1.872-.3 2.819-.28 4.125 0 7.838 2.13 10.657 5.16a34.656 34.656 0 0 0 11.542 8.27 34.614 34.614 0 0 0 13.895 2.92c4.784 0 9.515-1 13.894-2.92a34.65 34.65 0 0 0 11.543-8.27 14.703 14.703 0 0 1 4.761-3.67c1.821-.89 3.804-1.4 5.827-1.49 4.125 0 7.769 2.13 10.587 5.16a34.67 34.67 0 0 0 11.543 8.27 34.617 34.617 0 0 0 13.895 2.92c4.784 0 9.515-1 13.895-2.92a34.67 34.67 0 0 0 11.543-8.27 14.689 14.689 0 0 1 4.76-3.67c1.821-.89 3.804-1.4 5.827-1.49 4.125 0 7.837 2.13 10.587 5.16a34.67 34.67 0 0 0 11.543 8.27 34.617 34.617 0 0 0 13.895 2.92c4.784 0 9.515-1 13.895-2.92 4.38-1.93 8.31-4.75 11.54-8.27a14.7 14.7 0 0 1 4.76-3.67c1.82-.89 3.81-1.4 5.83-1.49 4.12 0 7.84 2.13 10.66 5.16 3.23 3.52 7.16 6.34 11.54 8.27 4.38 1.92 9.11 2.92 13.89 2.92 4.79 0 9.52-1 13.9-2.92 4.38-1.93 8.31-4.75 11.54-8.27a14.7 14.7 0 0 1 4.76-3.67c1.82-.89 3.81-1.4 5.83-1.49 4.12 0 7.77 2.13 10.59 5.16 3.23 3.52 7.16 6.34 11.54 8.27 4.38 1.92 9.11 2.92 13.89 2.92 4.79 0 9.52-1 13.9-2.92 4.38-1.93 8.31-4.75 11.54-8.27a14.7 14.7 0 0 1 4.76-3.67c1.82-.89 3.81-1.4 5.83-1.49 4.12 0 7.84 2.13 10.59 5.16 3.23 3.52 7.16 6.34 11.54 8.27 4.38 1.92 9.11 2.92 13.89 2.92 4.79 0 9.52-1 13.9-2.92 4.38-1.93 8.31-4.75 11.54-8.27a14.7 14.7 0 0 1 4.76-3.67c1.82-.89 3.81-1.4 5.83-1.49 4.12 0 7.84 2.13 10.59 5.16 3.23 3.52 7.16 6.34 11.54 8.27 4.38 1.92 9.11 2.92 13.89 2.92 4.79 0 9.52-1 13.9-2.92 4.38-1.93 8.31-4.75 11.54-8.27a14.7 14.7 0 0 1 4.76-3.67c1.82-.89 3.81-1.4 5.83-1.49 4.12 0 7.84 2.13 10.66 5.16 3.23 3.52 7.16 6.34 11.54 8.27 4.38 1.92 9.11 2.92 13.89 2.92 4.79 0 9.52-1 13.9-2.92 4.38-1.93 8.31-4.75 11.54-8.27a14.7 14.7 0 0 1 4.76-3.67c1.82-.89 3.8-1.4 5.83-1.49 1.37 0 2.75.28 4.12.69"/>
  </g>
  <g filter="url(#E)">
    <path fill="url(#F)" d="M1031.59 1357.81H881.306c-15.188 0-27.5 12.31-27.5 27.5v535.5c0 15.18 12.312 27.5 27.5 27.5h150.284c15.19 0 27.5-12.32 27.5-27.5v-535.5c0-15.19-12.31-27.5-27.5-27.5Z"/>
  </g>
  <g filter="url(#G)">
    <path fill="url(#H)" d="M1306.73 1357.81h-150.29c-15.18 0-27.5 12.31-27.5 27.5v535.5c0 15.18 12.32 27.5 27.5 27.5h150.29c15.19 0 27.5-12.32 27.5-27.5v-535.5c0-15.19-12.31-27.5-27.5-27.5Z"/>
  </g>
  <g filter="url(#I)">
    <path fill="#275FB2" d="M1137.54 1515.46v-128.09h188.1v126.23c-4.89-1.78-9.27-4.7-12.79-8.53-1.22-1.4-2.72-2.54-4.4-3.34-1.68-.81-3.5-1.26-5.36-1.33-1.85.08-3.66.53-5.33 1.34a13.7 13.7 0 0 0-4.37 3.33 31.696 31.696 0 0 1-10.57 7.58 31.694 31.694 0 0 1-25.46 0 31.635 31.635 0 0 1-10.58-7.58 13.66 13.66 0 0 0-4.36-3.33c-1.67-.81-3.48-1.26-5.33-1.34-1.86.07-3.69.52-5.37 1.33-1.68.8-3.17 1.94-4.4 3.34a31.572 31.572 0 0 1-10.56 7.55 31.552 31.552 0 0 1-25.41 0 31.612 31.612 0 0 1-10.57-7.55c-1.22-1.4-2.72-2.54-4.4-3.34a13.45 13.45 0 0 0-5.36-1.33c-1.84.09-3.64.55-5.29 1.35-1.66.81-3.13 1.94-4.34 3.32a31.476 31.476 0 0 1-10.6 7.63 31.698 31.698 0 0 1-12.77 2.69l-.48.07Z"/>
  </g>
  <g filter="url(#J)">
    <path fill="#275FB2" d="M862.399 1515.46v-128.09h188.031v126.23c-4.88-1.78-9.27-4.7-12.79-8.53a13.66 13.66 0 0 0-4.36-3.33c-1.67-.81-3.48-1.26-5.33-1.34-1.86.07-3.69.52-5.37 1.33-1.68.8-3.17 1.94-4.39 3.34a31.612 31.612 0 0 1-10.57 7.55 31.562 31.562 0 0 1-25.412 0 31.662 31.662 0 0 1-10.565-7.55 13.636 13.636 0 0 0-4.365-3.33 13.519 13.519 0 0 0-5.329-1.34c-1.86.07-3.686.52-5.365 1.33-1.68.8-3.176 1.94-4.397 3.34a31.662 31.662 0 0 1-10.565 7.55 31.592 31.592 0 0 1-12.707 2.67c-4.374 0-8.701-.91-12.707-2.67a31.662 31.662 0 0 1-10.565-7.55 13.602 13.602 0 0 0-4.396-3.34 13.52 13.52 0 0 0-5.366-1.33c-1.849.08-3.662.53-5.329 1.34-1.667.8-3.152 1.94-4.365 3.33a31.445 31.445 0 0 1-10.568 7.61 31.59 31.59 0 0 1-12.738 2.71l-.482.07Z"/>
  </g>
  <g filter="url(#K)">
    <path fill="url(#L)" d="M1468.09 1439.63c-.69-1.38 0-2.07-.69-3.44a432.407 432.407 0 0 0-158.06-157.01 432.348 432.348 0 0 0-215.25-57.49c-159.503 0-297.691 86.62-373.316 214.5 0 .68 0 1.37-.687 2.06a38.503 38.503 0 0 0-4.813 17.88c0 20.62 17.188 37.81 37.813 37.81 10.656 0 19.937-4.54 26.675-11.83 1.393-1.6 3.1-2.91 5.015-3.83a15.673 15.673 0 0 1 6.122-1.53c4.332 0 8.25 2.27 11.138 5.36a36.336 36.336 0 0 0 12.108 8.66 36.34 36.34 0 0 0 14.567 3.06 36.34 36.34 0 0 0 14.567-3.06 36.336 36.336 0 0 0 12.108-8.66c1.393-1.6 3.1-2.91 5.015-3.83a15.673 15.673 0 0 1 6.122-1.53c4.332 0 8.25 2.27 11.138 5.36a36.326 36.326 0 0 0 12.108 8.66 36.34 36.34 0 0 0 14.567 3.06 36.34 36.34 0 0 0 14.567-3.06 36.336 36.336 0 0 0 12.108-8.66c1.393-1.6 3.1-2.91 5.015-3.83a15.673 15.673 0 0 1 6.122-1.53c4.332 0 8.25 2.27 11.138 5.36a36.336 36.336 0 0 0 12.108 8.66 36.34 36.34 0 0 0 14.567 3.06 36.34 36.34 0 0 0 14.567-3.06 36.408 36.408 0 0 0 12.111-8.66c1.39-1.6 3.1-2.91 5.01-3.83 1.92-.92 4-1.44 6.12-1.53 4.34 0 8.25 2.27 11.14 5.36 3.4 3.69 7.52 6.64 12.11 8.66a36.33 36.33 0 0 0 14.57 3.06c5.01 0 9.97-1.05 14.56-3.06 4.6-2.02 8.72-4.97 12.11-8.66 1.4-1.6 3.1-2.91 5.02-3.83 1.91-.92 4-1.44 6.12-1.53 4.33 0 8.25 2.27 11.14 5.36 3.39 3.69 7.51 6.64 12.11 8.66 4.59 2.01 9.55 3.06 14.56 3.06 5.02 0 9.98-1.05 14.57-3.06 4.59-2.02 8.71-4.97 12.11-8.66 1.39-1.6 3.1-2.91 5.01-3.83 1.92-.92 4-1.44 6.12-1.53 4.34 0 8.25 2.27 11.14 5.36 3.4 3.69 7.52 6.64 12.11 8.66a36.33 36.33 0 0 0 14.57 3.06c5.01 0 9.97-1.05 14.56-3.06 4.6-2.02 8.72-4.97 12.11-8.66 1.4-1.6 3.1-2.91 5.02-3.83 1.91-.92 4-1.44 6.12-1.53 4.33 0 8.25 2.27 11.14 5.36 3.39 3.69 7.51 6.64 12.11 8.66 4.59 2.01 9.55 3.06 14.56 3.06 5.02 0 9.98-1.05 14.57-3.06 4.59-2.02 8.71-4.97 12.11-8.66 1.39-1.6 3.1-2.91 5.01-3.83 1.92-.92 4-1.44 6.12-1.53 4.34 0 8.25 2.27 11.14 5.36 3.4 3.69 7.52 6.64 12.11 8.66a36.33 36.33 0 0 0 14.57 3.06c5.01 0 9.97-1.05 14.56-3.06 4.6-2.02 8.72-4.97 12.11-8.66 1.4-1.6 3.1-2.91 5.02-3.83 1.91-.92 4-1.44 6.12-1.53 4.33 0 8.25 2.27 11.14 5.36 3.38 3.72 7.5 6.68 12.09 8.72 4.59 2.03 9.56 3.09 14.58 3.11 6.4-.03 12.7-1.68 18.3-4.78 5.6-3.1 10.33-7.56 13.75-12.97 3.43-5.41 5.43-11.6 5.84-17.99.41-6.39-.8-12.77-3.51-18.57Z"/>
  </g>
  <g filter="url(#M)">
    <path fill="#B24340" d="M1083.36 292.669h11c194.15 0 351.59 147.95 351.59 330.481v96.25c0 24.337 13.89 45.581 34.72 57.131V561.688c0-206.25-175.45-373.313-392.15-373.313-216.701 0-392.082 167.063-392.082 373.313v215.187a65.658 65.658 0 0 0 35.406-57.475v-96.25c0-182.531 157.369-330.481 351.516-330.481Z"/>
  </g>
  <g filter="url(#N)">
    <path fill="#741019" d="M1083.16 252.519h11.48c201.43 0 364.78 153.45 364.78 342.719v99.825c0 25.231 14.44 47.3 36.03 59.262V553.713c0-213.95-182.05-387.063-406.93-387.063-224.814 0-406.933 173.113-406.933 387.063v200.956a68.06 68.06 0 0 0 36.781-59.606v-99.825c0-189.269 163.35-342.719 364.792-342.719Z"/>
  </g>
  <g filter="url(#O)">
    <path fill="url(#P)" d="M1094.77 247.294h-11.82a375.786 375.786 0 0 0-375.719 375.787v115.982a68.75 68.75 0 0 1-68.75 68.75H168.162a41.25 41.25 0 0 1-41.25-41.251v-9.143A223.437 223.437 0 0 1 350.35 533.981h226.668a17.596 17.596 0 0 0 17.119-14.093 499.676 499.676 0 0 1 488.813-396.344h11.82a499.668 499.668 0 0 1 314.64 111.553 499.723 499.723 0 0 1 174.18 284.791c.79 3.98 2.93 7.564 6.07 10.145 3.13 2.581 7.06 4 11.11 4.017h226.6a223.43 223.43 0 0 1 158 65.443 223.251 223.251 0 0 1 48.43 72.489 223.41 223.41 0 0 1 17.01 85.505v9.075a41.232 41.232 0 0 1-12.08 29.169 41.261 41.261 0 0 1-29.17 12.082h-470.25a68.744 68.744 0 0 1-48.61-20.137 68.766 68.766 0 0 1-20.14-48.613V623.081a375.799 375.799 0 0 0-110.06-265.722 375.811 375.811 0 0 0-265.73-110.065Z"/>
    <path fill="url(#Q)" d="M1094.77 247.294h-11.82a375.786 375.786 0 0 0-375.719 375.787v115.982a68.75 68.75 0 0 1-68.75 68.75H168.162a41.25 41.25 0 0 1-41.25-41.251v-9.143A223.437 223.437 0 0 1 350.35 533.981h226.668a17.596 17.596 0 0 0 17.119-14.093 499.676 499.676 0 0 1 488.813-396.344h11.82a499.668 499.668 0 0 1 314.64 111.553 499.723 499.723 0 0 1 174.18 284.791c.79 3.98 2.93 7.564 6.07 10.145 3.13 2.581 7.06 4 11.11 4.017h226.6a223.43 223.43 0 0 1 158 65.443 223.251 223.251 0 0 1 48.43 72.489 223.41 223.41 0 0 1 17.01 85.505v9.075a41.232 41.232 0 0 1-12.08 29.169 41.261 41.261 0 0 1-29.17 12.082h-470.25a68.744 68.744 0 0 1-48.61-20.137 68.766 68.766 0 0 1-20.14-48.613V623.081a375.799 375.799 0 0 0-110.06-265.722 375.811 375.811 0 0 0-265.73-110.065Z"/>
  </g>
  <g filter="url(#R)">
    <path stroke="url(#S)" stroke-linecap="round" stroke-width=".25" d="M1157.47 1260.05c66.69 7.56 204.19 56.51 277.2 188.03"/>
  </g>
  <g filter="url(#T)">
    <path stroke="url(#U)" stroke-linecap="round" stroke-width=".8" d="M871.062 238.494c50.601-32.313 189.608-81.469 344.298-31.9 198.69 63.731 307.93 210.856 317.01 392.906"/>
  </g>
  <path fill="#fff" d="M818.284 1415v-54.1h27.048c6.384 0 11.088 1.68 14.112 5.04 3.024 3.36 4.536 7.87 4.536 13.53 0 3.64-.924 6.83-2.772 9.57-1.848 2.75-4.368 4.79-7.56 6.14.784.61 1.4 1.31 1.848 2.1.504.72 1.036 1.76 1.596 3.1l6.384 14.62h-14.112l-6.048-13.78c-.504-1.17-1.148-2.01-1.932-2.52-.784-.56-1.904-.84-3.36-.84h-6.216V1415h-13.524Zm13.524-27.55h9.996c2.632 0 4.676-.65 6.132-1.93 1.512-1.35 2.268-3.36 2.268-6.05 0-5.43-2.604-8.15-7.812-8.15h-10.584v16.13Zm39.058 27.55v-54.1h39.9v10.42H884.39v11.34h23.268v10.58H884.39v11.34h26.376V1415h-39.9Zm63.568.84c-3.584 0-6.944-.28-10.08-.84-3.08-.5-5.74-1.26-7.98-2.27v-11.51c2.464 1.07 5.18 1.94 8.148 2.61 3.024.67 5.88 1.01 8.568 1.01 3.36 0 5.852-.31 7.476-.93 1.68-.61 2.52-1.96 2.52-4.03 0-1.4-.42-2.52-1.26-3.36-.784-.84-2.1-1.57-3.948-2.18-1.792-.68-4.256-1.46-7.392-2.36-3.696-1.12-6.636-2.35-8.82-3.69-2.184-1.4-3.752-3.08-4.704-5.04s-1.428-4.37-1.428-7.23c0-5.15 1.848-9.1 5.544-11.84 3.696-2.74 9.156-4.12 16.38-4.12 3.136 0 6.188.26 9.156.76 2.968.45 5.376.98 7.224 1.6v11.59a38.944 38.944 0 0 0-7.308-2.1c-2.408-.45-4.76-.67-7.056-.67-3.024 0-5.488.28-7.392.84-1.848.56-2.772 1.84-2.772 3.86 0 1.18.336 2.13 1.008 2.86.672.67 1.82 1.28 3.444 1.84 1.68.56 3.948 1.24 6.804 2.02 4.424 1.18 7.812 2.6 10.164 4.28 2.352 1.63 3.976 3.53 4.872 5.72.896 2.12 1.344 4.53 1.344 7.22 0 4.76-1.848 8.62-5.544 11.59-3.696 2.91-9.352 4.37-16.968 4.37Zm40.249-.84v-43.68h-15.876v-10.42h45.273v10.42h-15.873V1415h-13.524Zm26.657 0 20.66-54.1h14.62l20.66 54.1h-14.11l-4.87-12.26h-18.06l-4.79 12.26h-14.11Zm20.75-22.26h14.36l-7.22-18.82-7.14 18.82Zm62.71 23.1c-5.04 0-9.43-.81-13.19-2.44-3.69-1.62-6.58-4.03-8.65-7.22-2.01-3.19-3.02-7.11-3.02-11.76v-33.52h13.52v32.26c0 3.75.98 6.55 2.94 8.4 1.96 1.85 4.76 2.77 8.4 2.77 3.64 0 6.44-.92 8.4-2.77s2.94-4.65 2.94-8.4v-32.26h13.53v33.52c0 4.65-1.04 8.57-3.11 11.76-2.02 3.19-4.9 5.6-8.65 7.22-3.7 1.63-8.07 2.44-13.11 2.44Zm32.98-.84v-54.1h27.05c6.38 0 11.09 1.68 14.11 5.04 3.02 3.36 4.54 7.87 4.54 13.53 0 3.64-.93 6.83-2.78 9.57-1.84 2.75-4.36 4.79-7.56 6.14.79.61 1.4 1.31 1.85 2.1.51.72 1.04 1.76 1.6 3.1l6.38 14.62h-14.11l-6.05-13.78c-.5-1.17-1.15-2.01-1.93-2.52-.78-.56-1.9-.84-3.36-.84h-6.22V1415h-13.52Zm13.52-27.55h10c2.63 0 4.68-.65 6.13-1.93 1.51-1.35 2.27-3.36 2.27-6.05 0-5.43-2.6-8.15-7.81-8.15h-10.59v16.13Zm33.61 27.55 20.66-54.1h14.62l20.66 54.1h-14.11l-4.87-12.26h-18.06l-4.79 12.26h-14.11Zm20.75-22.26h14.36l-7.22-18.82-7.14 18.82Zm42.04 22.26v-54.1h11.59l23.02 32.34v-32.34h13.61v54.1h-11.68l-23.01-32.26V1415h-13.53Zm69.28 0v-43.68h-15.87v-10.42h45.27v10.42h-15.87V1415h-13.53Zm35.48 0v-54.1h39.9v10.42h-26.38v11.34h23.27v10.58h-23.27v11.34h26.38V1415h-39.9Z"/>
  <path fill="url(#V)" d="M1094.18 1039.57c117.77 0 213.22-95.448 213.22-213.19s-95.45-213.192-213.2-213.192c-117.738 0-213.188 95.45-213.188 213.192s95.43 213.19 213.168 213.19Z"/>
  <path fill="url(#W)" d="M1094.18 1039.57c117.77 0 213.22-95.448 213.22-213.19s-95.45-213.192-213.2-213.192c-117.738 0-213.188 95.45-213.188 213.192s95.43 213.19 213.168 213.19Z"/>
  <g filter="url(#X)">
    <path fill="#DDCEF5" d="M1094.69 1032.73c114.23 0 206.83-92.601 206.83-206.835 0-114.233-92.6-206.834-206.83-206.834-114.235 0-206.836 92.581-206.836 206.834 0 114.234 92.601 206.835 206.836 206.835Z"/>
    <path fill="url(#Y)" d="M1094.69 1032.73c114.23 0 206.83-92.601 206.83-206.835 0-114.233-92.6-206.834-206.83-206.834-114.235 0-206.836 92.581-206.836 206.834 0 114.234 92.601 206.835 206.836 206.835Z"/>
  </g>
  <g filter="url(#Z)">
    <path fill="url(#aa)" d="M1075.87 619.623c62.07-8.471 140.94 18.338 179.58 83.858-49.96-47.996-103.03-77.577-179.58-83.858Z"/>
  </g>
  <path fill="#D8CBF0" d="M1094.18 973.063a146.66 146.66 0 0 0 56.65-10.673 146.624 146.624 0 0 0 80.4-79.469 146.632 146.632 0 0 0 11.33-56.522 146.45 146.45 0 0 0-11.32-56.523 146.724 146.724 0 0 0-32.23-47.795 146.721 146.721 0 0 0-48.16-31.685 146.69 146.69 0 0 0-159.278 32.864 146.685 146.685 0 0 0-.013 206.246 146.682 146.682 0 0 0 102.621 43.557Z"/>
  <path fill="url(#ab)" d="M1094.18 973.063a146.66 146.66 0 0 0 56.65-10.673 146.624 146.624 0 0 0 80.4-79.469 146.632 146.632 0 0 0 11.33-56.522 146.45 146.45 0 0 0-11.32-56.523 146.724 146.724 0 0 0-32.23-47.795 146.721 146.721 0 0 0-48.16-31.685 146.69 146.69 0 0 0-159.278 32.864 146.685 146.685 0 0 0-.013 206.246 146.682 146.682 0 0 0 102.621 43.557Z"/>
  <path fill="url(#ac)" d="M1094.18 973.063a146.66 146.66 0 0 0 56.65-10.673 146.624 146.624 0 0 0 80.4-79.469 146.632 146.632 0 0 0 11.33-56.522 146.45 146.45 0 0 0-11.32-56.523 146.724 146.724 0 0 0-32.23-47.795 146.721 146.721 0 0 0-48.16-31.685 146.69 146.69 0 0 0-159.278 32.864 146.685 146.685 0 0 0-.013 206.246 146.682 146.682 0 0 0 102.621 43.557Z"/>
  <path fill="url(#ad)" d="M1094.18 973.063a146.66 146.66 0 0 0 56.65-10.673 146.624 146.624 0 0 0 80.4-79.469 146.632 146.632 0 0 0 11.33-56.522 146.45 146.45 0 0 0-11.32-56.523 146.724 146.724 0 0 0-32.23-47.795 146.721 146.721 0 0 0-48.16-31.685 146.69 146.69 0 0 0-159.278 32.864 146.685 146.685 0 0 0-.013 206.246 146.682 146.682 0 0 0 102.621 43.557Z"/>
  <g filter="url(#ae)">
    <path fill="#B9A9D2" d="M1330.79 700.806v175.063L1291 859.934c-26.83-10.661-44.49-38.963-44.49-70.812v-88.316h84.28Z"/>
  </g>
  <path fill="url(#af)" d="M1312.24 594.385c21.85 0 39.57 17.349 39.57 38.73v217.612h-50.99a74.334 74.334 0 0 1-32.98-27.612 74.36 74.36 0 0 1-12.16-41.262V649.98c-.24-30.628 25-55.595 56.56-55.595Z"/>
  <path fill="url(#ag)" d="M1312.24 594.385c21.85 0 39.57 17.349 39.57 38.73v217.612h-50.99a74.334 74.334 0 0 1-32.98-27.612 74.36 74.36 0 0 1-12.16-41.262V649.98c-.24-30.628 25-55.595 56.56-55.595Z"/>
  <path fill="url(#ah)" d="M1312.24 594.385c21.85 0 39.57 17.349 39.57 38.73v217.612h-50.99a74.334 74.334 0 0 1-32.98-27.612 74.36 74.36 0 0 1-12.16-41.262V649.98c-.24-30.628 25-55.595 56.56-55.595Z"/>
  <path fill="url(#ai)" d="M1312.24 594.385c21.85 0 39.57 17.349 39.57 38.73v217.612h-50.99a74.334 74.334 0 0 1-32.98-27.612 74.36 74.36 0 0 1-12.16-41.262V649.98c-.24-30.628 25-55.595 56.56-55.595Z"/>
  <g filter="url(#aj)">
    <path fill="url(#ak)" d="M1309.47 613.188c14.69 0 26.63 11.689 26.63 26.072v194.292c-26.63 0-64.72-20.393-64.72-71.045V650.658c-.16-20.644 16.84-37.47 38.09-37.47Z"/>
  </g>
  <path fill="url(#al)" d="M1300.59 850.727v204.953c0 12.37 10.2 22.35 22.82 22.35h5.58c12.62 0 22.82-9.98 22.82-22.35V850.727h-51.22Z"/>
  <path fill="url(#am)" d="M1300.59 850.727v204.953c0 12.37 10.2 22.35 22.82 22.35h5.58c12.62 0 22.82-9.98 22.82-22.35V850.727h-51.22Z"/>
  <path fill="url(#an)" d="M1300.59 850.727v204.953c0 12.37 10.2 22.35 22.82 22.35h5.58c12.62 0 22.82-9.98 22.82-22.35V850.727h-51.22Z"/>
  <path fill="url(#ao)" d="M924.86 594.385c-9.111 0-16.303 6.397-16.303 14.015v64.26c0 4.129-3.838 7.211-8.413 7.211-4.788 0-8.393-3.296-8.393-7.211v-63.64c0-7.618-6.959-14.422-15.837-14.635-9.344-.194-17.02 6.203-17.02 14.015v64.26c0 4.129-3.838 7.211-8.394 7.211-4.807 0-8.413-3.296-8.413-7.211v-63.64c0-7.618-6.939-14.422-15.817-14.635-9.363-.194-17.04 6.203-17.04 14.015v113.012c0 39.816 41.018 50.613 41.018 78.779v252.099c0 13.68 11.534 25.74 25.317 25.74 13.763 0 25.316-12.06 25.316-25.74V800.21c0-29.173 41.018-38.652 41.018-78.798V608.4c-.485-7.599-7.929-13.996-17.039-13.996"/>
  <path fill="url(#ap)" d="M924.86 594.385c-9.111 0-16.303 6.397-16.303 14.015v64.26c0 4.129-3.838 7.211-8.413 7.211-4.788 0-8.393-3.296-8.393-7.211v-63.64c0-7.618-6.959-14.422-15.837-14.635-9.344-.194-17.02 6.203-17.02 14.015v64.26c0 4.129-3.838 7.211-8.394 7.211-4.807 0-8.413-3.296-8.413-7.211v-63.64c0-7.618-6.939-14.422-15.817-14.635-9.363-.194-17.04 6.203-17.04 14.015v113.012c0 39.816 41.018 50.613 41.018 78.779v252.099c0 13.68 11.534 25.74 25.317 25.74 13.763 0 25.316-12.06 25.316-25.74V800.21c0-29.173 41.018-38.652 41.018-78.798V608.4c-.485-7.599-7.929-13.996-17.039-13.996"/>
  <path fill="url(#aq)" d="M924.86 594.385c-9.111 0-16.303 6.397-16.303 14.015v64.26c0 4.129-3.838 7.211-8.413 7.211-4.788 0-8.393-3.296-8.393-7.211v-63.64c0-7.618-6.959-14.422-15.837-14.635-9.344-.194-17.02 6.203-17.02 14.015v64.26c0 4.129-3.838 7.211-8.394 7.211-4.807 0-8.413-3.296-8.413-7.211v-63.64c0-7.618-6.939-14.422-15.817-14.635-9.363-.194-17.04 6.203-17.04 14.015v113.012c0 39.816 41.018 50.613 41.018 78.779v252.099c0 13.68 11.534 25.74 25.317 25.74 13.763 0 25.316-12.06 25.316-25.74V800.21c0-29.173 41.018-38.652 41.018-78.798V608.4c-.485-7.599-7.929-13.996-17.039-13.996"/>
  <path fill="url(#ar)" d="M924.86 594.385c-9.111 0-16.303 6.397-16.303 14.015v64.26c0 4.129-3.838 7.211-8.413 7.211-4.788 0-8.393-3.296-8.393-7.211v-63.64c0-7.618-6.959-14.422-15.837-14.635-9.344-.194-17.02 6.203-17.02 14.015v64.26c0 4.129-3.838 7.211-8.394 7.211-4.807 0-8.413-3.296-8.413-7.211v-63.64c0-7.618-6.939-14.422-15.817-14.635-9.363-.194-17.04 6.203-17.04 14.015v113.012c0 39.816 41.018 50.613 41.018 78.779v252.099c0 13.68 11.534 25.74 25.317 25.74 13.763 0 25.316-12.06 25.316-25.74V800.21c0-29.173 41.018-38.652 41.018-78.798V608.4c-.485-7.599-7.929-13.996-17.039-13.996"/>
  <path fill="url(#as)" d="M924.86 594.385c-9.111 0-16.303 6.397-16.303 14.015v64.26c0 4.129-3.838 7.211-8.413 7.211-4.788 0-8.393-3.296-8.393-7.211v-63.64c0-7.618-6.959-14.422-15.837-14.635-9.344-.194-17.02 6.203-17.02 14.015v64.26c0 4.129-3.838 7.211-8.394 7.211-4.807 0-8.413-3.296-8.413-7.211v-63.64c0-7.618-6.939-14.422-15.817-14.635-9.363-.194-17.04 6.203-17.04 14.015v113.012c0 39.816 41.018 50.613 41.018 78.779v252.099c0 13.68 11.534 25.74 25.317 25.74 13.763 0 25.316-12.06 25.316-25.74V800.21c0-29.173 41.018-38.652 41.018-78.798V608.4c-.485-7.599-7.929-13.996-17.039-13.996"/>
  <g filter="url(#at)">
    <path fill="url(#au)" d="M924.763 604.387c-7.521 0-8.607 6.998-8.607 14.635v51.971c0 12.406-9.402 15.41-15.314 15.41-5.893 0-16.496-3.334-16.496-15.41v-51.951c0-7.657-1.066-14.655-7.424-14.655-6.359 0-7.871 6.785-7.871 14.616v51.99c0 8.432-8.626 15.41-18.473 15.41-7.269 0-17.117-4.846-17.117-15.41v-51.951c0-7.657-1.357-14.655-7.715-14.655-6.377 0-7.734 6.785-7.734 14.635v102.371c0 39.835 41.192 50.632 41.192 78.798v251.189c0 13.68 4.362 21.36 15.76 21.36 11.378 0 17.872-6.77 17.872-20.45V800.21c0-29.173 41.483-38.652 41.483-78.798v-50.4l-1.512-51.99c-.387-7.618-.484-14.616-8.025-14.616"/>
    <path fill="url(#av)" d="M924.763 604.387c-7.521 0-8.607 6.998-8.607 14.635v51.971c0 12.406-9.402 15.41-15.314 15.41-5.893 0-16.496-3.334-16.496-15.41v-51.951c0-7.657-1.066-14.655-7.424-14.655-6.359 0-7.871 6.785-7.871 14.616v51.99c0 8.432-8.626 15.41-18.473 15.41-7.269 0-17.117-4.846-17.117-15.41v-51.951c0-7.657-1.357-14.655-7.715-14.655-6.377 0-7.734 6.785-7.734 14.635v102.371c0 39.835 41.192 50.632 41.192 78.798v251.189c0 13.68 4.362 21.36 15.76 21.36 11.378 0 17.872-6.77 17.872-20.45V800.21c0-29.173 41.483-38.652 41.483-78.798v-50.4l-1.512-51.99c-.387-7.618-.484-14.616-8.025-14.616"/>
  </g>
  <g filter="url(#aw)">
    <path stroke="#C3BDCF" stroke-linecap="round" stroke-width="21.154" d="M889.793 798.931v252.599"/>
  </g>
  <g filter="url(#ax)">
    <path fill="url(#ay)" d="M835.206 611.676a3.873 3.873 0 0 0-3.877-3.877 3.876 3.876 0 0 0-3.877 3.877h7.754Zm13.24 81.473h3.877v-7.754h-3.877v7.754Zm-20.994-81.473v54.277h7.754v-54.277h-7.754Zm0 54.277c0 3.334.853 9.769 3.683 15.546 2.889 5.854 8.258 11.65 17.311 11.65v-7.754c-5.002 0-8.2-2.966-10.352-7.327-2.19-4.459-2.888-9.692-2.888-12.115h-7.754Z"/>
  </g>
  <g filter="url(#az)">
    <path fill="url(#aA)" d="M884.889 611.676a3.878 3.878 0 0 0-7.754 0h7.754Zm13.239 81.473h3.877v-7.754h-3.877v7.754Zm-20.993-81.473v54.277h7.754v-54.277h-7.754Zm0 54.277c0 3.334.833 9.769 3.683 15.546 2.908 5.854 8.238 11.65 17.31 11.65v-7.754c-5.02 0-8.219-2.966-10.37-7.327-2.191-4.459-2.869-9.692-2.869-12.115h-7.754Z"/>
  </g>
  <g filter="url(#aB)">
    <path stroke="#C3BDCF" stroke-linecap="round" stroke-width="16.923" d="M932.207 610.532V719.57c0 16.671-19.695 41.193-28.786 49.683"/>
  </g>
  <g filter="url(#aC)">
    <path fill="#E0DCE8" d="M829.836 613.188a5.002 5.002 0 1 0 0-10.003 5.002 5.002 0 0 0 0 10.003Z"/>
  </g>
  <g filter="url(#aD)">
    <path fill="#E0DCE8" d="M880.566 613.188a5.001 5.001 0 1 0 0-10.002 5.001 5.001 0 0 0 0 10.002Z"/>
  </g>
  <g filter="url(#aE)">
    <path fill="#E0DCE8" d="M929.319 613.188a5.001 5.001 0 1 0 0-10.002 5.001 5.001 0 0 0 0 10.002Z"/>
  </g>
  <defs>
    <linearGradient id="a" x1="792.137" x2="489.637" y1="1459.91" y2="1459.91" gradientUnits="userSpaceOnUse">
      <stop stop-color="#C15953"/>
      <stop offset="1" stop-color="#C15953" stop-opacity="0"/>
    </linearGradient>
    <linearGradient id="b" x1="489.637" x2="489.637" y1="779.212" y2="953.769" gradientUnits="userSpaceOnUse">
      <stop stop-color="#C15953"/>
      <stop offset="1" stop-color="#C15953" stop-opacity="0"/>
    </linearGradient>
    <linearGradient id="c" x1="198.206" x2="275.894" y1="1443.48" y2="1443.48" gradientUnits="userSpaceOnUse">
      <stop stop-color="#BE8A79"/>
      <stop offset="1" stop-color="#BE8A79" stop-opacity="0"/>
    </linearGradient>
    <linearGradient id="d" x1="1542.89" x2="1542.89" y1="675.812" y2="1539.59" gradientUnits="userSpaceOnUse">
      <stop stop-color="#FD937F"/>
      <stop offset="1" stop-color="#FFB39C"/>
    </linearGradient>
    <linearGradient id="e" x1="1985.71" x2="1828.68" y1="1360.22" y2="1360.22" gradientUnits="userSpaceOnUse">
      <stop stop-color="#FFD2AD"/>
      <stop offset="1" stop-color="#FFD2AD" stop-opacity="0"/>
    </linearGradient>
    <linearGradient id="f" x1="2011.28" x2="1963.43" y1="1396.38" y2="1396.38" gradientUnits="userSpaceOnUse">
      <stop stop-color="#FFAE98"/>
      <stop offset="1" stop-color="#FFAE98" stop-opacity="0"/>
    </linearGradient>
    <linearGradient id="i" x1="1088.86" x2="1088.86" y1="773.231" y2="2044.63" gradientUnits="userSpaceOnUse">
      <stop stop-color="#FFB193"/>
      <stop offset="1" stop-color="#FFD2AE"/>
    </linearGradient>
    <linearGradient id="j" x1="706.199" x2="930.462" y1="1711.6" y2="1711.6" gradientUnits="userSpaceOnUse">
      <stop stop-color="#CD897B"/>
      <stop offset="1" stop-color="#CD897B" stop-opacity="0"/>
    </linearGradient>
    <linearGradient id="k" x1="1494.69" x2="1315.19" y1="1260.67" y2="1260.67" gradientUnits="userSpaceOnUse">
      <stop stop-color="#FFCFAA"/>
      <stop offset="1" stop-color="#FFCFAA" stop-opacity="0"/>
    </linearGradient>
    <linearGradient id="m" x1="348.699" x2="520.437" y1="1220.31" y2="944.9" gradientUnits="userSpaceOnUse">
      <stop stop-color="#47CAFF"/>
      <stop offset="1" stop-color="#3892E6"/>
    </linearGradient>
    <linearGradient id="n" x1="337.837" x2="394.006" y1="1082.81" y2="1082.81" gradientUnits="userSpaceOnUse">
      <stop stop-color="#5ADFFF"/>
      <stop offset=".909" stop-color="#5ADFFF" stop-opacity="0"/>
    </linearGradient>
    <linearGradient id="p" x1="348.699" x2="520.437" y1="1701.56" y2="1426.15" gradientUnits="userSpaceOnUse">
      <stop stop-color="#47CAFF"/>
      <stop offset="1" stop-color="#3892E6"/>
    </linearGradient>
    <linearGradient id="q" x1="337.837" x2="394.006" y1="1564.06" y2="1564.06" gradientUnits="userSpaceOnUse">
      <stop stop-color="#5ADFFF"/>
      <stop offset=".909" stop-color="#5ADFFF" stop-opacity="0"/>
    </linearGradient>
    <linearGradient id="s" x1="1654.95" x2="1826.69" y1="1220.31" y2="944.9" gradientUnits="userSpaceOnUse">
      <stop stop-color="#47CAFF"/>
      <stop offset="1" stop-color="#3892E6"/>
    </linearGradient>
    <linearGradient id="t" x1="1644.09" x2="1700.26" y1="1082.81" y2="1082.81" gradientUnits="userSpaceOnUse">
      <stop stop-color="#5ADFFF"/>
      <stop offset=".909" stop-color="#5ADFFF" stop-opacity="0"/>
    </linearGradient>
    <linearGradient id="v" x1="1654.95" x2="1826.69" y1="1701.56" y2="1426.15" gradientUnits="userSpaceOnUse">
      <stop stop-color="#47CAFF"/>
      <stop offset="1" stop-color="#3892E6"/>
    </linearGradient>
    <linearGradient id="w" x1="1644.09" x2="1700.26" y1="1564.06" y2="1564.06" gradientUnits="userSpaceOnUse">
      <stop stop-color="#5ADFFF"/>
      <stop offset=".909" stop-color="#5ADFFF" stop-opacity="0"/>
    </linearGradient>
    <linearGradient id="x" x1="1094.09" x2="1094.09" y1="1479.98" y2="2073.57" gradientUnits="userSpaceOnUse">
      <stop stop-color="#DB946D"/>
      <stop offset="1" stop-color="#FFCCAD"/>
    </linearGradient>
    <linearGradient id="y" x1="787.943" x2="833.662" y1="1792.17" y2="1792.17" gradientUnits="userSpaceOnUse">
      <stop stop-color="#A57364"/>
      <stop offset="1" stop-color="#A57364" stop-opacity="0"/>
    </linearGradient>
    <linearGradient id="D" x1="1094.09" x2="1094.09" y1="1481.08" y2="1552.99" gradientUnits="userSpaceOnUse">
      <stop stop-color="#A43D3B"/>
      <stop offset="1" stop-color="#A43D3B" stop-opacity="0"/>
    </linearGradient>
    <linearGradient id="F" x1="956.449" x2="956.449" y1="1435.16" y2="1948.31" gradientUnits="userSpaceOnUse">
      <stop stop-color="#348FE8"/>
      <stop offset="1" stop-color="#36A1FE"/>
    </linearGradient>
    <linearGradient id="H" x1="1231.59" x2="1231.59" y1="1435.16" y2="1948.31" gradientUnits="userSpaceOnUse">
      <stop stop-color="#348FE8"/>
      <stop offset="1" stop-color="#36A1FE"/>
    </linearGradient>
    <linearGradient id="L" x1="1093.4" x2="1093.4" y1="1221.69" y2="1493.94" gradientUnits="userSpaceOnUse">
      <stop stop-color="#E33981"/>
      <stop offset="1" stop-color="#EA2653"/>
    </linearGradient>
    <linearGradient id="V" x1="1069.9" x2="1094.2" y1="613.188" y2="1039.57" gradientUnits="userSpaceOnUse">
      <stop offset=".115" stop-color="#BCBBC4"/>
      <stop offset=".228" stop-color="#8F8D9B"/>
      <stop offset=".689" stop-color="#A8A0BC"/>
      <stop offset=".766" stop-color="#BFA1E2"/>
    </linearGradient>
    <linearGradient id="af" x1="1351.81" x2="1255.68" y1="730.484" y2="730.484" gradientUnits="userSpaceOnUse">
      <stop stop-color="#C4C2CB"/>
      <stop offset=".036" stop-color="#CFC9D9"/>
      <stop offset=".515" stop-color="#B9B1C7"/>
      <stop offset="1" stop-color="#A398B4"/>
    </linearGradient>
    <linearGradient id="ak" x1="1303.75" x2="1303.75" y1="613.188" y2="833.533" gradientUnits="userSpaceOnUse">
      <stop stop-color="#C1B6D0"/>
      <stop offset=".818" stop-color="#B4A9C5"/>
    </linearGradient>
    <linearGradient id="al" x1="1300.59" x2="1351.81" y1="975.215" y2="975.215" gradientUnits="userSpaceOnUse">
      <stop stop-color="#7E748E"/>
      <stop offset=".359" stop-color="#A69BB8"/>
      <stop offset=".734" stop-color="#CBC4D9"/>
      <stop offset="1" stop-color="#C4C1CC"/>
    </linearGradient>
    <linearGradient id="an" x1="1326.2" x2="1326.2" y1="850.727" y2="854.662" gradientUnits="userSpaceOnUse">
      <stop stop-color="#8E80A3"/>
      <stop offset="1" stop-color="#8D80A2" stop-opacity="0"/>
    </linearGradient>
    <linearGradient id="ao" x1="809.23" x2="978.846" y1="651.724" y2="689.292" gradientUnits="userSpaceOnUse">
      <stop stop-color="#8B8893"/>
      <stop offset=".59" stop-color="#938DA0"/>
      <stop offset=".839" stop-color="#AFA3C1"/>
      <stop offset="1" stop-color="#ACA0C0"/>
    </linearGradient>
    <linearGradient id="au" x1="856.49" x2="876.166" y1="614.176" y2="1072.74" gradientUnits="userSpaceOnUse">
      <stop offset=".143" stop-color="#B4AAC2"/>
      <stop offset="1" stop-color="#B5A9C8"/>
    </linearGradient>
    <linearGradient id="ay" x1="835.284" x2="866.183" y1="617.2" y2="702.008" gradientUnits="userSpaceOnUse">
      <stop offset=".412" stop-color="#C0B9CC"/>
      <stop offset="1" stop-color="#C0B9CC" stop-opacity="0"/>
    </linearGradient>
    <linearGradient id="aA" x1="884.947" x2="915.846" y1="617.2" y2="702.008" gradientUnits="userSpaceOnUse">
      <stop offset=".412" stop-color="#C0B9CC"/>
      <stop offset="1" stop-color="#C0B9CC" stop-opacity="0"/>
    </linearGradient>
    <filter id="l" width="206.5" height="275.25" x="337.587" y="945.312" color-interpolation-filters="sRGB" filterUnits="userSpaceOnUse">
      <feFlood flood-opacity="0" result="BackgroundImageFix"/>
      <feBlend in="SourceGraphic" in2="BackgroundImageFix" result="shape"/>
      <feColorMatrix in="SourceAlpha" result="hardAlpha" values="0 0 0 0 0 0 0 0 0 0 0 0 0 0 0 0 0 0 127 0"/>
      <feOffset dx="-.25" dy=".25"/>
      <feGaussianBlur stdDeviation=".375"/>
      <feComposite in2="hardAlpha" k2="-1" k3="1" operator="arithmetic"/>
      <feColorMatrix values="0 0 0 0 0.0705882 0 0 0 0 0.466667 0 0 0 0 0.815686 0 0 0 1 0"/>
      <feBlend in2="shape" result="effect1_innerShadow_95_188"/>
    </filter>
    <filter id="o" width="206.5" height="275.25" x="337.587" y="1426.56" color-interpolation-filters="sRGB" filterUnits="userSpaceOnUse">
      <feFlood flood-opacity="0" result="BackgroundImageFix"/>
      <feBlend in="SourceGraphic" in2="BackgroundImageFix" result="shape"/>
      <feColorMatrix in="SourceAlpha" result="hardAlpha" values="0 0 0 0 0 0 0 0 0 0 0 0 0 0 0 0 0 0 127 0"/>
      <feOffset dx="-.25" dy=".25"/>
      <feGaussianBlur stdDeviation=".375"/>
      <feComposite in2="hardAlpha" k2="-1" k3="1" operator="arithmetic"/>
      <feColorMatrix values="0 0 0 0 0.0705882 0 0 0 0 0.466667 0 0 0 0 0.815686 0 0 0 1 0"/>
      <feBlend in2="shape" result="effect1_innerShadow_95_188"/>
    </filter>
    <filter id="r" width="206.5" height="275.25" x="1643.84" y="945.312" color-interpolation-filters="sRGB" filterUnits="userSpaceOnUse">
      <feFlood flood-opacity="0" result="BackgroundImageFix"/>
      <feBlend in="SourceGraphic" in2="BackgroundImageFix" result="shape"/>
      <feColorMatrix in="SourceAlpha" result="hardAlpha" values="0 0 0 0 0 0 0 0 0 0 0 0 0 0 0 0 0 0 127 0"/>
      <feOffset dx="-.25" dy=".25"/>
      <feGaussianBlur stdDeviation=".375"/>
      <feComposite in2="hardAlpha" k2="-1" k3="1" operator="arithmetic"/>
      <feColorMatrix values="0 0 0 0 0.0705882 0 0 0 0 0.466667 0 0 0 0 0.815686 0 0 0 1 0"/>
      <feBlend in2="shape" result="effect1_innerShadow_95_188"/>
    </filter>
    <filter id="u" width="206.5" height="275.25" x="1643.84" y="1426.56" color-interpolation-filters="sRGB" filterUnits="userSpaceOnUse">
      <feFlood flood-opacity="0" result="BackgroundImageFix"/>
      <feBlend in="SourceGraphic" in2="BackgroundImageFix" result="shape"/>
      <feColorMatrix in="SourceAlpha" result="hardAlpha" values="0 0 0 0 0 0 0 0 0 0 0 0 0 0 0 0 0 0 127 0"/>
      <feOffset dx="-.25" dy=".25"/>
      <feGaussianBlur stdDeviation=".375"/>
      <feComposite in2="hardAlpha" k2="-1" k3="1" operator="arithmetic"/>
      <feColorMatrix values="0 0 0 0 0.0705882 0 0 0 0 0.466667 0 0 0 0 0.815686 0 0 0 1 0"/>
      <feBlend in2="shape" result="effect1_innerShadow_95_188"/>
    </filter>
    <filter id="C" width="584.55" height="140.681" x="801.812" y="1392.37" color-interpolation-filters="sRGB" filterUnits="userSpaceOnUse">
      <feFlood flood-opacity="0" result="BackgroundImageFix"/>
      <feBlend in="SourceGraphic" in2="BackgroundImageFix" result="shape"/>
      <feGaussianBlur result="effect1_foregroundBlur_95_188" stdDeviation=".25"/>
    </filter>
    <filter id="E" width="205.787" height="590.494" x="853.506" y="1357.81" color-interpolation-filters="sRGB" filterUnits="userSpaceOnUse">
      <feFlood flood-opacity="0" result="BackgroundImageFix"/>
      <feBlend in="SourceGraphic" in2="BackgroundImageFix" result="shape"/>
      <feColorMatrix in="SourceAlpha" result="hardAlpha" values="0 0 0 0 0 0 0 0 0 0 0 0 0 0 0 0 0 0 127 0"/>
      <feOffset dx="-.3"/>
      <feGaussianBlur stdDeviation=".15"/>
      <feComposite in2="hardAlpha" k2="-1" k3="1" operator="arithmetic"/>
      <feColorMatrix values="0 0 0 0 0.0745098 0 0 0 0 0.466667 0 0 0 0 0.827451 0 0 0 1 0"/>
      <feBlend in2="shape" result="effect1_innerShadow_95_188"/>
      <feColorMatrix in="SourceAlpha" result="hardAlpha" values="0 0 0 0 0 0 0 0 0 0 0 0 0 0 0 0 0 0 127 0"/>
      <feOffset dx=".2"/>
      <feGaussianBlur stdDeviation=".1"/>
      <feComposite in2="hardAlpha" k2="-1" k3="1" operator="arithmetic"/>
      <feColorMatrix values="0 0 0 0 0.270588 0 0 0 0 0.682353 0 0 0 0 1 0 0 0 1 0"/>
      <feBlend in2="effect1_innerShadow_95_188" result="effect2_innerShadow_95_188"/>
    </filter>
    <filter id="G" width="205.787" height="590.494" x="1128.64" y="1357.81" color-interpolation-filters="sRGB" filterUnits="userSpaceOnUse">
      <feFlood flood-opacity="0" result="BackgroundImageFix"/>
      <feBlend in="SourceGraphic" in2="BackgroundImageFix" result="shape"/>
      <feColorMatrix in="SourceAlpha" result="hardAlpha" values="0 0 0 0 0 0 0 0 0 0 0 0 0 0 0 0 0 0 127 0"/>
      <feOffset dx="-.3"/>
      <feGaussianBlur stdDeviation=".15"/>
      <feComposite in2="hardAlpha" k2="-1" k3="1" operator="arithmetic"/>
      <feColorMatrix values="0 0 0 0 0.0745098 0 0 0 0 0.466667 0 0 0 0 0.827451 0 0 0 1 0"/>
      <feBlend in2="shape" result="effect1_innerShadow_95_188"/>
      <feColorMatrix in="SourceAlpha" result="hardAlpha" values="0 0 0 0 0 0 0 0 0 0 0 0 0 0 0 0 0 0 127 0"/>
      <feOffset dx=".2"/>
      <feGaussianBlur stdDeviation=".1"/>
      <feComposite in2="hardAlpha" k2="-1" k3="1" operator="arithmetic"/>
      <feColorMatrix values="0 0 0 0 0.270588 0 0 0 0 0.682353 0 0 0 0 1 0 0 0 1 0"/>
      <feBlend in2="effect1_innerShadow_95_188" result="effect2_innerShadow_95_188"/>
    </filter>
    <filter id="I" width="189.1" height="129.081" x="1137.04" y="1386.87" color-interpolation-filters="sRGB" filterUnits="userSpaceOnUse">
      <feFlood flood-opacity="0" result="BackgroundImageFix"/>
      <feBlend in="SourceGraphic" in2="BackgroundImageFix" result="shape"/>
      <feGaussianBlur result="effect1_foregroundBlur_95_188" stdDeviation=".25"/>
    </filter>
    <filter id="J" width="189.031" height="129.081" x="861.899" y="1386.87" color-interpolation-filters="sRGB" filterUnits="userSpaceOnUse">
      <feFlood flood-opacity="0" result="BackgroundImageFix"/>
      <feBlend in="SourceGraphic" in2="BackgroundImageFix" result="shape"/>
      <feGaussianBlur result="effect1_foregroundBlur_95_188" stdDeviation=".25"/>
    </filter>
    <filter id="K" width="756.652" height="272.6" x="715.274" y="1221.54" color-interpolation-filters="sRGB" filterUnits="userSpaceOnUse">
      <feFlood flood-opacity="0" result="BackgroundImageFix"/>
      <feBlend in="SourceGraphic" in2="BackgroundImageFix" result="shape"/>
      <feColorMatrix in="SourceAlpha" result="hardAlpha" values="0 0 0 0 0 0 0 0 0 0 0 0 0 0 0 0 0 0 127 0"/>
      <feOffset dx=".25" dy="-.15"/>
      <feGaussianBlur stdDeviation=".2"/>
      <feComposite in2="hardAlpha" k2="-1" k3="1" operator="arithmetic"/>
      <feColorMatrix values="0 0 0 0 0.737255 0 0 0 0 0.172549 0 0 0 0 0.254902 0 0 0 1 0"/>
      <feBlend in2="shape" result="effect1_innerShadow_95_188"/>
      <feColorMatrix in="SourceAlpha" result="hardAlpha" values="0 0 0 0 0 0 0 0 0 0 0 0 0 0 0 0 0 0 127 0"/>
      <feOffset dx=".25" dy=".2"/>
      <feGaussianBlur stdDeviation=".25"/>
      <feComposite in2="hardAlpha" k2="-1" k3="1" operator="arithmetic"/>
      <feColorMatrix values="0 0 0 0 0.737255 0 0 0 0 0.172549 0 0 0 0 0.254902 0 0 0 1 0"/>
      <feBlend in2="effect1_innerShadow_95_188" result="effect2_innerShadow_95_188"/>
    </filter>
    <filter id="M" width="786.231" height="590.5" x="695.438" y="187.375" color-interpolation-filters="sRGB" filterUnits="userSpaceOnUse">
      <feFlood flood-opacity="0" result="BackgroundImageFix"/>
      <feBlend in="SourceGraphic" in2="BackgroundImageFix" result="shape"/>
      <feGaussianBlur result="effect1_foregroundBlur_95_188" stdDeviation=".5"/>
    </filter>
    <filter id="N" width="815.062" height="589.219" x="680.987" y="166.05" color-interpolation-filters="sRGB" filterUnits="userSpaceOnUse">
      <feFlood flood-opacity="0" result="BackgroundImageFix"/>
      <feBlend in="SourceGraphic" in2="BackgroundImageFix" result="shape"/>
      <feGaussianBlur result="effect1_foregroundBlur_95_188" stdDeviation=".3"/>
    </filter>
    <filter id="O" width="1924.4" height="685.169" x="126.912" y="123.044" color-interpolation-filters="sRGB" filterUnits="userSpaceOnUse">
      <feFlood flood-opacity="0" result="BackgroundImageFix"/>
      <feBlend in="SourceGraphic" in2="BackgroundImageFix" result="shape"/>
      <feColorMatrix in="SourceAlpha" result="hardAlpha" values="0 0 0 0 0 0 0 0 0 0 0 0 0 0 0 0 0 0 127 0"/>
      <feOffset dx=".5" dy="-.5"/>
      <feGaussianBlur stdDeviation=".25"/>
      <feComposite in2="hardAlpha" k2="-1" k3="1" operator="arithmetic"/>
      <feColorMatrix values="0 0 0 0 0.772549 0 0 0 0 0.141176 0 0 0 0 0.243137 0 0 0 1 0"/>
      <feBlend in2="shape" result="effect1_innerShadow_95_188"/>
      <feColorMatrix in="SourceAlpha" result="hardAlpha" values="0 0 0 0 0 0 0 0 0 0 0 0 0 0 0 0 0 0 127 0"/>
      <feOffset dx=".5" dy=".4"/>
      <feGaussianBlur stdDeviation=".375"/>
      <feComposite in2="hardAlpha" k2="-1" k3="1" operator="arithmetic"/>
      <feColorMatrix values="0 0 0 0 0.65098 0 0 0 0 0.2 0 0 0 0 0.294118 0 0 0 1 0"/>
      <feBlend in2="effect1_innerShadow_95_188" result="effect2_innerShadow_95_188"/>
    </filter>
    <filter id="R" width="277.95" height="188.781" x="1157.1" y="1259.67" color-interpolation-filters="sRGB" filterUnits="userSpaceOnUse">
      <feFlood flood-opacity="0" result="BackgroundImageFix"/>
      <feBlend in="SourceGraphic" in2="BackgroundImageFix" result="shape"/>
      <feGaussianBlur result="effect1_foregroundBlur_95_188" stdDeviation=".125"/>
    </filter>
    <filter id="T" width="663.706" height="416.389" x="869.862" y="184.311" color-interpolation-filters="sRGB" filterUnits="userSpaceOnUse">
      <feFlood flood-opacity="0" result="BackgroundImageFix"/>
      <feBlend in="SourceGraphic" in2="BackgroundImageFix" result="shape"/>
      <feGaussianBlur result="effect1_foregroundBlur_95_188" stdDeviation=".4"/>
    </filter>
    <filter id="X" width="455.976" height="455.975" x="866.701" y="597.907" color-interpolation-filters="sRGB" filterUnits="userSpaceOnUse">
      <feFlood flood-opacity="0" result="BackgroundImageFix"/>
      <feBlend in="SourceGraphic" in2="BackgroundImageFix" result="shape"/>
      <feGaussianBlur result="effect1_foregroundBlur_95_188" stdDeviation="10.577"/>
    </filter>
    <filter id="Z" width="204.964" height="110.762" x="1063.17" y="605.411" color-interpolation-filters="sRGB" filterUnits="userSpaceOnUse">
      <feFlood flood-opacity="0" result="BackgroundImageFix"/>
      <feBlend in="SourceGraphic" in2="BackgroundImageFix" result="shape"/>
      <feGaussianBlur result="effect1_foregroundBlur_95_188" stdDeviation="6.346"/>
    </filter>
    <filter id="ae" width="168.9" height="259.678" x="1204.2" y="658.498" color-interpolation-filters="sRGB" filterUnits="userSpaceOnUse">
      <feFlood flood-opacity="0" result="BackgroundImageFix"/>
      <feBlend in="SourceGraphic" in2="BackgroundImageFix" result="shape"/>
      <feGaussianBlur result="effect1_foregroundBlur_95_188" stdDeviation="21.154"/>
    </filter>
    <filter id="aj" width="107.034" height="262.672" x="1250.22" y="592.034" color-interpolation-filters="sRGB" filterUnits="userSpaceOnUse">
      <feFlood flood-opacity="0" result="BackgroundImageFix"/>
      <feBlend in="SourceGraphic" in2="BackgroundImageFix" result="shape"/>
      <feGaussianBlur result="effect1_foregroundBlur_95_188" stdDeviation="10.577"/>
    </filter>
    <filter id="at" width="179.769" height="531.813" x="786.281" y="572.656" color-interpolation-filters="sRGB" filterUnits="userSpaceOnUse">
      <feFlood flood-opacity="0" result="BackgroundImageFix"/>
      <feBlend in="SourceGraphic" in2="BackgroundImageFix" result="shape"/>
      <feGaussianBlur result="effect1_foregroundBlur_95_188" stdDeviation="15.865"/>
    </filter>
    <filter id="aw" width="63.462" height="316.063" x="858.062" y="767.2" color-interpolation-filters="sRGB" filterUnits="userSpaceOnUse">
      <feFlood flood-opacity="0" result="BackgroundImageFix"/>
      <feBlend in="SourceGraphic" in2="BackgroundImageFix" result="shape"/>
      <feGaussianBlur result="effect1_foregroundBlur_95_188" stdDeviation="10.577"/>
    </filter>
    <filter id="ax" width="46.024" height="106.504" x="816.875" y="597.222" color-interpolation-filters="sRGB" filterUnits="userSpaceOnUse">
      <feFlood flood-opacity="0" result="BackgroundImageFix"/>
      <feBlend in="SourceGraphic" in2="BackgroundImageFix" result="shape"/>
      <feGaussianBlur result="effect1_foregroundBlur_95_188" stdDeviation="5.288"/>
    </filter>
    <filter id="az" width="46.024" height="106.504" x="866.558" y="597.222" color-interpolation-filters="sRGB" filterUnits="userSpaceOnUse">
      <feFlood flood-opacity="0" result="BackgroundImageFix"/>
      <feBlend in="SourceGraphic" in2="BackgroundImageFix" result="shape"/>
      <feGaussianBlur result="effect1_foregroundBlur_95_188" stdDeviation="5.288"/>
    </filter>
    <filter id="aB" width="88.018" height="217.952" x="873.805" y="580.917" color-interpolation-filters="sRGB" filterUnits="userSpaceOnUse">
      <feFlood flood-opacity="0" result="BackgroundImageFix"/>
      <feBlend in="SourceGraphic" in2="BackgroundImageFix" result="shape"/>
      <feGaussianBlur result="effect1_foregroundBlur_95_188" stdDeviation="10.577"/>
    </filter>
    <filter id="aC" width="52.311" height="52.31" x="803.681" y="582.031" color-interpolation-filters="sRGB" filterUnits="userSpaceOnUse">
      <feFlood flood-opacity="0" result="BackgroundImageFix"/>
      <feBlend in="SourceGraphic" in2="BackgroundImageFix" result="shape"/>
      <feGaussianBlur result="effect1_foregroundBlur_95_188" stdDeviation="10.577"/>
    </filter>
    <filter id="aD" width="52.311" height="52.31" x="854.411" y="582.031" color-interpolation-filters="sRGB" filterUnits="userSpaceOnUse">
      <feFlood flood-opacity="0" result="BackgroundImageFix"/>
      <feBlend in="SourceGraphic" in2="BackgroundImageFix" result="shape"/>
      <feGaussianBlur result="effect1_foregroundBlur_95_188" stdDeviation="10.577"/>
    </filter>
    <filter id="aE" width="52.31" height="52.31" x="903.164" y="582.031" color-interpolation-filters="sRGB" filterUnits="userSpaceOnUse">
      <feFlood flood-opacity="0" result="BackgroundImageFix"/>
      <feBlend in="SourceGraphic" in2="BackgroundImageFix" result="shape"/>
      <feGaussianBlur result="effect1_foregroundBlur_95_188" stdDeviation="10.577"/>
    </filter>
    <radialGradient id="g" cx="0" cy="0" r="1" gradientTransform="rotate(147.475 708.81 585.68) scale(727.224 348.276)" gradientUnits="userSpaceOnUse">
      <stop offset=".1" stop-color="#C25251"/>
      <stop offset="1" stop-color="#C25251" stop-opacity="0"/>
    </radialGradient>
    <radialGradient id="h" cx="0" cy="0" r="1" gradientTransform="matrix(-184.76592 73.04585 -24.72465 -62.5398 1985.71 765.875)" gradientUnits="userSpaceOnUse">
      <stop offset=".178" stop-color="#B56057"/>
      <stop offset=".988" stop-color="#B56057" stop-opacity="0"/>
    </radialGradient>
    <radialGradient id="z" cx="0" cy="0" r="1" gradientTransform="matrix(74.67141 159.12362 -146.83265 68.90367 787.875 1449.11)" gradientUnits="userSpaceOnUse">
      <stop stop-color="#A85540"/>
      <stop offset="1" stop-color="#A85540" stop-opacity="0"/>
    </radialGradient>
    <radialGradient id="A" cx="0" cy="0" r="1" gradientTransform="matrix(23.06537 38.23137 -70.11955 42.30383 1377.203 1466.724)" gradientUnits="userSpaceOnUse">
      <stop stop-color="#A85540"/>
      <stop offset="1" stop-color="#A85540" stop-opacity="0"/>
    </radialGradient>
    <radialGradient id="B" cx="0" cy="0" r="1" gradientTransform="matrix(0 -510.435 56.3633 0 1400.23 2098.04)" gradientUnits="userSpaceOnUse">
      <stop stop-color="#FFF1C0"/>
      <stop offset="1" stop-color="#FFF1C0" stop-opacity="0"/>
    </radialGradient>
    <radialGradient id="P" cx="0" cy="0" r="1" gradientTransform="rotate(105.556 572.483 563.064) scale(669.705 1882.95)" gradientUnits="userSpaceOnUse">
      <stop stop-color="#DB377F"/>
      <stop offset="1" stop-color="#EE3455"/>
    </radialGradient>
    <radialGradient id="Q" cx="0" cy="0" r="1" gradientTransform="rotate(153.801 952.838 550.46) scale(192.388 480.039)" gradientUnits="userSpaceOnUse">
      <stop stop-color="#FF5371"/>
      <stop offset="1" stop-color="#FF5371" stop-opacity="0"/>
    </radialGradient>
    <radialGradient id="S" cx="0" cy="0" r="1" gradientTransform="rotate(117.613 266.338 1053.116) scale(78.7999 197.277)" gradientUnits="userSpaceOnUse">
      <stop stop-color="#F33C7F"/>
      <stop offset="1" stop-color="#F33C7F" stop-opacity="0"/>
    </radialGradient>
    <radialGradient id="U" cx="0" cy="0" r="1" gradientTransform="matrix(-212.34452 188.07809 -303.8764 -343.08348 1420.17 232.375)" gradientUnits="userSpaceOnUse">
      <stop stop-color="#ED4383"/>
      <stop offset="1" stop-color="#FF4C76" stop-opacity="0"/>
    </radialGradient>
    <radialGradient id="W" cx="0" cy="0" r="1" gradientTransform="rotate(115.805 395.085 700.327) scale(118.348 188.254)" gradientUnits="userSpaceOnUse">
      <stop stop-color="#DADAE0"/>
      <stop offset="1" stop-color="#D7D6DE" stop-opacity="0"/>
    </radialGradient>
    <radialGradient id="Y" cx="0" cy="0" r="1" gradientTransform="rotate(-42.333 1683.008 -746.064) scale(313.031 313.029)" gradientUnits="userSpaceOnUse">
      <stop stop-color="#EAE0FD"/>
      <stop offset="1" stop-color="#E7DDF9" stop-opacity="0"/>
    </radialGradient>
    <radialGradient id="aa" cx="0" cy="0" r="1" gradientTransform="rotate(114.444 382.138 702.368) scale(69.9845 131.007)" gradientUnits="userSpaceOnUse">
      <stop stop-color="#E5E3EF"/>
      <stop offset="1" stop-color="#E5E3EF" stop-opacity="0"/>
    </radialGradient>
    <radialGradient id="ab" cx="0" cy="0" r="1" gradientTransform="rotate(82.997 52.068 1031.878) scale(199.361 228.304)" gradientUnits="userSpaceOnUse">
      <stop offset=".596" stop-color="#DACEF3"/>
      <stop offset=".754" stop-color="#CCB9EB"/>
      <stop offset=".962" stop-color="#BCA7DC"/>
    </radialGradient>
    <radialGradient id="ac" cx="0" cy="0" r="1" gradientTransform="matrix(-285.68743 221.29059 -211.2116 -272.6754 1168.26 723.249)" gradientUnits="userSpaceOnUse">
      <stop offset=".477" stop-color="#DACEF3" stop-opacity="0"/>
      <stop offset=".694" stop-color="#E9E2FD"/>
      <stop offset=".816" stop-color="#EBE8FB"/>
      <stop offset=".962" stop-color="#EAE7F9"/>
    </radialGradient>
    <radialGradient id="ad" cx="0" cy="0" r="1" gradientTransform="rotate(56.149 -187.752 1315.102) scale(346.818 397.171)" gradientUnits="userSpaceOnUse">
      <stop offset=".537" stop-color="#DACEF3" stop-opacity="0"/>
      <stop offset=".754" stop-color="#B9B5CA"/>
      <stop offset=".962" stop-color="#B2AEC4"/>
    </radialGradient>
    <radialGradient id="ag" cx="0" cy="0" r="1" gradientTransform="rotate(18.435 -1961.102 4380.989) scale(80.4557 41.4109)" gradientUnits="userSpaceOnUse">
      <stop stop-color="#9B89B3"/>
      <stop offset="1" stop-color="#A28EBB" stop-opacity="0"/>
    </radialGradient>
    <radialGradient id="ah" cx="0" cy="0" r="1" gradientTransform="rotate(47.386 -56.982 1741.958) scale(41.1567 161.29)" gradientUnits="userSpaceOnUse">
      <stop stop-color="#94929A"/>
      <stop offset=".799" stop-color="#A29EAB" stop-opacity="0"/>
    </radialGradient>
    <radialGradient id="ai" cx="0" cy="0" r="1" gradientTransform="rotate(136.219 544.62 579.374) scale(20.1367 31.4847)" gradientUnits="userSpaceOnUse">
      <stop stop-color="#D7D2E0"/>
      <stop offset="1" stop-color="#E1DEE8" stop-opacity="0"/>
    </radialGradient>
    <radialGradient id="am" cx="0" cy="0" r="1" gradientTransform="matrix(0 43.161 -126.939 0 1326.2 1078.03)" gradientUnits="userSpaceOnUse">
      <stop stop-color="#8B72A8"/>
      <stop offset=".733" stop-color="#AE9AC8" stop-opacity="0"/>
    </radialGradient>
    <radialGradient id="ap" cx="0" cy="0" r="1" gradientTransform="rotate(41.424 -380.72 1404.591) scale(13.7338 16.7756)" gradientUnits="userSpaceOnUse">
      <stop stop-color="#C9C7D0"/>
      <stop offset="1" stop-color="#CDCAD5" stop-opacity="0"/>
    </radialGradient>
    <radialGradient id="aq" cx="0" cy="0" r="1" gradientTransform="rotate(39.207 -400.986 1538.908) scale(14.8536 18.1437)" gradientUnits="userSpaceOnUse">
      <stop stop-color="#C9C7D0"/>
      <stop offset="1" stop-color="#CDCAD5" stop-opacity="0"/>
    </radialGradient>
    <radialGradient id="ar" cx="0" cy="0" r="1" gradientTransform="matrix(8.78358 9.99532 -12.20917 10.72904 933.098 599.638)" gradientUnits="userSpaceOnUse">
      <stop stop-color="#C9C7D0"/>
      <stop offset="1" stop-color="#CDCAD5" stop-opacity="0"/>
    </radialGradient>
    <radialGradient id="as" cx="0" cy="0" r="1" gradientTransform="matrix(0 24.3822 -79.6587 0 875.565 1078.03)" gradientUnits="userSpaceOnUse">
      <stop stop-color="#8F78AB"/>
      <stop offset="1" stop-color="#9883B3" stop-opacity="0"/>
    </radialGradient>
    <radialGradient id="av" cx="0" cy="0" r="1" gradientTransform="matrix(0 24.2308 -182.639 0 876.166 1078.19)" gradientUnits="userSpaceOnUse">
      <stop stop-color="#8F78AB"/>
      <stop offset="1" stop-color="#A493BC" stop-opacity="0"/>
    </radialGradient>
  </defs>
</svg>
