<svg xmlns="http://www.w3.org/2000/svg" width="2200" height="2200" fill="none" viewBox="0 0 2200 2200">
  <g filter="url(#a)">
    <path fill="url(#b)" fill-rule="evenodd" d="M2101.23 1674.2c15.22-38 23.06-79.7 22.91-121.92 0-39.92-6.83-77.41-18.97-111.56h.38c-5.51-15.32-12.17-30.01-19.91-43.86l-.15-.23c-24.3-45.01-37.23-97.6-37.21-151.34v-.92c-.02-74.75-24.61-146.43-68.35-199.28-43.74-52.86-103.07-82.566-164.93-82.59-12.9 0-25.07-6.875-32.24-19.892-21.63-36.367-50.11-65.997-83.09-86.446-32.97-20.449-69.5-31.13-106.57-31.162-37.06.032-73.59 10.713-106.56 31.162-32.98 20.449-61.46 50.079-83.09 86.446-7.17 12.1-19.35 19.892-32.24 19.892-1.98 0-3.99 0-6 .092-60.81 1.911-118.6 32.441-161.05 85.088-42.46 52.64-66.22 123.24-66.23 196.74v.87c0 53.63-12.9 106.33-37.21 151.34l-.19.32c-25.13 46.11-38.5 100.12-38.46 155.33 0 44.09 8.57 84.75 22.91 121.92 2.48 6.06 3.76 12.72 3.76 19.48s-1.28 13.42-3.76 19.48c-14.96 37.49-22.79 78.55-22.91 120.17 0 152.17 101.65 275 227.59 275h606.89c125.93 0 227.59-122.83 227.59-275-.11-41.64-7.94-82.72-22.91-120.22-2.47-6.05-3.76-12.71-3.76-19.45 0-6.75 1.29-13.41 3.76-19.46Zm-867.03-228.34h-.87l84.77 201.3c8.73 239.48 86.11 0 275 0 188.9 0 271.29 266.52 280.01 27.04l80.34-273.17c-3.79-106.38-67.59-113.85-80.34-113.85h-227.66c-44.38.1-88.11-12.87-127.41-37.79-39.3-24.91-72.98-61.02-98.13-105.21-1.92-3.33-4.54-5.99-7.6-7.67-3.06-1.68-6.44-2.33-9.78-1.89-3.34.45-6.52 1.98-9.21 4.43-2.68 2.45-4.76 5.72-6.03 9.49l-5.84 16.59c-15.77 46.91-45.88 84.68-84.09 105.46-1.14.46-2.39 1.1-3.65 1.74-1.18.67-2.4 1.25-3.64 1.74-16.69 10.5-55.83 41.85-57.27 122.98l.76 26.12.64 22.69Z" clip-rule="evenodd"/>
    <path fill="url(#c)" fill-rule="evenodd" d="M2101.23 1674.2c15.22-38 23.06-79.7 22.91-121.92 0-39.92-6.83-77.41-18.97-111.56h.38c-5.51-15.32-12.17-30.01-19.91-43.86l-.15-.23c-24.3-45.01-37.23-97.6-37.21-151.34v-.92c-.02-74.75-24.61-146.43-68.35-199.28-43.74-52.86-103.07-82.566-164.93-82.59-12.9 0-25.07-6.875-32.24-19.892-21.63-36.367-50.11-65.997-83.09-86.446-32.97-20.449-69.5-31.13-106.57-31.162-37.06.032-73.59 10.713-106.56 31.162-32.98 20.449-61.46 50.079-83.09 86.446-7.17 12.1-19.35 19.892-32.24 19.892-1.98 0-3.99 0-6 .092-60.81 1.911-118.6 32.441-161.05 85.088-42.46 52.64-66.22 123.24-66.23 196.74v.87c0 53.63-12.9 106.33-37.21 151.34l-.19.32c-25.13 46.11-38.5 100.12-38.46 155.33 0 44.09 8.57 84.75 22.91 121.92 2.48 6.06 3.76 12.72 3.76 19.48s-1.28 13.42-3.76 19.48c-14.96 37.49-22.79 78.55-22.91 120.17 0 152.17 101.65 275 227.59 275h606.89c125.93 0 227.59-122.83 227.59-275-.11-41.64-7.94-82.72-22.91-120.22-2.47-6.05-3.76-12.71-3.76-19.45 0-6.75 1.29-13.41 3.76-19.46Zm-867.03-228.34h-.87l84.77 201.3c8.73 239.48 86.11 0 275 0 188.9 0 271.29 266.52 280.01 27.04l80.34-273.17c-3.79-106.38-67.59-113.85-80.34-113.85h-227.66c-44.38.1-88.11-12.87-127.41-37.79-39.3-24.91-72.98-61.02-98.13-105.21-1.92-3.33-4.54-5.99-7.6-7.67-3.06-1.68-6.44-2.33-9.78-1.89-3.34.45-6.52 1.98-9.21 4.43-2.68 2.45-4.76 5.72-6.03 9.49l-5.84 16.59c-15.77 46.91-45.88 84.68-84.09 105.46-1.14.46-2.39 1.1-3.65 1.74-1.18.67-2.4 1.25-3.64 1.74-16.69 10.5-55.83 41.85-57.27 122.98l.76 26.12.64 22.69Z" clip-rule="evenodd"/>
    <path fill="url(#d)" fill-rule="evenodd" d="M2101.23 1674.2c15.22-38 23.06-79.7 22.91-121.92 0-39.92-6.83-77.41-18.97-111.56h.38c-5.51-15.32-12.17-30.01-19.91-43.86l-.15-.23c-24.3-45.01-37.23-97.6-37.21-151.34v-.92c-.02-74.75-24.61-146.43-68.35-199.28-43.74-52.86-103.07-82.566-164.93-82.59-12.9 0-25.07-6.875-32.24-19.892-21.63-36.367-50.11-65.997-83.09-86.446-32.97-20.449-69.5-31.13-106.57-31.162-37.06.032-73.59 10.713-106.56 31.162-32.98 20.449-61.46 50.079-83.09 86.446-7.17 12.1-19.35 19.892-32.24 19.892-1.98 0-3.99 0-6 .092-60.81 1.911-118.6 32.441-161.05 85.088-42.46 52.64-66.22 123.24-66.23 196.74v.87c0 53.63-12.9 106.33-37.21 151.34l-.19.32c-25.13 46.11-38.5 100.12-38.46 155.33 0 44.09 8.57 84.75 22.91 121.92 2.48 6.06 3.76 12.72 3.76 19.48s-1.28 13.42-3.76 19.48c-14.96 37.49-22.79 78.55-22.91 120.17 0 152.17 101.65 275 227.59 275h606.89c125.93 0 227.59-122.83 227.59-275-.11-41.64-7.94-82.72-22.91-120.22-2.47-6.05-3.76-12.71-3.76-19.45 0-6.75 1.29-13.41 3.76-19.46Zm-867.03-228.34h-.87l84.77 201.3c8.73 239.48 86.11 0 275 0 188.9 0 271.29 266.52 280.01 27.04l80.34-273.17c-3.79-106.38-67.59-113.85-80.34-113.85h-227.66c-44.38.1-88.11-12.87-127.41-37.79-39.3-24.91-72.98-61.02-98.13-105.21-1.92-3.33-4.54-5.99-7.6-7.67-3.06-1.68-6.44-2.33-9.78-1.89-3.34.45-6.52 1.98-9.21 4.43-2.68 2.45-4.76 5.72-6.03 9.49l-5.84 16.59c-15.77 46.91-45.88 84.68-84.09 105.46-1.14.46-2.39 1.1-3.65 1.74-1.18.67-2.4 1.25-3.64 1.74-16.69 10.5-55.83 41.85-57.27 122.98l.76 26.12.64 22.69Z" clip-rule="evenodd"/>
    <path fill="url(#e)" fill-rule="evenodd" d="M2101.23 1674.2c15.22-38 23.06-79.7 22.91-121.92 0-39.92-6.83-77.41-18.97-111.56h.38c-5.51-15.32-12.17-30.01-19.91-43.86l-.15-.23c-24.3-45.01-37.23-97.6-37.21-151.34v-.92c-.02-74.75-24.61-146.43-68.35-199.28-43.74-52.86-103.07-82.566-164.93-82.59-12.9 0-25.07-6.875-32.24-19.892-21.63-36.367-50.11-65.997-83.09-86.446-32.97-20.449-69.5-31.13-106.57-31.162-37.06.032-73.59 10.713-106.56 31.162-32.98 20.449-61.46 50.079-83.09 86.446-7.17 12.1-19.35 19.892-32.24 19.892-1.98 0-3.99 0-6 .092-60.81 1.911-118.6 32.441-161.05 85.088-42.46 52.64-66.22 123.24-66.23 196.74v.87c0 53.63-12.9 106.33-37.21 151.34l-.19.32c-25.13 46.11-38.5 100.12-38.46 155.33 0 44.09 8.57 84.75 22.91 121.92 2.48 6.06 3.76 12.72 3.76 19.48s-1.28 13.42-3.76 19.48c-14.96 37.49-22.79 78.55-22.91 120.17 0 152.17 101.65 275 227.59 275h606.89c125.93 0 227.59-122.83 227.59-275-.11-41.64-7.94-82.72-22.91-120.22-2.47-6.05-3.76-12.71-3.76-19.45 0-6.75 1.29-13.41 3.76-19.46Zm-867.03-228.34h-.87l84.77 201.3c8.73 239.48 86.11 0 275 0 188.9 0 271.29 266.52 280.01 27.04l80.34-273.17c-3.79-106.38-67.59-113.85-80.34-113.85h-227.66c-44.38.1-88.11-12.87-127.41-37.79-39.3-24.91-72.98-61.02-98.13-105.21-1.92-3.33-4.54-5.99-7.6-7.67-3.06-1.68-6.44-2.33-9.78-1.89-3.34.45-6.52 1.98-9.21 4.43-2.68 2.45-4.76 5.72-6.03 9.49l-5.84 16.59c-15.77 46.91-45.88 84.68-84.09 105.46-1.14.46-2.39 1.1-3.65 1.74-1.18.67-2.4 1.25-3.64 1.74-16.69 10.5-55.83 41.85-57.27 122.98l.76 26.12.64 22.69Z" clip-rule="evenodd"/>
    <path fill="url(#f)" fill-rule="evenodd" d="M2101.23 1674.2c15.22-38 23.06-79.7 22.91-121.92 0-39.92-6.83-77.41-18.97-111.56h.38c-5.51-15.32-12.17-30.01-19.91-43.86l-.15-.23c-24.3-45.01-37.23-97.6-37.21-151.34v-.92c-.02-74.75-24.61-146.43-68.35-199.28-43.74-52.86-103.07-82.566-164.93-82.59-12.9 0-25.07-6.875-32.24-19.892-21.63-36.367-50.11-65.997-83.09-86.446-32.97-20.449-69.5-31.13-106.57-31.162-37.06.032-73.59 10.713-106.56 31.162-32.98 20.449-61.46 50.079-83.09 86.446-7.17 12.1-19.35 19.892-32.24 19.892-1.98 0-3.99 0-6 .092-60.81 1.911-118.6 32.441-161.05 85.088-42.46 52.64-66.22 123.24-66.23 196.74v.87c0 53.63-12.9 106.33-37.21 151.34l-.19.32c-25.13 46.11-38.5 100.12-38.46 155.33 0 44.09 8.57 84.75 22.91 121.92 2.48 6.06 3.76 12.72 3.76 19.48s-1.28 13.42-3.76 19.48c-14.96 37.49-22.79 78.55-22.91 120.17 0 152.17 101.65 275 227.59 275h606.89c125.93 0 227.59-122.83 227.59-275-.11-41.64-7.94-82.72-22.91-120.22-2.47-6.05-3.76-12.71-3.76-19.45 0-6.75 1.29-13.41 3.76-19.46Zm-867.03-228.34h-.87l84.77 201.3c8.73 239.48 86.11 0 275 0 188.9 0 271.29 266.52 280.01 27.04l80.34-273.17c-3.79-106.38-67.59-113.85-80.34-113.85h-227.66c-44.38.1-88.11-12.87-127.41-37.79-39.3-24.91-72.98-61.02-98.13-105.21-1.92-3.33-4.54-5.99-7.6-7.67-3.06-1.68-6.44-2.33-9.78-1.89-3.34.45-6.52 1.98-9.21 4.43-2.68 2.45-4.76 5.72-6.03 9.49l-5.84 16.59c-15.77 46.91-45.88 84.68-84.09 105.46-1.14.46-2.39 1.1-3.65 1.74-1.18.67-2.4 1.25-3.64 1.74-16.69 10.5-55.83 41.85-57.27 122.98l.76 26.12.64 22.69Z" clip-rule="evenodd"/>
    <path fill="url(#g)" fill-rule="evenodd" d="M2101.23 1674.2c15.22-38 23.06-79.7 22.91-121.92 0-39.92-6.83-77.41-18.97-111.56h.38c-5.51-15.32-12.17-30.01-19.91-43.86l-.15-.23c-24.3-45.01-37.23-97.6-37.21-151.34v-.92c-.02-74.75-24.61-146.43-68.35-199.28-43.74-52.86-103.07-82.566-164.93-82.59-12.9 0-25.07-6.875-32.24-19.892-21.63-36.367-50.11-65.997-83.09-86.446-32.97-20.449-69.5-31.13-106.57-31.162-37.06.032-73.59 10.713-106.56 31.162-32.98 20.449-61.46 50.079-83.09 86.446-7.17 12.1-19.35 19.892-32.24 19.892-1.98 0-3.99 0-6 .092-60.81 1.911-118.6 32.441-161.05 85.088-42.46 52.64-66.22 123.24-66.23 196.74v.87c0 53.63-12.9 106.33-37.21 151.34l-.19.32c-25.13 46.11-38.5 100.12-38.46 155.33 0 44.09 8.57 84.75 22.91 121.92 2.48 6.06 3.76 12.72 3.76 19.48s-1.28 13.42-3.76 19.48c-14.96 37.49-22.79 78.55-22.91 120.17 0 152.17 101.65 275 227.59 275h606.89c125.93 0 227.59-122.83 227.59-275-.11-41.64-7.94-82.72-22.91-120.22-2.47-6.05-3.76-12.71-3.76-19.45 0-6.75 1.29-13.41 3.76-19.46Zm-867.03-228.34h-.87l84.77 201.3c8.73 239.48 86.11 0 275 0 188.9 0 271.29 266.52 280.01 27.04l80.34-273.17c-3.79-106.38-67.59-113.85-80.34-113.85h-227.66c-44.38.1-88.11-12.87-127.41-37.79-39.3-24.91-72.98-61.02-98.13-105.21-1.92-3.33-4.54-5.99-7.6-7.67-3.06-1.68-6.44-2.33-9.78-1.89-3.34.45-6.52 1.98-9.21 4.43-2.68 2.45-4.76 5.72-6.03 9.49l-5.84 16.59c-15.77 46.91-45.88 84.68-84.09 105.46-1.14.46-2.39 1.1-3.65 1.74-1.18.67-2.4 1.25-3.64 1.74-16.69 10.5-55.83 41.85-57.27 122.98l.76 26.12.64 22.69Z" clip-rule="evenodd"/>
    <path fill="url(#h)" fill-rule="evenodd" d="M2101.23 1674.2c15.22-38 23.06-79.7 22.91-121.92 0-39.92-6.83-77.41-18.97-111.56h.38c-5.51-15.32-12.17-30.01-19.91-43.86l-.15-.23c-24.3-45.01-37.23-97.6-37.21-151.34v-.92c-.02-74.75-24.61-146.43-68.35-199.28-43.74-52.86-103.07-82.566-164.93-82.59-12.9 0-25.07-6.875-32.24-19.892-21.63-36.367-50.11-65.997-83.09-86.446-32.97-20.449-69.5-31.13-106.57-31.162-37.06.032-73.59 10.713-106.56 31.162-32.98 20.449-61.46 50.079-83.09 86.446-7.17 12.1-19.35 19.892-32.24 19.892-1.98 0-3.99 0-6 .092-60.81 1.911-118.6 32.441-161.05 85.088-42.46 52.64-66.22 123.24-66.23 196.74v.87c0 53.63-12.9 106.33-37.21 151.34l-.19.32c-25.13 46.11-38.5 100.12-38.46 155.33 0 44.09 8.57 84.75 22.91 121.92 2.48 6.06 3.76 12.72 3.76 19.48s-1.28 13.42-3.76 19.48c-14.96 37.49-22.79 78.55-22.91 120.17 0 152.17 101.65 275 227.59 275h606.89c125.93 0 227.59-122.83 227.59-275-.11-41.64-7.94-82.72-22.91-120.22-2.47-6.05-3.76-12.71-3.76-19.45 0-6.75 1.29-13.41 3.76-19.46Zm-867.03-228.34h-.87l84.77 201.3c8.73 239.48 86.11 0 275 0 188.9 0 271.29 266.52 280.01 27.04l80.34-273.17c-3.79-106.38-67.59-113.85-80.34-113.85h-227.66c-44.38.1-88.11-12.87-127.41-37.79-39.3-24.91-72.98-61.02-98.13-105.21-1.92-3.33-4.54-5.99-7.6-7.67-3.06-1.68-6.44-2.33-9.78-1.89-3.34.45-6.52 1.98-9.21 4.43-2.68 2.45-4.76 5.72-6.03 9.49l-5.84 16.59c-15.77 46.91-45.88 84.68-84.09 105.46-1.14.46-2.39 1.1-3.65 1.74-1.18.67-2.4 1.25-3.64 1.74-16.69 10.5-55.83 41.85-57.27 122.98l.76 26.12.64 22.69Z" clip-rule="evenodd"/>
    <path fill="url(#i)" fill-rule="evenodd" d="M2101.23 1674.2c15.22-38 23.06-79.7 22.91-121.92 0-39.92-6.83-77.41-18.97-111.56h.38c-5.51-15.32-12.17-30.01-19.91-43.86l-.15-.23c-24.3-45.01-37.23-97.6-37.21-151.34v-.92c-.02-74.75-24.61-146.43-68.35-199.28-43.74-52.86-103.07-82.566-164.93-82.59-12.9 0-25.07-6.875-32.24-19.892-21.63-36.367-50.11-65.997-83.09-86.446-32.97-20.449-69.5-31.13-106.57-31.162-37.06.032-73.59 10.713-106.56 31.162-32.98 20.449-61.46 50.079-83.09 86.446-7.17 12.1-19.35 19.892-32.24 19.892-1.98 0-3.99 0-6 .092-60.81 1.911-118.6 32.441-161.05 85.088-42.46 52.64-66.22 123.24-66.23 196.74v.87c0 53.63-12.9 106.33-37.21 151.34l-.19.32c-25.13 46.11-38.5 100.12-38.46 155.33 0 44.09 8.57 84.75 22.91 121.92 2.48 6.06 3.76 12.72 3.76 19.48s-1.28 13.42-3.76 19.48c-14.96 37.49-22.79 78.55-22.91 120.17 0 152.17 101.65 275 227.59 275h606.89c125.93 0 227.59-122.83 227.59-275-.11-41.64-7.94-82.72-22.91-120.22-2.47-6.05-3.76-12.71-3.76-19.45 0-6.75 1.29-13.41 3.76-19.46Zm-867.03-228.34h-.87l84.77 201.3c8.73 239.48 86.11 0 275 0 188.9 0 271.29 266.52 280.01 27.04l80.34-273.17c-3.79-106.38-67.59-113.85-80.34-113.85h-227.66c-44.38.1-88.11-12.87-127.41-37.79-39.3-24.91-72.98-61.02-98.13-105.21-1.92-3.33-4.54-5.99-7.6-7.67-3.06-1.68-6.44-2.33-9.78-1.89-3.34.45-6.52 1.98-9.21 4.43-2.68 2.45-4.76 5.72-6.03 9.49l-5.84 16.59c-15.77 46.91-45.88 84.68-84.09 105.46-1.14.46-2.39 1.1-3.65 1.74-1.18.67-2.4 1.25-3.64 1.74-16.69 10.5-55.83 41.85-57.27 122.98l.76 26.12.64 22.69Z" clip-rule="evenodd"/>
    <path fill="url(#j)" fill-rule="evenodd" d="M2101.23 1674.2c15.22-38 23.06-79.7 22.91-121.92 0-39.92-6.83-77.41-18.97-111.56h.38c-5.51-15.32-12.17-30.01-19.91-43.86l-.15-.23c-24.3-45.01-37.23-97.6-37.21-151.34v-.92c-.02-74.75-24.61-146.43-68.35-199.28-43.74-52.86-103.07-82.566-164.93-82.59-12.9 0-25.07-6.875-32.24-19.892-21.63-36.367-50.11-65.997-83.09-86.446-32.97-20.449-69.5-31.13-106.57-31.162-37.06.032-73.59 10.713-106.56 31.162-32.98 20.449-61.46 50.079-83.09 86.446-7.17 12.1-19.35 19.892-32.24 19.892-1.98 0-3.99 0-6 .092-60.81 1.911-118.6 32.441-161.05 85.088-42.46 52.64-66.22 123.24-66.23 196.74v.87c0 53.63-12.9 106.33-37.21 151.34l-.19.32c-25.13 46.11-38.5 100.12-38.46 155.33 0 44.09 8.57 84.75 22.91 121.92 2.48 6.06 3.76 12.72 3.76 19.48s-1.28 13.42-3.76 19.48c-14.96 37.49-22.79 78.55-22.91 120.17 0 152.17 101.65 275 227.59 275h606.89c125.93 0 227.59-122.83 227.59-275-.11-41.64-7.94-82.72-22.91-120.22-2.47-6.05-3.76-12.71-3.76-19.45 0-6.75 1.29-13.41 3.76-19.46Zm-867.03-228.34h-.87l84.77 201.3c8.73 239.48 86.11 0 275 0 188.9 0 271.29 266.52 280.01 27.04l80.34-273.17c-3.79-106.38-67.59-113.85-80.34-113.85h-227.66c-44.38.1-88.11-12.87-127.41-37.79-39.3-24.91-72.98-61.02-98.13-105.21-1.92-3.33-4.54-5.99-7.6-7.67-3.06-1.68-6.44-2.33-9.78-1.89-3.34.45-6.52 1.98-9.21 4.43-2.68 2.45-4.76 5.72-6.03 9.49l-5.84 16.59c-15.77 46.91-45.88 84.68-84.09 105.46-1.14.46-2.39 1.1-3.65 1.74-1.18.67-2.4 1.25-3.64 1.74-16.69 10.5-55.83 41.85-57.27 122.98l.76 26.12.64 22.69Z" clip-rule="evenodd"/>
    <path fill="url(#k)" fill-rule="evenodd" d="M2101.23 1674.2c15.22-38 23.06-79.7 22.91-121.92 0-39.92-6.83-77.41-18.97-111.56h.38c-5.51-15.32-12.17-30.01-19.91-43.86l-.15-.23c-24.3-45.01-37.23-97.6-37.21-151.34v-.92c-.02-74.75-24.61-146.43-68.35-199.28-43.74-52.86-103.07-82.566-164.93-82.59-12.9 0-25.07-6.875-32.24-19.892-21.63-36.367-50.11-65.997-83.09-86.446-32.97-20.449-69.5-31.13-106.57-31.162-37.06.032-73.59 10.713-106.56 31.162-32.98 20.449-61.46 50.079-83.09 86.446-7.17 12.1-19.35 19.892-32.24 19.892-1.98 0-3.99 0-6 .092-60.81 1.911-118.6 32.441-161.05 85.088-42.46 52.64-66.22 123.24-66.23 196.74v.87c0 53.63-12.9 106.33-37.21 151.34l-.19.32c-25.13 46.11-38.5 100.12-38.46 155.33 0 44.09 8.57 84.75 22.91 121.92 2.48 6.06 3.76 12.72 3.76 19.48s-1.28 13.42-3.76 19.48c-14.96 37.49-22.79 78.55-22.91 120.17 0 152.17 101.65 275 227.59 275h606.89c125.93 0 227.59-122.83 227.59-275-.11-41.64-7.94-82.72-22.91-120.22-2.47-6.05-3.76-12.71-3.76-19.45 0-6.75 1.29-13.41 3.76-19.46Zm-867.03-228.34h-.87l84.77 201.3c8.73 239.48 86.11 0 275 0 188.9 0 271.29 266.52 280.01 27.04l80.34-273.17c-3.79-106.38-67.59-113.85-80.34-113.85h-227.66c-44.38.1-88.11-12.87-127.41-37.79-39.3-24.91-72.98-61.02-98.13-105.21-1.92-3.33-4.54-5.99-7.6-7.67-3.06-1.68-6.44-2.33-9.78-1.89-3.34.45-6.52 1.98-9.21 4.43-2.68 2.45-4.76 5.72-6.03 9.49l-5.84 16.59c-15.77 46.91-45.88 84.68-84.09 105.46-1.14.46-2.39 1.1-3.65 1.74-1.18.67-2.4 1.25-3.64 1.74-16.69 10.5-55.83 41.85-57.27 122.98l.76 26.12.64 22.69Z" clip-rule="evenodd"/>
    <path fill="url(#l)" fill-rule="evenodd" d="M2101.23 1674.2c15.22-38 23.06-79.7 22.91-121.92 0-39.92-6.83-77.41-18.97-111.56h.38c-5.51-15.32-12.17-30.01-19.91-43.86l-.15-.23c-24.3-45.01-37.23-97.6-37.21-151.34v-.92c-.02-74.75-24.61-146.43-68.35-199.28-43.74-52.86-103.07-82.566-164.93-82.59-12.9 0-25.07-6.875-32.24-19.892-21.63-36.367-50.11-65.997-83.09-86.446-32.97-20.449-69.5-31.13-106.57-31.162-37.06.032-73.59 10.713-106.56 31.162-32.98 20.449-61.46 50.079-83.09 86.446-7.17 12.1-19.35 19.892-32.24 19.892-1.98 0-3.99 0-6 .092-60.81 1.911-118.6 32.441-161.05 85.088-42.46 52.64-66.22 123.24-66.23 196.74v.87c0 53.63-12.9 106.33-37.21 151.34l-.19.32c-25.13 46.11-38.5 100.12-38.46 155.33 0 44.09 8.57 84.75 22.91 121.92 2.48 6.06 3.76 12.72 3.76 19.48s-1.28 13.42-3.76 19.48c-14.96 37.49-22.79 78.55-22.91 120.17 0 152.17 101.65 275 227.59 275h606.89c125.93 0 227.59-122.83 227.59-275-.11-41.64-7.94-82.72-22.91-120.22-2.47-6.05-3.76-12.71-3.76-19.45 0-6.75 1.29-13.41 3.76-19.46Zm-867.03-228.34h-.87l84.77 201.3c8.73 239.48 86.11 0 275 0 188.9 0 271.29 266.52 280.01 27.04l80.34-273.17c-3.79-106.38-67.59-113.85-80.34-113.85h-227.66c-44.38.1-88.11-12.87-127.41-37.79-39.3-24.91-72.98-61.02-98.13-105.21-1.92-3.33-4.54-5.99-7.6-7.67-3.06-1.68-6.44-2.33-9.78-1.89-3.34.45-6.52 1.98-9.21 4.43-2.68 2.45-4.76 5.72-6.03 9.49l-5.84 16.59c-15.77 46.91-45.88 84.68-84.09 105.46-1.14.46-2.39 1.1-3.65 1.74-1.18.67-2.4 1.25-3.64 1.74-16.69 10.5-55.83 41.85-57.27 122.98l.76 26.12.64 22.69Z" clip-rule="evenodd"/>
  </g>
  <g filter="url(#m)">
    <path fill="url(#n)" d="M1261.74 1691.25c30.18 0 59.12-14.49 80.46-40.27 21.34-25.79 33.33-60.76 33.33-97.23 0-36.47-11.99-71.44-33.33-97.23-21.34-25.78-50.28-40.27-80.46-40.27-30.18 0-59.13 14.49-80.47 40.27-21.34 25.79-33.32 60.76-33.32 97.23 0 36.47 11.98 71.44 33.32 97.23 21.34 25.78 50.29 40.27 80.47 40.27Z"/>
  </g>
  <g filter="url(#o)">
    <path fill="url(#p)" d="M1934.48 1691.25c30.18 0 59.13-14.49 80.47-40.27 21.34-25.79 33.33-60.76 33.33-97.23 0-36.47-11.99-71.44-33.33-97.23-21.34-25.78-50.29-40.27-80.47-40.27s-59.12 14.49-80.46 40.27c-21.34 25.79-33.33 60.76-33.33 97.23 0 36.47 11.99 71.44 33.33 97.23 21.34 25.78 50.28 40.27 80.46 40.27Z"/>
    <path fill="url(#q)" d="M1934.48 1691.25c30.18 0 59.13-14.49 80.47-40.27 21.34-25.79 33.33-60.76 33.33-97.23 0-36.47-11.99-71.44-33.33-97.23-21.34-25.78-50.29-40.27-80.47-40.27s-59.12 14.49-80.46 40.27c-21.34 25.79-33.33 60.76-33.33 97.23 0 36.47 11.99 71.44 33.33 97.23 21.34 25.78 50.28 40.27 80.46 40.27Z"/>
  </g>
  <g filter="url(#r)">
    <path fill="#F6BCA5" d="M1934.48 1645.55c20.15 0 39.48-9.67 53.73-26.88 14.24-17.22 22.25-40.57 22.25-64.92s-8.01-47.7-22.25-64.92c-14.25-17.21-33.58-26.88-53.73-26.88s-39.47 9.67-53.72 26.88c-14.25 17.22-22.25 40.57-22.25 64.92s8 47.7 22.25 64.92c14.25 17.21 33.57 26.88 53.72 26.88Z"/>
    <path fill="url(#s)" d="M1934.48 1645.55c20.15 0 39.48-9.67 53.73-26.88 14.24-17.22 22.25-40.57 22.25-64.92s-8.01-47.7-22.25-64.92c-14.25-17.21-33.58-26.88-53.73-26.88s-39.47 9.67-53.72 26.88c-14.25 17.22-22.25 40.57-22.25 64.92s8 47.7 22.25 64.92c14.25 17.21 33.57 26.88 53.72 26.88Z"/>
  </g>
  <g filter="url(#t)">
    <path fill="#C58C80" d="M1263.1 1645.55c20.15 0 39.48-9.67 53.73-26.88 14.25-17.22 22.25-40.57 22.25-64.92s-8-47.7-22.25-64.92c-14.25-17.21-33.58-26.88-53.73-26.88s-39.47 9.67-53.72 26.88c-14.25 17.22-22.25 40.57-22.25 64.92s8 47.7 22.25 64.92c14.25 17.21 33.57 26.88 53.72 26.88Z"/>
    <path fill="url(#u)" d="M1263.1 1645.55c20.15 0 39.48-9.67 53.73-26.88 14.25-17.22 22.25-40.57 22.25-64.92s-8-47.7-22.25-64.92c-14.25-17.21-33.58-26.88-53.73-26.88s-39.47 9.67-53.72 26.88c-14.25 17.22-22.25 40.57-22.25 64.92s8 47.7 22.25 64.92c14.25 17.21 33.57 26.88 53.72 26.88Z"/>
  </g>
  <g filter="url(#v)">
    <path fill="url(#w)" d="M1233.33 1445.86h.87l-.72-22.69-.72-26.12c1.44-81.13 40.59-112.48 57.27-122.98a33.01 33.01 0 0 0 3.65-1.74c1.19-.63 2.41-1.21 3.64-1.74 38.21-20.78 68.32-58.55 84.09-105.46l5.8-16.59c1.27-3.77 3.36-7.04 6.04-9.49s5.86-3.98 9.2-4.43c3.34-.44 6.72.21 9.78 1.89 3.06 1.68 5.69 4.34 7.6 7.67 25.16 44.19 58.85 80.31 98.15 105.22 39.31 24.92 83.04 37.89 127.43 37.78h227.7c12.75 0 76.55 7.47 80.34 113.85l-8.38 262.58c-8.73 239.48-163.49 400.31-352.42 400.31-188.9 0-343.69-160.83-352.42-400.31l-6.9-217.75Z"/>
    <path fill="url(#x)" d="M1233.33 1445.86h.87l-.72-22.69-.72-26.12c1.44-81.13 40.59-112.48 57.27-122.98a33.01 33.01 0 0 0 3.65-1.74c1.19-.63 2.41-1.21 3.64-1.74 38.21-20.78 68.32-58.55 84.09-105.46l5.8-16.59c1.27-3.77 3.36-7.04 6.04-9.49s5.86-3.98 9.2-4.43c3.34-.44 6.72.21 9.78 1.89 3.06 1.68 5.69 4.34 7.6 7.67 25.16 44.19 58.85 80.31 98.15 105.22 39.31 24.92 83.04 37.89 127.43 37.78h227.7c12.75 0 76.55 7.47 80.34 113.85l-8.38 262.58c-8.73 239.48-163.49 400.31-352.42 400.31-188.9 0-343.69-160.83-352.42-400.31l-6.9-217.75Z"/>
    <path fill="url(#y)" d="M1233.33 1445.86h.87l-.72-22.69-.72-26.12c1.44-81.13 40.59-112.48 57.27-122.98a33.01 33.01 0 0 0 3.65-1.74c1.19-.63 2.41-1.21 3.64-1.74 38.21-20.78 68.32-58.55 84.09-105.46l5.8-16.59c1.27-3.77 3.36-7.04 6.04-9.49s5.86-3.98 9.2-4.43c3.34-.44 6.72.21 9.78 1.89 3.06 1.68 5.69 4.34 7.6 7.67 25.16 44.19 58.85 80.31 98.15 105.22 39.31 24.92 83.04 37.89 127.43 37.78h227.7c12.75 0 76.55 7.47 80.34 113.85l-8.38 262.58c-8.73 239.48-163.49 400.31-352.42 400.31-188.9 0-343.69-160.83-352.42-400.31l-6.9-217.75Z"/>
    <path fill="url(#z)" d="M1233.33 1445.86h.87l-.72-22.69-.72-26.12c1.44-81.13 40.59-112.48 57.27-122.98a33.01 33.01 0 0 0 3.65-1.74c1.19-.63 2.41-1.21 3.64-1.74 38.21-20.78 68.32-58.55 84.09-105.46l5.8-16.59c1.27-3.77 3.36-7.04 6.04-9.49s5.86-3.98 9.2-4.43c3.34-.44 6.72.21 9.78 1.89 3.06 1.68 5.69 4.34 7.6 7.67 25.16 44.19 58.85 80.31 98.15 105.22 39.31 24.92 83.04 37.89 127.43 37.78h227.7c12.75 0 76.55 7.47 80.34 113.85l-8.38 262.58c-8.73 239.48-163.49 400.31-352.42 400.31-188.9 0-343.69-160.83-352.42-400.31l-6.9-217.75Z"/>
    <path fill="url(#A)" d="M1233.33 1445.86h.87l-.72-22.69-.72-26.12c1.44-81.13 40.59-112.48 57.27-122.98a33.01 33.01 0 0 0 3.65-1.74c1.19-.63 2.41-1.21 3.64-1.74 38.21-20.78 68.32-58.55 84.09-105.46l5.8-16.59c1.27-3.77 3.36-7.04 6.04-9.49s5.86-3.98 9.2-4.43c3.34-.44 6.72.21 9.78 1.89 3.06 1.68 5.69 4.34 7.6 7.67 25.16 44.19 58.85 80.31 98.15 105.22 39.31 24.92 83.04 37.89 127.43 37.78h227.7c12.75 0 76.55 7.47 80.34 113.85l-8.38 262.58c-8.73 239.48-163.49 400.31-352.42 400.31-188.9 0-343.69-160.83-352.42-400.31l-6.9-217.75Z"/>
    <path fill="url(#B)" d="M1233.33 1445.86h.87l-.72-22.69-.72-26.12c1.44-81.13 40.59-112.48 57.27-122.98a33.01 33.01 0 0 0 3.65-1.74c1.19-.63 2.41-1.21 3.64-1.74 38.21-20.78 68.32-58.55 84.09-105.46l5.8-16.59c1.27-3.77 3.36-7.04 6.04-9.49s5.86-3.98 9.2-4.43c3.34-.44 6.72.21 9.78 1.89 3.06 1.68 5.69 4.34 7.6 7.67 25.16 44.19 58.85 80.31 98.15 105.22 39.31 24.92 83.04 37.89 127.43 37.78h227.7c12.75 0 76.55 7.47 80.34 113.85l-8.38 262.58c-8.73 239.48-163.49 400.31-352.42 400.31-188.9 0-343.69-160.83-352.42-400.31l-6.9-217.75Z"/>
    <path fill="url(#C)" d="M1233.33 1445.86h.87l-.72-22.69-.72-26.12c1.44-81.13 40.59-112.48 57.27-122.98a33.01 33.01 0 0 0 3.65-1.74c1.19-.63 2.41-1.21 3.64-1.74 38.21-20.78 68.32-58.55 84.09-105.46l5.8-16.59c1.27-3.77 3.36-7.04 6.04-9.49s5.86-3.98 9.2-4.43c3.34-.44 6.72.21 9.78 1.89 3.06 1.68 5.69 4.34 7.6 7.67 25.16 44.19 58.85 80.31 98.15 105.22 39.31 24.92 83.04 37.89 127.43 37.78h227.7c12.75 0 76.55 7.47 80.34 113.85l-8.38 262.58c-8.73 239.48-163.49 400.31-352.42 400.31-188.9 0-343.69-160.83-352.42-400.31l-6.9-217.75Z"/>
  </g>
  <path fill="url(#D)" d="M1233.33 1445.86h.87l-.72-22.69-.72-26.12c1.44-81.13 40.59-112.48 57.27-122.98a33.01 33.01 0 0 0 3.65-1.74c1.19-.63 2.41-1.21 3.64-1.74 38.21-20.78 68.32-58.55 84.09-105.46l5.8-16.59c1.27-3.77 3.36-7.04 6.04-9.49s5.86-3.98 9.2-4.43c3.34-.44 6.72.21 9.78 1.89 3.06 1.68 5.69 4.34 7.6 7.67 25.16 44.19 58.85 80.31 98.15 105.22 39.31 24.92 83.04 37.89 127.43 37.78h227.7c12.75 0 76.55 7.47 80.34 113.85l-8.38 262.58c-8.73 239.48-163.49 400.31-352.42 400.31-188.9 0-343.69-160.83-352.42-400.31l-6.9-217.75Z"/>
  <g filter="url(#E)">
    <path fill="#D19590" d="m1565.34 1534.73-48.33 145.29c-1.78 6.93-2.18 14.27-1.17 21.43 1.02 7.15 3.41 13.92 7 19.74 3.59 5.82 8.26 10.53 13.64 13.76 5.39 3.22 11.32 4.87 17.33 4.79h55.6c26.1 0 44.5-30.34 36.83-59.77l-37.55-145.29c-8.08-32.13-34.89-32.13-43.35 0"/>
  </g>
  <g filter="url(#F)">
    <path fill="#F1C4B2" d="m1566.06 1522.9-37.55 145.3c-1.78 6.93-2.18 14.27-1.17 21.42 1.01 7.16 3.41 13.92 6.99 19.74 3.59 5.82 8.27 10.54 13.65 13.76 5.38 3.23 11.31 4.87 17.32 4.8h55.61c26.09 0 44.49-30.34 36.79-59.77l-37.55-145.29c-8.08-32.13-45.63-32.09-54.09.04Z"/>
    <path fill="url(#G)" d="m1566.06 1522.9-37.55 145.3c-1.78 6.93-2.18 14.27-1.17 21.42 1.01 7.16 3.41 13.92 6.99 19.74 3.59 5.82 8.27 10.54 13.65 13.76 5.38 3.23 11.31 4.87 17.32 4.8h55.61c26.09 0 44.49-30.34 36.79-59.77l-37.55-145.29c-8.08-32.13-45.63-32.09-54.09.04Z"/>
    <path fill="url(#H)" d="m1566.06 1522.9-37.55 145.3c-1.78 6.93-2.18 14.27-1.17 21.42 1.01 7.16 3.41 13.92 6.99 19.74 3.59 5.82 8.27 10.54 13.65 13.76 5.38 3.23 11.31 4.87 17.32 4.8h55.61c26.09 0 44.49-30.34 36.79-59.77l-37.55-145.29c-8.08-32.13-45.63-32.09-54.09.04Z"/>
    <path fill="url(#I)" d="m1566.06 1522.9-37.55 145.3c-1.78 6.93-2.18 14.27-1.17 21.42 1.01 7.16 3.41 13.92 6.99 19.74 3.59 5.82 8.27 10.54 13.65 13.76 5.38 3.23 11.31 4.87 17.32 4.8h55.61c26.09 0 44.49-30.34 36.79-59.77l-37.55-145.29c-8.08-32.13-45.63-32.09-54.09.04Z"/>
    <path fill="url(#J)" d="m1566.06 1522.9-37.55 145.3c-1.78 6.93-2.18 14.27-1.17 21.42 1.01 7.16 3.41 13.92 6.99 19.74 3.59 5.82 8.27 10.54 13.65 13.76 5.38 3.23 11.31 4.87 17.32 4.8h55.61c26.09 0 44.49-30.34 36.79-59.77l-37.55-145.29c-8.08-32.13-45.63-32.09-54.09.04Z"/>
  </g>
  <path fill="url(#K)" d="m1566.06 1522.9-37.55 145.3c-1.78 6.93-2.18 14.27-1.17 21.42 1.01 7.16 3.41 13.92 6.99 19.74 3.59 5.82 8.27 10.54 13.65 13.76 5.38 3.23 11.31 4.87 17.32 4.8h55.61c26.09 0 44.49-30.34 36.79-59.77l-37.55-145.29c-8.08-32.13-45.63-32.09-54.09.04Z"/>
  <path fill="url(#L)" d="m1566.06 1522.9-37.55 145.3c-1.78 6.93-2.18 14.27-1.17 21.42 1.01 7.16 3.41 13.92 6.99 19.74 3.59 5.82 8.27 10.54 13.65 13.76 5.38 3.23 11.31 4.87 17.32 4.8h55.61c26.09 0 44.49-30.34 36.79-59.77l-37.55-145.29c-8.08-32.13-45.63-32.09-54.09.04Z"/>
  <path fill="#88024E" stroke="url(#M)" stroke-width=".1" d="M1493.46 1771.09c-2.53-1.62-5.43-2.18-8.25-1.58-2.82.59-5.39 2.31-7.3 4.88-1.97 2.46-3.18 5.66-3.41 9.07-.24 3.41.51 6.81 2.12 9.63 12.53 23.58 29.77 42.98 50.12 56.41 20.35 13.44 43.17 20.49 66.36 20.5 23.2 0 46.02-7.05 66.37-20.49 20.36-13.43 37.59-32.84 50.12-56.42 1.61-2.85 2.36-6.29 2.12-9.73-.24-3.44-1.46-6.67-3.45-9.15-1.93-2.53-4.5-4.21-7.31-4.78-2.8-.58-5.69-.01-8.2 1.62-30.73 19.47-64.95 29.5-99.65 29.19-34.68.27-68.9-9.74-99.64-29.15Z"/>
  <g filter="url(#N)">
    <path fill="#2D2B2E" d="M1673.9 1505.12c18.74-39.87 47.26-71.41 108.71-71.41 26.89 0 52.8 9.03 75.86 31.54 18.97 18.56 16.46 42.3 1.74 51.19l-39.33 27.13c-46.09-18.01-97.07-20.44-146.98-38.45Z"/>
  </g>
  <g filter="url(#O)">
    <path fill="#272528" d="M1512.35 1505.12c-18.78-39.87-47.3-71.41-108.71-71.41-26.93 0-52.84 9.03-75.86 31.54-19.04 18.56-16.5 42.3-1.75 51.19l39.3 27.13c46.12-18.01 97.1-20.44 147.02-38.45Z"/>
  </g>
  <g filter="url(#P)">
    <path fill="#1E1E1E" d="m1352.81 1401.81-.3.23c-2.14 1.55-4.51 2.57-6.97 3.01-2.47.44-4.98.29-7.39-.44-4.88-1.48-9.08-5.24-11.66-10.45-1.28-2.58-2.13-5.45-2.5-8.42-.36-2.98-.24-6.02.37-8.94 1.22-5.89 4.33-10.96 8.65-14.08h.04l.07-.1.23-.13.65-.46c3.41-2.39 6.92-4.57 10.5-6.56 6.98-4.03 16.88-9.16 29.02-13.84 24.01-9.26 57.66-17.05 93.92-9.3 2.45.52 4.8 1.63 6.9 3.24 2.1 1.62 3.91 3.72 5.34 6.19 1.43 2.47 2.44 5.25 2.98 8.19.54 2.94.59 5.98.16 8.94-.43 2.96-1.35 5.8-2.69 8.33-1.33 2.54-3.07 4.74-5.12 6.46-2.04 1.73-4.34 2.95-6.77 3.6-2.43.65-4.95.72-7.4.19-28.18-6.05-55.27-.09-75.79 7.84-11.14 4.31-21.93 9.83-32.24 16.5Z"/>
  </g>
  <g filter="url(#Q)">
    <path fill="#1E1E1E" fill-rule="evenodd" d="M1856.99 1362.72c4.32 3.12 7.43 8.19 8.65 14.08 1.23 5.9.46 12.14-2.13 17.36-2.58 5.21-6.77 8.97-11.65 10.45-4.88 1.48-10.05.56-14.37-2.57l-.3-.23a130.6 130.6 0 0 0-7.97-4.99 172.94 172.94 0 0 0-24.27-11.46c-20.48-7.98-47.6-13.94-75.79-7.89-2.45.53-4.96.46-7.4-.19-2.43-.65-4.73-1.87-6.77-3.6-2.04-1.72-3.78-3.92-5.12-6.46-1.34-2.53-2.25-5.37-2.69-8.33-.43-2.96-.38-6 .16-8.94.54-2.94 1.55-5.72 2.98-8.19 1.43-2.47 3.24-4.57 5.35-6.19 2.1-1.61 4.44-2.72 6.89-3.24 36.3-7.75 69.91.04 93.96 9.3 12.82 4.98 25.26 11.3 37.17 18.89l2.31 1.51.65.46.23.13.07.1h.04Z" clip-rule="evenodd"/>
  </g>
  <path fill="#fff" d="M1762.2 1438.71c46.16 0 85.19 38.5 95.81 90.52.72 3.47.77 7.09.15 10.59-.62 3.49-1.89 6.77-3.72 9.58-1.83 2.81-4.17 5.08-6.84 6.63-2.67 1.54-5.59 2.33-8.55 2.3h-157.76c-2.39.01-4.75-.62-6.92-1.84-2.17-1.22-4.09-3-5.62-5.22-1.54-2.22-2.65-4.82-3.26-7.61-.61-2.8-.71-5.72-.28-8.56 4.43-27.15 16.52-51.6 34.21-69.17s39.88-27.22 62.78-27.22Z"/>
  <path fill="url(#R)" d="M1747.56 1461.95c9.7.01 19.27 2.73 27.96 7.94 8.69 5.2 16.28 12.76 22.16 22.09 5.88 9.32 9.9 20.16 11.76 31.67 1.85 11.51 1.48 23.37-1.08 34.68h-121.91a93.38 93.38 0 0 1-2.27-20.12c.06-20.26 6.76-39.66 18.64-53.96 11.88-14.3 27.97-22.32 44.74-22.3Z"/>
  <path fill="#000" d="M1711.41 1538.21c0-24.29 16.08-43.68 36.15-43.68 20.1 0 36.15 19.44 36.15 43.68.03 7-1.35 13.91-4.02 20.12h-63.96c-2.9-6.12-4.39-13.06-4.32-20.12Z"/>
  <g filter="url(#S)">
    <path fill="#C7A7A3" d="M1742.93 1478.12c4.48 7.25-4.93 16.09-15.59 25.76-10.7 9.63-18.62 16.41-23.14 9.17-4.47-7.29.53-20.99 11.23-30.66 10.7-9.63 22.99-11.51 27.5-4.27Z"/>
    <path fill="url(#T)" d="M1742.93 1478.12c4.48 7.25-4.93 16.09-15.59 25.76-10.7 9.63-18.62 16.41-23.14 9.17-4.47-7.29.53-20.99 11.23-30.66 10.7-9.63 22.99-11.51 27.5-4.27Z"/>
  </g>
  <g filter="url(#U)">
    <path fill="url(#V)" d="M1803.77 1528.17c-1.88-14.91-7.6-28.74-16.35-39.5l-18.39 24.33 8.31 19.53 26.43-4.36Z"/>
  </g>
  <path fill="#fff" d="M1424.01 1438.71c-46.16 0-85.2 38.5-95.82 90.52-.71 3.47-.77 7.09-.15 10.59.62 3.49 1.9 6.77 3.73 9.58 1.83 2.81 4.17 5.08 6.84 6.63 2.66 1.54 5.59 2.33 8.55 2.3h157.75c2.4.01 4.76-.62 6.93-1.84 2.17-1.22 4.09-3 5.62-5.22 1.54-2.22 2.65-4.82 3.26-7.61.61-2.8.71-5.72.28-8.56-4.47-27.13-16.57-51.55-34.26-69.11-17.68-17.56-39.84-27.23-62.73-27.28Z"/>
  <path fill="url(#W)" d="M1438.65 1461.95c-9.71 0-19.28 2.72-27.98 7.92-8.69 5.21-16.28 12.77-22.17 22.09-5.88 9.33-9.91 20.16-11.77 31.68-1.85 11.51-1.48 23.38 1.08 34.69h121.95c1.44-6.6 2.27-13.15 2.27-20.12-.11-20.24-6.83-39.61-18.7-53.89-11.87-14.29-27.93-22.33-44.68-22.37Z"/>
  <path fill="#000" d="M1474.76 1538.21c.02-5.74-.9-11.42-2.71-16.73-1.81-5.31-4.46-10.13-7.82-14.19-3.36-4.06-7.35-7.28-11.74-9.47-4.39-2.19-9.09-3.3-13.84-3.29-4.75-.02-9.46 1.09-13.86 3.28-4.39 2.19-8.39 5.4-11.75 9.46-3.36 4.06-6.02 8.89-7.83 14.2-1.81 5.31-2.73 11-2.71 16.74 0 7.34 1.44 14.21 4.02 20.12h63.95c2.78-6.18 4.22-13.09 4.29-20.12Z"/>
  <g filter="url(#X)">
    <path fill="url(#Y)" d="M1496.3 1529.27c0-24.65-16.57-41.06-21.05-46.06l-20.4 23.84 12.51 30.89 28.94-8.67Z"/>
  </g>
  <g filter="url(#Z)">
    <path fill="#C7A7A3" fill-opacity=".9" d="M1426.14 1509.44c13.44-8.61 21.41-22.25 17.8-30.48-3.61-8.24-17.43-7.93-30.87.67-13.44 8.6-21.41 22.25-17.8 30.48 3.61 8.23 17.43 7.93 30.87-.67Z"/>
    <path fill="url(#aa)" d="M1426.14 1509.44c13.44-8.61 21.41-22.25 17.8-30.48-3.61-8.24-17.43-7.93-30.87.67-13.44 8.6-21.41 22.25-17.8 30.48 3.61 8.23 17.43 7.93 30.87-.67Z"/>
  </g>
  <g filter="url(#ab)">
    <path stroke="#323233" stroke-linecap="round" stroke-width=".4" d="M1730.26 1350.98c22.8-6.69 79.54-3.34 117.44 29.43"/>
  </g>
  <g filter="url(#ac)">
    <path stroke="#323233" stroke-linecap="round" stroke-width=".4" d="M1462.17 1350.98c-22.8-6.69-79.55-3.34-117.44 29.43"/>
  </g>
  <g filter="url(#ad)">
    <path fill="#232121" d="M1234.62 1042.02c40.02-51.195 115.69-51.287 150.7-43.633l27.99 110.273c-17.9-3.34-33.83 4.31-47.22 20.08-31.71 107.71-140.73 167.11-191.21 183.33-10.51-127.51 7.66-203.41 59.74-270.05Z"/>
    <path fill="url(#ae)" d="M1234.62 1042.02c40.02-51.195 115.69-51.287 150.7-43.633l27.99 110.273c-17.9-3.34-33.83 4.31-47.22 20.08-31.71 107.71-140.73 167.11-191.21 183.33-10.51-127.51 7.66-203.41 59.74-270.05Z"/>
  </g>
  <g filter="url(#af)">
    <path fill="#2A2A2A" d="M1550.43 888.021c-80.11-21.359-152.03 75.166-160.33 111.008 74.38 302.961 262.59 286.321 448.34 261.391 111.25-14.95 123.28 46.29 132.76 75.9 0-336.05-236.46-399.12-418.76-447.795l-2.01-.504Z"/>
    <path fill="url(#ag)" d="M1550.43 888.021c-80.11-21.359-152.03 75.166-160.33 111.008 74.38 302.961 262.59 286.321 448.34 261.391 111.25-14.95 123.28 46.29 132.76 75.9 0-336.05-236.46-399.12-418.76-447.795l-2.01-.504Z"/>
    <path fill="url(#ah)" d="M1550.43 888.021c-80.11-21.359-152.03 75.166-160.33 111.008 74.38 302.961 262.59 286.321 448.34 261.391 111.25-14.95 123.28 46.29 132.76 75.9 0-336.05-236.46-399.12-418.76-447.795l-2.01-.504Z"/>
  </g>
  <g filter="url(#ai)">
    <path stroke="url(#aj)" stroke-linecap="round" stroke-width=".2" d="M1388.66 994.721c1.63 20.759 16.57 98.819 38.5 146.119"/>
  </g>
  <g filter="url(#ak)">
    <path fill="#4B4648" d="m1779.35 1192.9-116.87 25.99a40.425 40.425 0 0 1-20.05-.64c-6.58-1.89-12.75-5.42-18.14-10.36-5.38-4.93-9.86-11.17-13.13-18.31-3.28-7.15-5.3-15.04-5.91-23.17-.62-8.13.17-16.33 2.33-24.07 2.15-7.75 5.61-14.86 10.16-20.9 4.55-6.04 10.1-10.86 16.28-14.16 6.18-3.31 12.86-5.02 19.62-5.03h165.53c97.9 0 130.3 119.21 134.28 159.95l-12.06-13.29c-21.62-23.8-47.49-41.24-75.61-50.96-28.12-9.71-57.67-11.44-86.43-5.05Z"/>
  </g>
  <g filter="url(#al)">
    <path fill="url(#am)" d="M269.007 970.383c65.213 0 118.079-63.879 118.079-142.679 0-78.799-52.866-142.679-118.079-142.679s-118.079 63.88-118.079 142.679c0 78.8 52.866 142.679 118.079 142.679Z"/>
  </g>
  <g filter="url(#an)">
    <path fill="url(#ao)" d="M269.007 912.725c38.86 0 70.362-38.065 70.362-85.021s-31.502-85.021-70.362-85.021-70.362 38.065-70.362 85.021 31.502 85.021 70.362 85.021Z"/>
  </g>
  <g filter="url(#ap)">
    <path fill="url(#aq)" d="M941.942 970.383c65.218 0 118.078-63.879 118.078-142.679 0-78.799-52.86-142.679-118.078-142.679-65.214 0-118.08 63.88-118.08 142.679 0 78.8 52.866 142.679 118.08 142.679Z"/>
    <path fill="url(#ar)" d="M941.942 970.383c65.218 0 118.078-63.879 118.078-142.679 0-78.799-52.86-142.679-118.078-142.679-65.214 0-118.08 63.88-118.08 142.679 0 78.8 52.866 142.679 118.08 142.679Z"/>
  </g>
  <g filter="url(#as)">
    <path fill="#D79E81" d="M941.941 912.725c38.86 0 70.359-38.065 70.359-85.021s-31.499-85.021-70.359-85.021-70.362 38.065-70.362 85.021 31.502 85.021 70.362 85.021Z"/>
    <path fill="url(#at)" d="M941.941 912.725c38.86 0 70.359-38.065 70.359-85.021s-31.499-85.021-70.359-85.021-70.362 38.065-70.362 85.021 31.502 85.021 70.362 85.021Z"/>
    <path fill="url(#au)" d="M941.941 912.725c38.86 0 70.359-38.065 70.359-85.021s-31.499-85.021-70.359-85.021-70.362 38.065-70.362 85.021 31.502 85.021 70.362 85.021Z"/>
  </g>
  <g filter="url(#av)">
    <path fill="url(#aw)" d="M244.125 775.317c1.138.091 2.276.137 3.451.137 0 0-3.793-72.921-7.586-123.062 0-22.825 7.586-50.142 22.759-63.846l11.379-13.658c18.966-18.242 26.552-45.605 26.552-72.921V429c0-22.779 11.417-41.021 30.383-45.558 45.517-13.704 140.382-36.484 276.972-36.484 136.59 0 231.455 22.78 276.973 36.484 15.172 4.537 30.344 22.779 30.344 45.558v72.967c0 27.316 11.38 54.679 26.552 72.875 35.541 30.112 33.341 46.658 30.383 82.087-3.793 45.604-7.586 123.063-7.586 123.063h1.289l-18.852 338.338C935.759 1269.58 837.366 1375 720.045 1375H492.952c-121.113 0-215.714-105.42-227.093-256.67l-21.734-343.013Z"/>
    <path fill="url(#ax)" d="M244.125 775.317c1.138.091 2.276.137 3.451.137 0 0-3.793-72.921-7.586-123.062 0-22.825 7.586-50.142 22.759-63.846l11.379-13.658c18.966-18.242 26.552-45.605 26.552-72.921V429c0-22.779 11.417-41.021 30.383-45.558 45.517-13.704 140.382-36.484 276.972-36.484 136.59 0 231.455 22.78 276.973 36.484 15.172 4.537 30.344 22.779 30.344 45.558v72.967c0 27.316 11.38 54.679 26.552 72.875 35.541 30.112 33.341 46.658 30.383 82.087-3.793 45.604-7.586 123.063-7.586 123.063h1.289l-18.852 338.338C935.759 1269.58 837.366 1375 720.045 1375H492.952c-121.113 0-215.714-105.42-227.093-256.67l-21.734-343.013Z"/>
    <path fill="url(#ay)" d="M244.125 775.317c1.138.091 2.276.137 3.451.137 0 0-3.793-72.921-7.586-123.062 0-22.825 7.586-50.142 22.759-63.846l11.379-13.658c18.966-18.242 26.552-45.605 26.552-72.921V429c0-22.779 11.417-41.021 30.383-45.558 45.517-13.704 140.382-36.484 276.972-36.484 136.59 0 231.455 22.78 276.973 36.484 15.172 4.537 30.344 22.779 30.344 45.558v72.967c0 27.316 11.38 54.679 26.552 72.875 35.541 30.112 33.341 46.658 30.383 82.087-3.793 45.604-7.586 123.063-7.586 123.063h1.289l-18.852 338.338C935.759 1269.58 837.366 1375 720.045 1375H492.952c-121.113 0-215.714-105.42-227.093-256.67l-21.734-343.013Z"/>
    <path fill="url(#az)" d="M244.125 775.317c1.138.091 2.276.137 3.451.137 0 0-3.793-72.921-7.586-123.062 0-22.825 7.586-50.142 22.759-63.846l11.379-13.658c18.966-18.242 26.552-45.605 26.552-72.921V429c0-22.779 11.417-41.021 30.383-45.558 45.517-13.704 140.382-36.484 276.972-36.484 136.59 0 231.455 22.78 276.973 36.484 15.172 4.537 30.344 22.779 30.344 45.558v72.967c0 27.316 11.38 54.679 26.552 72.875 35.541 30.112 33.341 46.658 30.383 82.087-3.793 45.604-7.586 123.063-7.586 123.063h1.289l-18.852 338.338C935.759 1269.58 837.366 1375 720.045 1375H492.952c-121.113 0-215.714-105.42-227.093-256.67l-21.734-343.013Z"/>
    <path fill="url(#aA)" d="M244.125 775.317c1.138.091 2.276.137 3.451.137 0 0-3.793-72.921-7.586-123.062 0-22.825 7.586-50.142 22.759-63.846l11.379-13.658c18.966-18.242 26.552-45.605 26.552-72.921V429c0-22.779 11.417-41.021 30.383-45.558 45.517-13.704 140.382-36.484 276.972-36.484 136.59 0 231.455 22.78 276.973 36.484 15.172 4.537 30.344 22.779 30.344 45.558v72.967c0 27.316 11.38 54.679 26.552 72.875 35.541 30.112 33.341 46.658 30.383 82.087-3.793 45.604-7.586 123.063-7.586 123.063h1.289l-18.852 338.338C935.759 1269.58 837.366 1375 720.045 1375H492.952c-121.113 0-215.714-105.42-227.093-256.67l-21.734-343.013Z"/>
  </g>
  <g filter="url(#aB)">
    <path fill="#EBCC94" d="m945.734 274.038 30.345 18.195c53.101 31.946 83.451 104.867 72.071 182.371l-41.73 259.829c-3.71 26.813-18.393 44.917-40.431 45.559H964.7s3.793-77.459 7.586-123.063c3.072-37.033-2.276-48.308-30.345-82.041-15.172-18.242-26.552-45.605-26.552-72.921V429c0-22.779-15.172-41.021-30.344-45.558-45.556-13.704-140.421-36.484-277.011-36.484-136.551 0-231.455 22.78-276.972 36.484-18.966 4.537-30.345 22.779-30.345 45.558v72.967c0 27.316-7.586 54.679-26.552 72.875l-11.379 13.75c-15.172 13.658-22.759 40.975-22.759 63.8 3.793 50.141 7.587 123.062 7.587 123.062-10.877.375-21.494-4.047-29.87-12.439-8.377-8.392-13.938-20.181-15.648-33.165l-41.762-259.829c-7.586-72.921 22.759-145.842 75.862-177.788l30.345-18.195c18.966-13.705 37.931-31.946 56.935-50.188l68.275-86.625c41.725-45.558 102.452-59.217 155.594-27.317 37.931 13.659 79.655 13.659 117.586 0 56.934-22.779 121.455-4.583 166.972 45.604L888.8 223.85c15.172 22.825 34.138 36.483 56.896 50.188"/>
    <path fill="url(#aC)" d="m945.734 274.038 30.345 18.195c53.101 31.946 83.451 104.867 72.071 182.371l-41.73 259.829c-3.71 26.813-18.393 44.917-40.431 45.559H964.7s3.793-77.459 7.586-123.063c3.072-37.033-2.276-48.308-30.345-82.041-15.172-18.242-26.552-45.605-26.552-72.921V429c0-22.779-15.172-41.021-30.344-45.558-45.556-13.704-140.421-36.484-277.011-36.484-136.551 0-231.455 22.78-276.972 36.484-18.966 4.537-30.345 22.779-30.345 45.558v72.967c0 27.316-7.586 54.679-26.552 72.875l-11.379 13.75c-15.172 13.658-22.759 40.975-22.759 63.8 3.793 50.141 7.587 123.062 7.587 123.062-10.877.375-21.494-4.047-29.87-12.439-8.377-8.392-13.938-20.181-15.648-33.165l-41.762-259.829c-7.586-72.921 22.759-145.842 75.862-177.788l30.345-18.195c18.966-13.705 37.931-31.946 56.935-50.188l68.275-86.625c41.725-45.558 102.452-59.217 155.594-27.317 37.931 13.659 79.655 13.659 117.586 0 56.934-22.779 121.455-4.583 166.972 45.604L888.8 223.85c15.172 22.825 34.138 36.483 56.896 50.188"/>
    <path fill="url(#aD)" d="m945.734 274.038 30.345 18.195c53.101 31.946 83.451 104.867 72.071 182.371l-41.73 259.829c-3.71 26.813-18.393 44.917-40.431 45.559H964.7s3.793-77.459 7.586-123.063c3.072-37.033-2.276-48.308-30.345-82.041-15.172-18.242-26.552-45.605-26.552-72.921V429c0-22.779-15.172-41.021-30.344-45.558-45.556-13.704-140.421-36.484-277.011-36.484-136.551 0-231.455 22.78-276.972 36.484-18.966 4.537-30.345 22.779-30.345 45.558v72.967c0 27.316-7.586 54.679-26.552 72.875l-11.379 13.75c-15.172 13.658-22.759 40.975-22.759 63.8 3.793 50.141 7.587 123.062 7.587 123.062-10.877.375-21.494-4.047-29.87-12.439-8.377-8.392-13.938-20.181-15.648-33.165l-41.762-259.829c-7.586-72.921 22.759-145.842 75.862-177.788l30.345-18.195c18.966-13.705 37.931-31.946 56.935-50.188l68.275-86.625c41.725-45.558 102.452-59.217 155.594-27.317 37.931 13.659 79.655 13.659 117.586 0 56.934-22.779 121.455-4.583 166.972 45.604L888.8 223.85c15.172 22.825 34.138 36.483 56.896 50.188"/>
    <path fill="url(#aE)" d="m945.734 274.038 30.345 18.195c53.101 31.946 83.451 104.867 72.071 182.371l-41.73 259.829c-3.71 26.813-18.393 44.917-40.431 45.559H964.7s3.793-77.459 7.586-123.063c3.072-37.033-2.276-48.308-30.345-82.041-15.172-18.242-26.552-45.605-26.552-72.921V429c0-22.779-15.172-41.021-30.344-45.558-45.556-13.704-140.421-36.484-277.011-36.484-136.551 0-231.455 22.78-276.972 36.484-18.966 4.537-30.345 22.779-30.345 45.558v72.967c0 27.316-7.586 54.679-26.552 72.875l-11.379 13.75c-15.172 13.658-22.759 40.975-22.759 63.8 3.793 50.141 7.587 123.062 7.587 123.062-10.877.375-21.494-4.047-29.87-12.439-8.377-8.392-13.938-20.181-15.648-33.165l-41.762-259.829c-7.586-72.921 22.759-145.842 75.862-177.788l30.345-18.195c18.966-13.705 37.931-31.946 56.935-50.188l68.275-86.625c41.725-45.558 102.452-59.217 155.594-27.317 37.931 13.659 79.655 13.659 117.586 0 56.934-22.779 121.455-4.583 166.972 45.604L888.8 223.85c15.172 22.825 34.138 36.483 56.896 50.188"/>
    <path fill="url(#aF)" d="m945.734 274.038 30.345 18.195c53.101 31.946 83.451 104.867 72.071 182.371l-41.73 259.829c-3.71 26.813-18.393 44.917-40.431 45.559H964.7s3.793-77.459 7.586-123.063c3.072-37.033-2.276-48.308-30.345-82.041-15.172-18.242-26.552-45.605-26.552-72.921V429c0-22.779-15.172-41.021-30.344-45.558-45.556-13.704-140.421-36.484-277.011-36.484-136.551 0-231.455 22.78-276.972 36.484-18.966 4.537-30.345 22.779-30.345 45.558v72.967c0 27.316-7.586 54.679-26.552 72.875l-11.379 13.75c-15.172 13.658-22.759 40.975-22.759 63.8 3.793 50.141 7.587 123.062 7.587 123.062-10.877.375-21.494-4.047-29.87-12.439-8.377-8.392-13.938-20.181-15.648-33.165l-41.762-259.829c-7.586-72.921 22.759-145.842 75.862-177.788l30.345-18.195c18.966-13.705 37.931-31.946 56.935-50.188l68.275-86.625c41.725-45.558 102.452-59.217 155.594-27.317 37.931 13.659 79.655 13.659 117.586 0 56.934-22.779 121.455-4.583 166.972 45.604L888.8 223.85c15.172 22.825 34.138 36.483 56.896 50.188"/>
    <path fill="url(#aG)" d="m945.734 274.038 30.345 18.195c53.101 31.946 83.451 104.867 72.071 182.371l-41.73 259.829c-3.71 26.813-18.393 44.917-40.431 45.559H964.7s3.793-77.459 7.586-123.063c3.072-37.033-2.276-48.308-30.345-82.041-15.172-18.242-26.552-45.605-26.552-72.921V429c0-22.779-15.172-41.021-30.344-45.558-45.556-13.704-140.421-36.484-277.011-36.484-136.551 0-231.455 22.78-276.972 36.484-18.966 4.537-30.345 22.779-30.345 45.558v72.967c0 27.316-7.586 54.679-26.552 72.875l-11.379 13.75c-15.172 13.658-22.759 40.975-22.759 63.8 3.793 50.141 7.587 123.062 7.587 123.062-10.877.375-21.494-4.047-29.87-12.439-8.377-8.392-13.938-20.181-15.648-33.165l-41.762-259.829c-7.586-72.921 22.759-145.842 75.862-177.788l30.345-18.195c18.966-13.705 37.931-31.946 56.935-50.188l68.275-86.625c41.725-45.558 102.452-59.217 155.594-27.317 37.931 13.659 79.655 13.659 117.586 0 56.934-22.779 121.455-4.583 166.972 45.604L888.8 223.85c15.172 22.825 34.138 36.483 56.896 50.188"/>
  </g>
  <path fill="url(#aH)" d="m945.734 274.038 30.345 18.195c53.101 31.946 83.451 104.867 72.071 182.371l-41.73 259.829c-3.71 26.813-18.393 44.917-40.431 45.559H964.7s3.793-77.459 7.586-123.063c3.072-37.033-2.276-48.308-30.345-82.041-15.172-18.242-26.552-45.605-26.552-72.921V429c0-22.779-15.172-41.021-30.344-45.558-45.556-13.704-140.421-36.484-277.011-36.484-136.551 0-231.455 22.78-276.972 36.484-18.966 4.537-30.345 22.779-30.345 45.558v72.967c0 27.316-7.586 54.679-26.552 72.875l-11.379 13.75c-15.172 13.658-22.759 40.975-22.759 63.8 3.793 50.141 7.587 123.062 7.587 123.062-10.877.375-21.494-4.047-29.87-12.439-8.377-8.392-13.938-20.181-15.648-33.165l-41.762-259.829c-7.586-72.921 22.759-145.842 75.862-177.788l30.345-18.195c18.966-13.705 37.931-31.946 56.935-50.188l68.275-86.625c41.725-45.558 102.452-59.217 155.594-27.317 37.931 13.659 79.655 13.659 117.586 0 56.934-22.779 121.455-4.583 166.972 45.604L888.8 223.85c15.172 22.825 34.138 36.483 56.896 50.188"/>
  <path fill="url(#aI)" d="m945.734 274.038 30.345 18.195c53.101 31.946 83.451 104.867 72.071 182.371l-41.73 259.829c-3.71 26.813-18.393 44.917-40.431 45.559H964.7s3.793-77.459 7.586-123.063c3.072-37.033-2.276-48.308-30.345-82.041-15.172-18.242-26.552-45.605-26.552-72.921V429c0-22.779-15.172-41.021-30.344-45.558-45.556-13.704-140.421-36.484-277.011-36.484-136.551 0-231.455 22.78-276.972 36.484-18.966 4.537-30.345 22.779-30.345 45.558v72.967c0 27.316-7.586 54.679-26.552 72.875l-11.379 13.75c-15.172 13.658-22.759 40.975-22.759 63.8 3.793 50.141 7.587 123.062 7.587 123.062-10.877.375-21.494-4.047-29.87-12.439-8.377-8.392-13.938-20.181-15.648-33.165l-41.762-259.829c-7.586-72.921 22.759-145.842 75.862-177.788l30.345-18.195c18.966-13.705 37.931-31.946 56.935-50.188l68.275-86.625c41.725-45.558 102.452-59.217 155.594-27.317 37.931 13.659 79.655 13.659 117.586 0 56.934-22.779 121.455-4.583 166.972 45.604L888.8 223.85c15.172 22.825 34.138 36.483 56.896 50.188"/>
  <g filter="url(#aJ)">
    <path fill="#C68378" d="M585.389 817.208 527.355 962.5c-7.207 29.883 10.09 59.77 34.517 59.77h52.155c24.466 0 41.724-30.345 34.518-59.77l-35.238-145.292c-7.549-32.129-19.99-32.129-27.918 0Z"/>
  </g>
  <g filter="url(#aK)">
    <path fill="#E4AC8F" d="m577.842 803.321-37.59 145.292c-1.781 6.931-2.182 14.273-1.169 21.427s3.41 13.917 6.997 19.739c3.587 5.822 8.261 10.541 13.642 13.761 5.381 3.22 11.317 4.87 17.323 4.79h55.607c26.097 0 44.493-30.338 36.831-59.763l-37.552-145.292c-8.079-32.129-45.669-32.129-54.127 0"/>
    <path fill="url(#aL)" d="m577.842 803.321-37.59 145.292c-1.781 6.931-2.182 14.273-1.169 21.427s3.41 13.917 6.997 19.739c3.587 5.822 8.261 10.541 13.642 13.761 5.381 3.22 11.317 4.87 17.323 4.79h55.607c26.097 0 44.493-30.338 36.831-59.763l-37.552-145.292c-8.079-32.129-45.669-32.129-54.127 0"/>
    <path fill="url(#aM)" d="m577.842 803.321-37.59 145.292c-1.781 6.931-2.182 14.273-1.169 21.427s3.41 13.917 6.997 19.739c3.587 5.822 8.261 10.541 13.642 13.761 5.381 3.22 11.317 4.87 17.323 4.79h55.607c26.097 0 44.493-30.338 36.831-59.763l-37.552-145.292c-8.079-32.129-45.669-32.129-54.127 0"/>
    <path fill="url(#aN)" d="m577.842 803.321-37.59 145.292c-1.781 6.931-2.182 14.273-1.169 21.427s3.41 13.917 6.997 19.739c3.587 5.822 8.261 10.541 13.642 13.761 5.381 3.22 11.317 4.87 17.323 4.79h55.607c26.097 0 44.493-30.338 36.831-59.763l-37.552-145.292c-8.079-32.129-45.669-32.129-54.127 0"/>
  </g>
  <path fill="url(#aO)" d="m577.842 803.321-37.59 145.292c-1.781 6.931-2.182 14.273-1.169 21.427s3.41 13.917 6.997 19.739c3.587 5.822 8.261 10.541 13.642 13.761 5.381 3.22 11.317 4.87 17.323 4.79h55.607c26.097 0 44.493-30.338 36.831-59.763l-37.552-145.292c-8.079-32.129-45.669-32.129-54.127 0"/>
  <path fill="#88024E" stroke="url(#aP)" stroke-width=".1" d="M507.745 1065.12c-2.467-1.55-5.287-2.08-8.028-1.51-2.74.57-5.25 2.21-7.144 4.67-1.94 2.34-3.13 5.43-3.36 8.73-.229 3.3.518 6.59 2.108 9.29 12.43 22.6 29.308 41.13 49.121 53.93 19.813 12.79 41.943 19.44 64.407 19.35 22.473.09 44.613-6.57 64.433-19.36 19.821-12.8 36.703-31.35 49.132-53.97 1.579-2.73 2.315-6.04 2.079-9.36-.235-3.31-1.428-6.43-3.368-8.79-1.912-2.43-4.428-4.04-7.167-4.59-2.738-.54-5.549 0-8.006 1.57-30.04 18.58-63.353 28.13-97.103 27.82-35.58 0-69.035-10.09-97.104-27.78Z"/>
  <g filter="url(#aQ)">
    <path fill="#9A6634" d="m867.976 595.192-.076-.092-.152-.092-.303-.321-.873-.825a143.061 143.061 0 0 0-10.962-9.166c-9.413-7.096-19.341-13.14-29.662-18.059-33.553-15.901-70.034-20.572-105.6-13.52-4.899.933-9.598 3.022-13.828 6.15-4.231 3.127-7.91 7.23-10.828 12.076-2.919 4.845-5.018 10.338-6.18 16.164a54.947 54.947 0 0 0-.59 17.791c.772 5.919 2.502 11.597 5.09 16.709s5.984 9.558 9.994 13.084c4.01 3.527 8.556 6.064 13.377 7.467a31.42 31.42 0 0 0 14.724.713c22.238-4.507 45.07-1.656 66.076 8.25 7.479 3.562 14.605 8.129 21.241 13.612l.569.504c7.731 7.689 17.673 11.352 27.639 10.183 9.966-1.169 19.139-7.074 25.502-16.416 6.363-9.342 9.394-21.355 8.427-33.397-.967-12.042-5.854-23.127-13.585-30.815Z"/>
  </g>
  <g filter="url(#aR)">
    <path fill="#9A6634" d="m337.966 595.238.076-.092.151-.092.304-.321.834-.825 2.542-2.291c11.84-10.115 24.638-18.485 38.12-24.934 33.553-15.902 70.035-20.573 105.6-13.52 9.894 1.884 18.763 8.44 24.657 18.226 5.893 9.786 8.328 22 6.769 33.955-1.559 11.955-6.985 22.672-15.084 29.793-8.098 7.122-18.206 10.064-28.1 8.18-22.238-4.505-45.071-1.654-66.076 8.25-7.479 3.564-14.604 8.13-21.242 13.612-3.798 3.852-8.187 6.763-12.916 8.565-4.729 1.803-9.705 2.462-14.645 1.941-4.94-.521-9.747-2.213-14.145-4.979-4.399-2.766-8.304-6.552-11.492-11.141-3.188-4.59-5.596-9.893-7.088-15.607a54.641 54.641 0 0 1-1.606-17.697c.431-5.969 1.831-11.777 4.12-17.092 2.289-5.315 5.423-10.079 9.221-13.931Z"/>
  </g>
  <path fill="#fff" d="M773.793 705.375c46.162 0 85.155 38.5 95.776 90.521.718 3.465.77 7.083.152 10.576-.618 3.494-1.888 6.77-3.715 9.579-1.827 2.808-4.161 5.075-6.824 6.626-2.663 1.551-5.584 2.346-8.54 2.323H692.849c-2.39 0-4.75-.635-6.913-1.859-2.164-1.224-4.079-3.007-5.609-5.224-1.531-2.216-2.64-4.812-3.249-7.604a23.72 23.72 0 0 1-.274-8.551c4.427-27.14 16.514-51.582 34.195-69.152 17.682-17.571 39.863-27.181 62.756-27.189"/>
  <path fill="url(#aS)" d="M759.114 728.658c9.702.01 19.271 2.721 27.964 7.924 8.694 5.203 16.278 12.758 22.163 22.077 5.885 9.319 9.914 20.152 11.772 31.658 1.858 11.505 1.496 23.374-1.057 34.683H698.007a93.59 93.59 0 0 1-2.276-20.121c.071-20.252 6.781-39.646 18.661-53.932 11.88-14.286 27.961-22.301 44.722-22.289Z"/>
  <path fill="#000" d="M722.966 804.879c0-24.291 16.083-43.679 36.148-43.679 20.104 0 36.148 19.433 36.148 43.679.033 7.002-1.347 13.909-4.02 20.121H727.29c-2.889-6.125-4.369-13.072-4.286-20.121"/>
  <g filter="url(#aT)">
    <path fill="#C7A7A3" d="M754.486 744.792c4.514 7.241-4.931 16.087-15.552 25.758-10.734 9.625-18.662 16.408-23.138 9.167-4.513-7.288.531-20.992 11.19-30.663 10.697-9.625 23.024-11.504 27.5-4.262Z"/>
    <path fill="url(#aU)" d="M754.486 744.792c4.514 7.241-4.931 16.087-15.552 25.758-10.734 9.625-18.662 16.408-23.138 9.167-4.513-7.288.531-20.992 11.19-30.663 10.697-9.625 23.024-11.504 27.5-4.262Z"/>
  </g>
  <g filter="url(#aV)">
    <path fill="url(#aW)" d="M815.366 794.842c-1.887-14.924-7.621-28.749-16.386-39.509l-18.359 24.338 8.269 19.525 26.476-4.354Z"/>
  </g>
  <path fill="#fff" d="M435.6 705.375c-46.2 0-85.231 38.5-95.814 90.521a28.179 28.179 0 0 0-.151 10.576c.617 3.494 1.888 6.77 3.715 9.579 1.826 2.808 4.16 5.075 6.823 6.626 2.663 1.551 5.585 2.346 8.541 2.323h157.793c2.389 0 4.749-.635 6.913-1.859 2.164-1.224 4.079-3.007 5.609-5.224 1.531-2.216 2.64-4.812 3.248-7.604.609-2.791.703-5.71.275-8.551-4.468-27.116-16.565-51.528-34.238-69.09-17.673-17.562-39.832-27.236-62.714-27.297Z"/>
  <path fill="url(#aX)" d="M450.242 728.612c-9.706.008-19.28 2.72-27.977 7.925-8.697 5.206-16.283 12.765-22.169 22.09-5.886 9.325-9.913 20.164-11.768 31.676-1.855 11.511-1.488 23.385 1.072 34.697h121.911c1.441-6.6 2.313-13.154 2.313-20.121-.11-20.242-6.831-39.612-18.701-53.895-11.871-14.283-27.929-22.324-44.681-22.372Z"/>
  <path fill="#000" d="M486.39 804.879c.02-5.743-.902-11.433-2.711-16.744-1.81-5.31-4.472-10.135-7.832-14.196-3.361-4.061-7.354-7.277-11.749-9.464-4.394-2.186-9.104-3.299-13.857-3.275-4.752-.024-9.462 1.089-13.857 3.275-4.394 2.187-8.387 5.403-11.748 9.464-3.361 4.061-6.023 8.886-7.832 14.196-1.81 5.311-2.731 11.001-2.711 16.744 0 7.334 1.404 14.209 3.983 20.121h63.99c2.77-6.184 4.254-13.089 4.324-20.121Z"/>
  <g filter="url(#aY)">
    <path fill="url(#aZ)" d="M507.897 795.942c0-24.659-16.614-41.067-21.09-46.063l-20.369 23.834 12.518 30.891 28.941-8.662Z"/>
  </g>
  <g filter="url(#ba)">
    <path fill="#C7A7A3" fill-opacity=".9" d="M437.697 776.104c13.439-8.603 21.408-22.25 17.799-30.482-3.609-8.231-17.429-7.93-30.868.674-13.439 8.603-21.408 22.25-17.799 30.482 3.609 8.231 17.429 7.929 30.868-.674Z"/>
    <path fill="url(#bb)" d="M437.697 776.104c13.439-8.603 21.408-22.25 17.799-30.482-3.609-8.231-17.429-7.93-30.868.674-13.439 8.603-21.408 22.25-17.799 30.482 3.609 8.231 17.429 7.929 30.868-.674Z"/>
  </g>
  <g filter="url(#bc)">
    <path stroke="url(#bd)" stroke-linecap="round" stroke-width=".5" d="M722.32 582.863c30.421-6.417 89.745-4.584 130.824 34.008"/>
  </g>
  <g filter="url(#be)">
    <path stroke="url(#bf)" stroke-linecap="round" stroke-width=".5" d="M353.138 627.183c23.138-24.75 73.662-50.737 136.286-38.683"/>
  </g>
  <defs>
    <radialGradient id="c" cx="0" cy="0" r="1" gradientTransform="matrix(-42.67314 389.58286 -404.9559 -44.35704 1571.788 1767.483)" gradientUnits="userSpaceOnUse">
      <stop offset=".591" stop-color="#171418"/>
      <stop offset="1" stop-color="#171418" stop-opacity="0"/>
    </radialGradient>
    <radialGradient id="d" cx="0" cy="0" r="1" gradientTransform="matrix(-203.88409 166.14756 -230.61503 -282.99383 1372.65 1790.39)" gradientUnits="userSpaceOnUse">
      <stop offset=".258" stop-color="#181518"/>
      <stop offset="1" stop-color="#181518" stop-opacity="0"/>
    </radialGradient>
    <radialGradient id="e" cx="0" cy="0" r="1" gradientTransform="rotate(122.328 192.356 1130.577) scale(172.892 124.323)" gradientUnits="userSpaceOnUse">
      <stop offset=".334" stop-color="#040101"/>
      <stop offset="1" stop-color="#040101" stop-opacity="0"/>
    </radialGradient>
    <radialGradient id="f" cx="0" cy="0" r="1" gradientTransform="matrix(-91.27187 180.4684 -115.06516 -58.1942 1282.56 1399.34)" gradientUnits="userSpaceOnUse">
      <stop offset=".321" stop-color="#040002"/>
      <stop offset="1" stop-color="#040002" stop-opacity="0"/>
    </radialGradient>
    <radialGradient id="g" cx="0" cy="0" r="1" gradientTransform="matrix(97.19744 223.4375 -275.48057 119.83668 1344.21 865.076)" gradientUnits="userSpaceOnUse">
      <stop stop-color="#474445"/>
      <stop offset="1" stop-color="#474445" stop-opacity="0"/>
    </radialGradient>
    <radialGradient id="h" cx="0" cy="0" r="1" gradientTransform="rotate(129.609 757.543 993.128) scale(159.885 219.492)" gradientUnits="userSpaceOnUse">
      <stop stop-color="#4A4446"/>
      <stop offset="1" stop-color="#4A4446" stop-opacity="0"/>
    </radialGradient>
    <radialGradient id="i" cx="0" cy="0" r="1" gradientTransform="matrix(-130.38182 45.83285 -111.49147 -317.16246 2124.14 1481.01)" gradientUnits="userSpaceOnUse">
      <stop stop-color="#3B3638"/>
      <stop offset="1" stop-color="#3B3638" stop-opacity="0"/>
    </radialGradient>
    <radialGradient id="j" cx="0" cy="0" r="1" gradientTransform="matrix(-199.1311 60.15915 -90.1592 -298.4334 2081.47 1773.2)" gradientUnits="userSpaceOnUse">
      <stop stop-color="#464444"/>
      <stop offset="1" stop-color="#464444" stop-opacity="0"/>
    </radialGradient>
    <radialGradient id="k" cx="0" cy="0" r="1" gradientTransform="rotate(-105.771 1445.508 -92.879) scale(235.33 159.276)" gradientUnits="userSpaceOnUse">
      <stop stop-color="#575455"/>
      <stop offset="1" stop-color="#575455" stop-opacity="0"/>
    </radialGradient>
    <radialGradient id="l" cx="0" cy="0" r="1" gradientTransform="rotate(7.223 -11127.527 9917.88) scale(107.207 208.849)" gradientUnits="userSpaceOnUse">
      <stop stop-color="#413733"/>
      <stop offset="1" stop-color="#413733" stop-opacity="0"/>
    </radialGradient>
    <radialGradient id="p" cx="0" cy="0" r="1" gradientTransform="matrix(129.20266 -174.02356 204.58846 151.89538 1911.95 1637.12)" gradientUnits="userSpaceOnUse">
      <stop offset=".444" stop-color="#E5B1A5"/>
      <stop offset=".944" stop-color="#FFD8C1"/>
    </radialGradient>
    <radialGradient id="q" cx="0" cy="0" r="1" gradientTransform="matrix(93.05 63.0209 -19.3956 28.6375 1951.67 1410.11)" gradientUnits="userSpaceOnUse">
      <stop stop-color="#DBA98B"/>
      <stop offset="1" stop-color="#DBA98B" stop-opacity="0"/>
    </radialGradient>
    <radialGradient id="s" cx="0" cy="0" r="1" gradientTransform="rotate(-5.136 18380.373 -20440.642) scale(107.209 101.012)" gradientUnits="userSpaceOnUse">
      <stop offset=".719" stop-color="#F4B89E" stop-opacity="0"/>
      <stop offset="1" stop-color="#F5B99D"/>
    </radialGradient>
    <radialGradient id="u" cx="0" cy="0" r="1" gradientTransform="matrix(-85.3448 0 0 -81.3528 1267.73 1553.75)" gradientUnits="userSpaceOnUse">
      <stop offset=".667" stop-color="#BC8272" stop-opacity="0"/>
      <stop offset="1" stop-color="#BC8272"/>
    </radialGradient>
    <radialGradient id="w" cx="0" cy="0" r="1" gradientTransform="matrix(-459.92735 256.27623 -383.53966 -688.32127 1795.28 1507.82)" gradientUnits="userSpaceOnUse">
      <stop stop-color="#FFD7BF"/>
      <stop offset="1" stop-color="#D59F97"/>
    </radialGradient>
    <radialGradient id="x" cx="0" cy="0" r="1" gradientTransform="rotate(171.05 847.95 883.467) scale(247.787 327.975)" gradientUnits="userSpaceOnUse">
      <stop stop-color="#FFDEBF"/>
      <stop offset="1" stop-color="#FFDEBF" stop-opacity="0"/>
    </radialGradient>
    <radialGradient id="y" cx="0" cy="0" r="1" gradientTransform="matrix(92.45698 -323.69772 351.69506 100.45379 1424.8 2134.14)" gradientUnits="userSpaceOnUse">
      <stop stop-color="#B87C92"/>
      <stop offset="1" stop-color="#B87C92" stop-opacity="0"/>
    </radialGradient>
    <radialGradient id="z" cx="0" cy="0" r="1" gradientTransform="matrix(-64.2795 569.92152 -549.11743 -61.93307 1631.26 1521.202)" gradientUnits="userSpaceOnUse">
      <stop offset=".673" stop-color="#B47896" stop-opacity="0"/>
      <stop offset="1" stop-color="#B47896"/>
    </radialGradient>
    <radialGradient id="A" cx="0" cy="0" r="1" gradientTransform="matrix(-488.36359 115.80431 -236.87571 -998.93923 1721.16 1655.72)" gradientUnits="userSpaceOnUse">
      <stop offset=".795" stop-color="#E2A895" stop-opacity="0"/>
      <stop offset="1" stop-color="#E2A895"/>
    </radialGradient>
    <radialGradient id="B" cx="0" cy="0" r="1" gradientTransform="matrix(0 -98.3359 99.8773 0 1755.83 1472.07)" gradientUnits="userSpaceOnUse">
      <stop stop-color="#F6BAA9"/>
      <stop offset="1" stop-color="#F6BAA9" stop-opacity="0"/>
    </radialGradient>
    <radialGradient id="C" cx="0" cy="0" r="1" gradientTransform="matrix(0 -112.157 106.378 0 1446.27 1452.5)" gradientUnits="userSpaceOnUse">
      <stop stop-color="#D09790"/>
      <stop offset="1" stop-color="#D09790" stop-opacity="0"/>
    </radialGradient>
    <radialGradient id="D" cx="0" cy="0" r="1" gradientTransform="matrix(-90.8941 0 0 -550.788 1953.45 1599.17)" gradientUnits="userSpaceOnUse">
      <stop stop-color="#FFD8BC"/>
      <stop offset="1" stop-color="#FFD8BC" stop-opacity="0"/>
    </radialGradient>
    <radialGradient id="G" cx="0" cy="0" r="1" gradientTransform="matrix(-32.21462 -174.66507 45.22355 -8.34088 1648.56 1661.28)" gradientUnits="userSpaceOnUse">
      <stop offset=".017" stop-color="#FFDCC5"/>
      <stop offset="1" stop-color="#FFDCC5" stop-opacity="0"/>
    </radialGradient>
    <radialGradient id="J" cx="0" cy="0" r="1" gradientTransform="matrix(-55.1183 0 0 -18.6198 1631.64 1679.33)" gradientUnits="userSpaceOnUse">
      <stop stop-color="#FFD6C2"/>
      <stop offset="1" stop-color="#FFD6C2" stop-opacity="0"/>
    </radialGradient>
    <radialGradient id="L" cx="0" cy="0" r="1" gradientTransform="rotate(140.322 516.11 1106.45) scale(125.994 159.47)" gradientUnits="userSpaceOnUse">
      <stop offset=".778" stop-color="#CC8C8D" stop-opacity="0"/>
      <stop offset="1" stop-color="#CC8C8D"/>
    </radialGradient>
    <radialGradient id="R" cx="0" cy="0" r="1" gradientTransform="matrix(0 69.3289 -91.2621 0 1747.41 1502.74)" gradientUnits="userSpaceOnUse">
      <stop offset=".802" stop-color="#7D574A"/>
      <stop offset="1" stop-color="#664944"/>
    </radialGradient>
    <radialGradient id="T" cx="0" cy="0" r="1" gradientTransform="rotate(-122.709 1278.043 282.108) scale(30.3512 39.2273)" gradientUnits="userSpaceOnUse">
      <stop offset=".766" stop-color="#FFE6E2" stop-opacity="0"/>
      <stop offset=".966" stop-color="#FFE6E2"/>
    </radialGradient>
    <radialGradient id="W" cx="0" cy="0" r="1" gradientTransform="matrix(0 69.3293 -91.2628 0 1438.8 1502.74)" gradientUnits="userSpaceOnUse">
      <stop offset=".802" stop-color="#7D574A"/>
      <stop offset="1" stop-color="#664944"/>
    </radialGradient>
    <radialGradient id="aa" cx="0" cy="0" r="1" gradientTransform="matrix(-16.84016 -36.99684 39.71027 -18.07526 1429.1 1518.91)" gradientUnits="userSpaceOnUse">
      <stop offset=".766" stop-color="#FFE6E2" stop-opacity="0"/>
      <stop offset=".966" stop-color="#FFE6E2"/>
    </radialGradient>
    <radialGradient id="ae" cx="0" cy="0" r="1" gradientTransform="rotate(-69.241 1553.573 -203.24) scale(251.805 112.769)" gradientUnits="userSpaceOnUse">
      <stop stop-color="#433838"/>
      <stop offset="1" stop-color="#433838" stop-opacity="0"/>
    </radialGradient>
    <radialGradient id="ag" cx="0" cy="0" r="1" gradientTransform="rotate(111.703 566.843 1024.397) scale(403.889 580.865)" gradientUnits="userSpaceOnUse">
      <stop offset=".639" stop-color="#1F0D24" stop-opacity="0"/>
      <stop offset="1" stop-color="#1F0D24"/>
    </radialGradient>
    <radialGradient id="ah" cx="0" cy="0" r="1" gradientTransform="rotate(97.256 404.06 1162.184) scale(117.773 211.235)" gradientUnits="userSpaceOnUse">
      <stop stop-color="#4C4749"/>
      <stop offset="1" stop-color="#4C4749" stop-opacity="0"/>
    </radialGradient>
    <radialGradient id="am" cx="0" cy="0" r="1" gradientTransform="matrix(124.131 0 0 262.487 150.928 827.704)" gradientUnits="userSpaceOnUse">
      <stop offset=".351" stop-color="#C28775"/>
      <stop offset="1" stop-color="#BA7867"/>
    </radialGradient>
    <radialGradient id="ar" cx="0" cy="0" r="1" gradientTransform="matrix(58.47751 -51.45066 61.20249 69.5612 968.266 805.017)" gradientUnits="userSpaceOnUse">
      <stop offset=".543" stop-color="#E3AB88"/>
      <stop offset="1" stop-color="#E3AB88" stop-opacity="0"/>
    </radialGradient>
    <radialGradient id="at" cx="0" cy="0" r="1" gradientTransform="matrix(58.09232 -129.10756 67.38261 30.319 939.02 897.875)" gradientUnits="userSpaceOnUse">
      <stop offset=".69" stop-color="#D79A76" stop-opacity="0"/>
      <stop offset="1" stop-color="#D79A76"/>
    </radialGradient>
    <radialGradient id="au" cx="0" cy="0" r="1" gradientTransform="matrix(18.3409 21.93718 -27.83388 23.27092 941.95 827.681)" gradientUnits="userSpaceOnUse">
      <stop stop-color="#CB8E6D"/>
      <stop offset="1" stop-color="#CB8E6D" stop-opacity="0"/>
    </radialGradient>
    <radialGradient id="ax" cx="0" cy="0" r="1" gradientTransform="matrix(-75.96413 725.17312 -818.73319 -85.76483 661.427 701.363)" gradientUnits="userSpaceOnUse">
      <stop offset=".701" stop-color="#B57195" stop-opacity="0"/>
      <stop offset="1" stop-color="#B57195"/>
    </radialGradient>
    <radialGradient id="az" cx="0" cy="0" r="1" gradientTransform="matrix(0 -111.719 113.793 0 770.797 719.033)" gradientUnits="userSpaceOnUse">
      <stop stop-color="#E2A18C"/>
      <stop offset="1" stop-color="#E2A18C" stop-opacity="0"/>
    </radialGradient>
    <radialGradient id="aA" cx="0" cy="0" r="1" gradientTransform="matrix(0 -118.88 122.349 0 448.383 716.146)" gradientUnits="userSpaceOnUse">
      <stop stop-color="#C2837A"/>
      <stop offset="1" stop-color="#C2837A" stop-opacity="0"/>
    </radialGradient>
    <radialGradient id="aC" cx="0" cy="0" r="1" gradientTransform="rotate(122.705 387.012 320.775) scale(449.907 718.241)" gradientUnits="userSpaceOnUse">
      <stop stop-color="#FFFFC2"/>
      <stop offset="1" stop-color="#FFFFC2" stop-opacity="0"/>
    </radialGradient>
    <radialGradient id="aE" cx="0" cy="0" r="1" gradientTransform="rotate(-91.702 412.52 116.555) scale(159.174 64.7219)" gradientUnits="userSpaceOnUse">
      <stop offset=".227" stop-color="#EEC19C"/>
      <stop offset="1" stop-color="#EEC19C" stop-opacity="0"/>
    </radialGradient>
    <radialGradient id="aF" cx="0" cy="0" r="1" gradientTransform="matrix(60.77146 -168.08 119.48107 43.1999 903.858 679.158)" gradientUnits="userSpaceOnUse">
      <stop offset=".479" stop-color="#E3AB85"/>
      <stop offset="1" stop-color="#E3AB85" stop-opacity="0"/>
    </radialGradient>
    <radialGradient id="aG" cx="0" cy="0" r="1" gradientTransform="rotate(56.298 188.524 560.24) scale(126.56 105.577)" gradientUnits="userSpaceOnUse">
      <stop stop-color="#FBECAF"/>
      <stop offset="1" stop-color="#FBECAF" stop-opacity="0"/>
    </radialGradient>
    <radialGradient id="aH" cx="0" cy="0" r="1" gradientTransform="rotate(79.15 271.025 441.89) scale(68.16 94.2475)" gradientUnits="userSpaceOnUse">
      <stop offset=".208" stop-color="#E1D19F"/>
      <stop offset="1" stop-color="#E1D19F" stop-opacity="0"/>
    </radialGradient>
    <radialGradient id="aI" cx="0" cy="0" r="1" gradientTransform="matrix(51.3184 76.69614 -162.45388 108.70002 297.493 240.258)" gradientUnits="userSpaceOnUse">
      <stop stop-color="#DCC291"/>
      <stop offset="1" stop-color="#DCC291" stop-opacity="0"/>
    </radialGradient>
    <radialGradient id="aS" cx="0" cy="0" r="1" gradientTransform="matrix(0 77.1943 -75.5928 0 759 797.912)" gradientUnits="userSpaceOnUse">
      <stop offset=".75" stop-color="#925C51"/>
      <stop offset="1" stop-color="#85534D"/>
    </radialGradient>
    <radialGradient id="aU" cx="0" cy="0" r="1" gradientTransform="rotate(-122.709 583.516 185.402) scale(30.3508 39.2275)" gradientUnits="userSpaceOnUse">
      <stop offset=".766" stop-color="#FFE6E2" stop-opacity="0"/>
      <stop offset=".966" stop-color="#FFE6E2"/>
    </radialGradient>
    <radialGradient id="aX" cx="0" cy="0" r="1" gradientTransform="matrix(0 77.1984 -75.5966 0 450.355 797.912)" gradientUnits="userSpaceOnUse">
      <stop offset=".75" stop-color="#925C51"/>
      <stop offset="1" stop-color="#85534D"/>
    </radialGradient>
    <radialGradient id="bb" cx="0" cy="0" r="1" gradientTransform="rotate(-114.474 473.116 250.993) scale(40.6514 43.6329)" gradientUnits="userSpaceOnUse">
      <stop offset=".766" stop-color="#FFE6E2" stop-opacity="0"/>
      <stop offset=".966" stop-color="#FFE6E2"/>
    </radialGradient>
    <filter id="a" width="1062.32" height="1284.08" x="1062.07" y="824.25" color-interpolation-filters="sRGB" filterUnits="userSpaceOnUse">
      <feFlood flood-opacity="0" result="BackgroundImageFix"/>
      <feBlend in="SourceGraphic" in2="BackgroundImageFix" result="shape"/>
      <feColorMatrix in="SourceAlpha" result="hardAlpha" values="0 0 0 0 0 0 0 0 0 0 0 0 0 0 0 0 0 0 127 0"/>
      <feOffset dx=".25" dy="-.75"/>
      <feGaussianBlur stdDeviation=".75"/>
      <feComposite in2="hardAlpha" k2="-1" k3="1" operator="arithmetic"/>
      <feColorMatrix values="0 0 0 0 0.121569 0 0 0 0 0.0705882 0 0 0 0 0.164706 0 0 0 1 0"/>
      <feBlend in2="shape" result="effect1_innerShadow_95_414"/>
    </filter>
    <filter id="m" width="227.736" height="275" x="1147.95" y="1416.25" color-interpolation-filters="sRGB" filterUnits="userSpaceOnUse">
      <feFlood flood-opacity="0" result="BackgroundImageFix"/>
      <feBlend in="SourceGraphic" in2="BackgroundImageFix" result="shape"/>
      <feColorMatrix in="SourceAlpha" result="hardAlpha" values="0 0 0 0 0 0 0 0 0 0 0 0 0 0 0 0 0 0 127 0"/>
      <feOffset dx=".15"/>
      <feGaussianBlur stdDeviation=".25"/>
      <feComposite in2="hardAlpha" k2="-1" k3="1" operator="arithmetic"/>
      <feColorMatrix values="0 0 0 0 0.894118 0 0 0 0 0.682353 0 0 0 0 0.6 0 0 0 1 0"/>
      <feBlend in2="shape" result="effect1_innerShadow_95_414"/>
    </filter>
    <filter id="o" width="227.586" height="275.25" x="1820.69" y="1416" color-interpolation-filters="sRGB" filterUnits="userSpaceOnUse">
      <feFlood flood-opacity="0" result="BackgroundImageFix"/>
      <feBlend in="SourceGraphic" in2="BackgroundImageFix" result="shape"/>
      <feColorMatrix in="SourceAlpha" result="hardAlpha" values="0 0 0 0 0 0 0 0 0 0 0 0 0 0 0 0 0 0 127 0"/>
      <feOffset dy="-.25"/>
      <feGaussianBlur stdDeviation=".25"/>
      <feComposite in2="hardAlpha" k2="-1" k3="1" operator="arithmetic"/>
      <feColorMatrix values="0 0 0 0 0.784314 0 0 0 0 0.572549 0 0 0 0 0.513726 0 0 0 1 0"/>
      <feBlend in2="shape" result="effect1_innerShadow_95_414"/>
    </filter>
    <filter id="r" width="152.952" height="184.608" x="1858.01" y="1461.45" color-interpolation-filters="sRGB" filterUnits="userSpaceOnUse">
      <feFlood flood-opacity="0" result="BackgroundImageFix"/>
      <feBlend in="SourceGraphic" in2="BackgroundImageFix" result="shape"/>
      <feGaussianBlur result="effect1_foregroundBlur_95_414" stdDeviation=".25"/>
    </filter>
    <filter id="t" width="152.752" height="184.408" x="1186.73" y="1461.55" color-interpolation-filters="sRGB" filterUnits="userSpaceOnUse">
      <feFlood flood-opacity="0" result="BackgroundImageFix"/>
      <feBlend in="SourceGraphic" in2="BackgroundImageFix" result="shape"/>
      <feGaussianBlur result="effect1_foregroundBlur_95_414" stdDeviation=".2"/>
    </filter>
    <filter id="v" width="720.689" height="929.835" x="1232.76" y="1134.49" color-interpolation-filters="sRGB" filterUnits="userSpaceOnUse">
      <feFlood flood-opacity="0" result="BackgroundImageFix"/>
      <feBlend in="SourceGraphic" in2="BackgroundImageFix" result="shape"/>
      <feColorMatrix in="SourceAlpha" result="hardAlpha" values="0 0 0 0 0 0 0 0 0 0 0 0 0 0 0 0 0 0 127 0"/>
      <feOffset dy=".4"/>
      <feGaussianBlur stdDeviation=".3"/>
      <feComposite in2="hardAlpha" k2="-1" k3="1" operator="arithmetic"/>
      <feColorMatrix values="0 0 0 0 0.807843 0 0 0 0 0.592157 0 0 0 0 0.52549 0 0 0 1 0"/>
      <feBlend in2="shape" result="effect1_innerShadow_95_414"/>
    </filter>
    <filter id="E" width="133.699" height="230.158" x="1514.8" y="1510.09" color-interpolation-filters="sRGB" filterUnits="userSpaceOnUse">
      <feFlood flood-opacity="0" result="BackgroundImageFix"/>
      <feBlend in="SourceGraphic" in2="BackgroundImageFix" result="shape"/>
      <feGaussianBlur result="effect1_foregroundBlur_95_414" stdDeviation=".25"/>
    </filter>
    <filter id="F" width="133.176" height="229.635" x="1526.54" y="1498.53" color-interpolation-filters="sRGB" filterUnits="userSpaceOnUse">
      <feFlood flood-opacity="0" result="BackgroundImageFix"/>
      <feBlend in="SourceGraphic" in2="BackgroundImageFix" result="shape"/>
      <feGaussianBlur result="effect1_foregroundBlur_95_414" stdDeviation=".125"/>
    </filter>
    <filter id="N" width="198.277" height="109.862" x="1673.7" y="1433.71" color-interpolation-filters="sRGB" filterUnits="userSpaceOnUse">
      <feFlood flood-opacity="0" result="BackgroundImageFix"/>
      <feBlend in="SourceGraphic" in2="BackgroundImageFix" result="shape"/>
      <feColorMatrix in="SourceAlpha" result="hardAlpha" values="0 0 0 0 0 0 0 0 0 0 0 0 0 0 0 0 0 0 127 0"/>
      <feOffset dx="-.2"/>
      <feGaussianBlur stdDeviation=".2"/>
      <feComposite in2="hardAlpha" k2="-1" k3="1" operator="arithmetic"/>
      <feColorMatrix values="0 0 0 0 0.0941176 0 0 0 0 0.0666667 0 0 0 0 0.117647 0 0 0 1 0"/>
      <feBlend in2="shape" result="effect1_innerShadow_95_414"/>
    </filter>
    <filter id="O" width="198.32" height="109.862" x="1314.23" y="1433.71" color-interpolation-filters="sRGB" filterUnits="userSpaceOnUse">
      <feFlood flood-opacity="0" result="BackgroundImageFix"/>
      <feBlend in="SourceGraphic" in2="BackgroundImageFix" result="shape"/>
      <feColorMatrix in="SourceAlpha" result="hardAlpha" values="0 0 0 0 0 0 0 0 0 0 0 0 0 0 0 0 0 0 127 0"/>
      <feOffset dx=".2"/>
      <feGaussianBlur stdDeviation=".125"/>
      <feComposite in2="hardAlpha" k2="-1" k3="1" operator="arithmetic"/>
      <feColorMatrix values="0 0 0 0 0.0862745 0 0 0 0 0.054902 0 0 0 0 0.113725 0 0 0 1 0"/>
      <feBlend in2="shape" result="effect1_innerShadow_95_414"/>
    </filter>
    <filter id="P" width="159.518" height="76.333" x="1323.79" y="1328.97" color-interpolation-filters="sRGB" filterUnits="userSpaceOnUse">
      <feFlood flood-opacity="0" result="BackgroundImageFix"/>
      <feBlend in="SourceGraphic" in2="BackgroundImageFix" result="shape"/>
      <feColorMatrix in="SourceAlpha" result="hardAlpha" values="0 0 0 0 0 0 0 0 0 0 0 0 0 0 0 0 0 0 127 0"/>
      <feOffset dx=".2" dy="-.2"/>
      <feGaussianBlur stdDeviation=".15"/>
      <feComposite in2="hardAlpha" k2="-1" k3="1" operator="arithmetic"/>
      <feColorMatrix values="0 0 0 0 0.0431373 0 0 0 0 0.0235294 0 0 0 0 0.0313726 0 0 0 1 0"/>
      <feBlend in2="shape" result="effect1_innerShadow_95_414"/>
    </filter>
    <filter id="Q" width="159.518" height="76.333" x="1706.89" y="1328.97" color-interpolation-filters="sRGB" filterUnits="userSpaceOnUse">
      <feFlood flood-opacity="0" result="BackgroundImageFix"/>
      <feBlend in="SourceGraphic" in2="BackgroundImageFix" result="shape"/>
      <feColorMatrix in="SourceAlpha" result="hardAlpha" values="0 0 0 0 0 0 0 0 0 0 0 0 0 0 0 0 0 0 127 0"/>
      <feOffset dx=".2" dy="-.2"/>
      <feGaussianBlur stdDeviation=".15"/>
      <feComposite in2="hardAlpha" k2="-1" k3="1" operator="arithmetic"/>
      <feColorMatrix values="0 0 0 0 0.0431373 0 0 0 0 0.0235294 0 0 0 0 0.0313726 0 0 0 1 0"/>
      <feBlend in2="shape" result="effect1_innerShadow_95_414"/>
    </filter>
    <filter id="S" width="41.708" height="42.562" x="1702.47" y="1473.62" color-interpolation-filters="sRGB" filterUnits="userSpaceOnUse">
      <feFlood flood-opacity="0" result="BackgroundImageFix"/>
      <feBlend in="SourceGraphic" in2="BackgroundImageFix" result="shape"/>
      <feGaussianBlur result="effect1_foregroundBlur_95_414" stdDeviation=".05"/>
    </filter>
    <filter id="U" width="35.145" height="44.263" x="1768.83" y="1488.47" color-interpolation-filters="sRGB" filterUnits="userSpaceOnUse">
      <feFlood flood-opacity="0" result="BackgroundImageFix"/>
      <feBlend in="SourceGraphic" in2="BackgroundImageFix" result="shape"/>
      <feGaussianBlur result="effect1_foregroundBlur_95_414" stdDeviation=".1"/>
    </filter>
    <filter id="X" width="41.859" height="55.125" x="1454.65" y="1483.01" color-interpolation-filters="sRGB" filterUnits="userSpaceOnUse">
      <feFlood flood-opacity="0" result="BackgroundImageFix"/>
      <feBlend in="SourceGraphic" in2="BackgroundImageFix" result="shape"/>
      <feGaussianBlur result="effect1_foregroundBlur_95_414" stdDeviation=".1"/>
    </filter>
    <filter id="Z" width="50.605" height="43.318" x="1394.3" y="1472.87" color-interpolation-filters="sRGB" filterUnits="userSpaceOnUse">
      <feFlood flood-opacity="0" result="BackgroundImageFix"/>
      <feBlend in="SourceGraphic" in2="BackgroundImageFix" result="shape"/>
      <feGaussianBlur result="effect1_foregroundBlur_95_414" stdDeviation=".05"/>
    </filter>
    <filter id="ab" width="118.635" height="33.469" x="1729.66" y="1347.54" color-interpolation-filters="sRGB" filterUnits="userSpaceOnUse">
      <feFlood flood-opacity="0" result="BackgroundImageFix"/>
      <feBlend in="SourceGraphic" in2="BackgroundImageFix" result="shape"/>
      <feGaussianBlur result="effect1_foregroundBlur_95_414" stdDeviation=".2"/>
    </filter>
    <filter id="ac" width="118.635" height="33.469" x="1344.13" y="1347.54" color-interpolation-filters="sRGB" filterUnits="userSpaceOnUse">
      <feFlood flood-opacity="0" result="BackgroundImageFix"/>
      <feBlend in="SourceGraphic" in2="BackgroundImageFix" result="shape"/>
      <feGaussianBlur result="effect1_foregroundBlur_95_414" stdDeviation=".2"/>
    </filter>
    <filter id="ad" width="242.79" height="318.839" x="1171.27" y="993.981" color-interpolation-filters="sRGB" filterUnits="userSpaceOnUse">
      <feFlood flood-opacity="0" result="BackgroundImageFix"/>
      <feBlend in="SourceGraphic" in2="BackgroundImageFix" result="shape"/>
      <feColorMatrix in="SourceAlpha" result="hardAlpha" values="0 0 0 0 0 0 0 0 0 0 0 0 0 0 0 0 0 0 127 0"/>
      <feOffset dx=".5" dy=".5"/>
      <feGaussianBlur stdDeviation=".5"/>
      <feComposite in2="hardAlpha" k2="-1" k3="1" operator="arithmetic"/>
      <feColorMatrix values="0 0 0 0 0.352941 0 0 0 0 0.341176 0 0 0 0 0.341176 0 0 0 1 0"/>
      <feBlend in2="shape" result="effect1_innerShadow_95_414"/>
      <feGaussianBlur result="effect2_foregroundBlur_95_414" stdDeviation=".375"/>
    </filter>
    <filter id="af" width="582.604" height="452.847" x="1389.35" y="884.22" color-interpolation-filters="sRGB" filterUnits="userSpaceOnUse">
      <feFlood flood-opacity="0" result="BackgroundImageFix"/>
      <feBlend in="SourceGraphic" in2="BackgroundImageFix" result="shape"/>
      <feColorMatrix in="SourceAlpha" result="hardAlpha" values="0 0 0 0 0 0 0 0 0 0 0 0 0 0 0 0 0 0 127 0"/>
      <feOffset dx="-.3" dy=".2"/>
      <feGaussianBlur stdDeviation=".4"/>
      <feComposite in2="hardAlpha" k2="-1" k3="1" operator="arithmetic"/>
      <feColorMatrix values="0 0 0 0 0.345098 0 0 0 0 0.329412 0 0 0 0 0.333333 0 0 0 1 0"/>
      <feBlend in2="shape" result="effect1_innerShadow_95_414"/>
      <feGaussianBlur result="effect2_foregroundBlur_95_414" stdDeviation=".375"/>
    </filter>
    <filter id="ai" width="39.099" height="146.717" x="1388.36" y="994.421" color-interpolation-filters="sRGB" filterUnits="userSpaceOnUse">
      <feFlood flood-opacity="0" result="BackgroundImageFix"/>
      <feBlend in="SourceGraphic" in2="BackgroundImageFix" result="shape"/>
      <feGaussianBlur result="effect1_foregroundBlur_95_414" stdDeviation=".1"/>
    </filter>
    <filter id="ak" width="351.903" height="163.458" x="1603.3" y="1100.5" color-interpolation-filters="sRGB" filterUnits="userSpaceOnUse">
      <feFlood flood-opacity="0" result="BackgroundImageFix"/>
      <feBlend in="SourceGraphic" in2="BackgroundImageFix" result="shape"/>
      <feGaussianBlur result="effect1_foregroundBlur_95_414" stdDeviation=".875"/>
    </filter>
    <filter id="al" width="236.358" height="285.358" x="150.928" y="685.025" color-interpolation-filters="sRGB" filterUnits="userSpaceOnUse">
      <feFlood flood-opacity="0" result="BackgroundImageFix"/>
      <feBlend in="SourceGraphic" in2="BackgroundImageFix" result="shape"/>
      <feColorMatrix in="SourceAlpha" result="hardAlpha" values="0 0 0 0 0 0 0 0 0 0 0 0 0 0 0 0 0 0 127 0"/>
      <feOffset dx=".2"/>
      <feGaussianBlur stdDeviation=".2"/>
      <feComposite in2="hardAlpha" k2="-1" k3="1" operator="arithmetic"/>
      <feColorMatrix values="0 0 0 0 0.866667 0 0 0 0 0.643137 0 0 0 0 0.533333 0 0 0 1 0"/>
      <feBlend in2="shape" result="effect1_innerShadow_95_414"/>
    </filter>
    <filter id="an" width="141.725" height="171.042" x="198.145" y="742.183" color-interpolation-filters="sRGB" filterUnits="userSpaceOnUse">
      <feFlood flood-opacity="0" result="BackgroundImageFix"/>
      <feBlend in="SourceGraphic" in2="BackgroundImageFix" result="shape"/>
      <feGaussianBlur result="effect1_foregroundBlur_95_414" stdDeviation=".25"/>
    </filter>
    <filter id="ap" width="236.408" height="285.608" x="823.862" y="684.775" color-interpolation-filters="sRGB" filterUnits="userSpaceOnUse">
      <feFlood flood-opacity="0" result="BackgroundImageFix"/>
      <feBlend in="SourceGraphic" in2="BackgroundImageFix" result="shape"/>
      <feColorMatrix in="SourceAlpha" result="hardAlpha" values="0 0 0 0 0 0 0 0 0 0 0 0 0 0 0 0 0 0 127 0"/>
      <feOffset dx=".25" dy="-.25"/>
      <feGaussianBlur stdDeviation=".25"/>
      <feComposite in2="hardAlpha" k2="-1" k3="1" operator="arithmetic"/>
      <feColorMatrix values="0 0 0 0 0.768627 0 0 0 0 0.529412 0 0 0 0 0.505882 0 0 0 1 0"/>
      <feBlend in2="shape" result="effect1_innerShadow_95_414"/>
    </filter>
    <filter id="as" width="141.724" height="171.042" x="871.079" y="742.183" color-interpolation-filters="sRGB" filterUnits="userSpaceOnUse">
      <feFlood flood-opacity="0" result="BackgroundImageFix"/>
      <feBlend in="SourceGraphic" in2="BackgroundImageFix" result="shape"/>
      <feGaussianBlur result="effect1_foregroundBlur_95_414" stdDeviation=".25"/>
    </filter>
    <filter id="av" width="733.801" height="1028.29" x="239.99" y="346.958" color-interpolation-filters="sRGB" filterUnits="userSpaceOnUse">
      <feFlood flood-opacity="0" result="BackgroundImageFix"/>
      <feBlend in="SourceGraphic" in2="BackgroundImageFix" result="shape"/>
      <feColorMatrix in="SourceAlpha" result="hardAlpha" values="0 0 0 0 0 0 0 0 0 0 0 0 0 0 0 0 0 0 127 0"/>
      <feOffset dy=".25"/>
      <feGaussianBlur stdDeviation=".25"/>
      <feComposite in2="hardAlpha" k2="-1" k3="1" operator="arithmetic"/>
      <feColorMatrix values="0 0 0 0 0.752941 0 0 0 0 0.501961 0 0 0 0 0.34902 0 0 0 1 0"/>
      <feBlend in2="shape" result="effect1_innerShadow_95_414"/>
    </filter>
    <filter id="aB" width="891.346" height="687.973" x="159.181" y="92.018" color-interpolation-filters="sRGB" filterUnits="userSpaceOnUse">
      <feFlood flood-opacity="0" result="BackgroundImageFix"/>
      <feBlend in="SourceGraphic" in2="BackgroundImageFix" result="shape"/>
      <feColorMatrix in="SourceAlpha" result="hardAlpha" values="0 0 0 0 0 0 0 0 0 0 0 0 0 0 0 0 0 0 127 0"/>
      <feOffset dy="-.5"/>
      <feGaussianBlur stdDeviation=".375"/>
      <feComposite in2="hardAlpha" k2="-1" k3="1" operator="arithmetic"/>
      <feColorMatrix values="0 0 0 0 0.858824 0 0 0 0 0.690196 0 0 0 0 0.533333 0 0 0 1 0"/>
      <feBlend in2="shape" result="effect1_innerShadow_95_414"/>
    </filter>
    <filter id="aJ" width="125.991" height="230.655" x="524.955" y="792.362" color-interpolation-filters="sRGB" filterUnits="userSpaceOnUse">
      <feFlood flood-opacity="0" result="BackgroundImageFix"/>
      <feBlend in="SourceGraphic" in2="BackgroundImageFix" result="shape"/>
      <feGaussianBlur result="effect1_foregroundBlur_95_414" stdDeviation=".375"/>
    </filter>
    <filter id="aK" width="133.199" height="229.658" x="538.287" y="778.928" color-interpolation-filters="sRGB" filterUnits="userSpaceOnUse">
      <feFlood flood-opacity="0" result="BackgroundImageFix"/>
      <feBlend in="SourceGraphic" in2="BackgroundImageFix" result="shape"/>
      <feGaussianBlur result="effect1_foregroundBlur_95_414" stdDeviation=".125"/>
    </filter>
    <filter id="aQ" width="193.526" height="126.512" x="688.462" y="549.521" color-interpolation-filters="sRGB" filterUnits="userSpaceOnUse">
      <feFlood flood-opacity="0" result="BackgroundImageFix"/>
      <feBlend in="SourceGraphic" in2="BackgroundImageFix" result="shape"/>
      <feColorMatrix in="SourceAlpha" result="hardAlpha" values="0 0 0 0 0 0 0 0 0 0 0 0 0 0 0 0 0 0 127 0"/>
      <feOffset dx=".25" dy="-.4"/>
      <feGaussianBlur stdDeviation=".3"/>
      <feComposite in2="hardAlpha" k2="-1" k3="1" operator="arithmetic"/>
      <feColorMatrix values="0 0 0 0 0.47451 0 0 0 0 0.262745 0 0 0 0 0.168627 0 0 0 1 0"/>
      <feBlend in2="shape" result="effect1_innerShadow_95_414"/>
    </filter>
    <filter id="aR" width="193.248" height="126.291" x="324.481" y="549.567" color-interpolation-filters="sRGB" filterUnits="userSpaceOnUse">
      <feFlood flood-opacity="0" result="BackgroundImageFix"/>
      <feBlend in="SourceGraphic" in2="BackgroundImageFix" result="shape"/>
      <feColorMatrix in="SourceAlpha" result="hardAlpha" values="0 0 0 0 0 0 0 0 0 0 0 0 0 0 0 0 0 0 127 0"/>
      <feOffset dx=".25" dy="-.4"/>
      <feGaussianBlur stdDeviation=".3"/>
      <feComposite in2="hardAlpha" k2="-1" k3="1" operator="arithmetic"/>
      <feColorMatrix values="0 0 0 0 0.47451 0 0 0 0 0.262745 0 0 0 0 0.168627 0 0 0 1 0"/>
      <feBlend in2="shape" result="effect1_innerShadow_95_414"/>
    </filter>
    <filter id="aT" width="41.7" height="42.562" x="714.042" y="740.289" color-interpolation-filters="sRGB" filterUnits="userSpaceOnUse">
      <feFlood flood-opacity="0" result="BackgroundImageFix"/>
      <feBlend in="SourceGraphic" in2="BackgroundImageFix" result="shape"/>
      <feGaussianBlur result="effect1_foregroundBlur_95_414" stdDeviation=".05"/>
    </filter>
    <filter id="aV" width="35.145" height="44.263" x="780.421" y="755.133" color-interpolation-filters="sRGB" filterUnits="userSpaceOnUse">
      <feFlood flood-opacity="0" result="BackgroundImageFix"/>
      <feBlend in="SourceGraphic" in2="BackgroundImageFix" result="shape"/>
      <feGaussianBlur result="effect1_foregroundBlur_95_414" stdDeviation=".1"/>
    </filter>
    <filter id="aY" width="41.859" height="55.125" x="466.238" y="749.679" color-interpolation-filters="sRGB" filterUnits="userSpaceOnUse">
      <feFlood flood-opacity="0" result="BackgroundImageFix"/>
      <feBlend in="SourceGraphic" in2="BackgroundImageFix" result="shape"/>
      <feGaussianBlur result="effect1_foregroundBlur_95_414" stdDeviation=".1"/>
    </filter>
    <filter id="ba" width="50.605" height="43.318" x="405.86" y="739.541" color-interpolation-filters="sRGB" filterUnits="userSpaceOnUse">
      <feFlood flood-opacity="0" result="BackgroundImageFix"/>
      <feBlend in="SourceGraphic" in2="BackgroundImageFix" result="shape"/>
      <feGaussianBlur result="effect1_foregroundBlur_95_414" stdDeviation=".05"/>
    </filter>
    <filter id="bc" width="132.324" height="38.341" x="721.57" y="579.28" color-interpolation-filters="sRGB" filterUnits="userSpaceOnUse">
      <feFlood flood-opacity="0" result="BackgroundImageFix"/>
      <feBlend in="SourceGraphic" in2="BackgroundImageFix" result="shape"/>
      <feGaussianBlur result="effect1_foregroundBlur_95_414" stdDeviation=".25"/>
    </filter>
    <filter id="be" width="137.786" height="43.227" x="352.388" y="584.706" color-interpolation-filters="sRGB" filterUnits="userSpaceOnUse">
      <feFlood flood-opacity="0" result="BackgroundImageFix"/>
      <feBlend in="SourceGraphic" in2="BackgroundImageFix" result="shape"/>
      <feGaussianBlur result="effect1_foregroundBlur_95_414" stdDeviation=".25"/>
    </filter>
    <linearGradient id="b" x1="1925" x2="1288.46" y1="959.658" y2="1935.43" gradientUnits="userSpaceOnUse">
      <stop stop-color="#393134"/>
      <stop offset="1" stop-color="#1A1718"/>
    </linearGradient>
    <linearGradient id="n" x1="1147.95" x2="1357.21" y1="1561.22" y2="1561.22" gradientUnits="userSpaceOnUse">
      <stop stop-color="#CC9987"/>
      <stop offset="1" stop-color="#AC7864"/>
    </linearGradient>
    <linearGradient id="H" x1="1526.72" x2="1593.1" y1="1667.51" y2="1667.51" gradientUnits="userSpaceOnUse">
      <stop stop-color="#DFA791"/>
      <stop offset="1" stop-color="#DFA791" stop-opacity="0"/>
    </linearGradient>
    <linearGradient id="I" x1="1593.1" x2="1593.1" y1="1735.8" y2="1683.64" gradientUnits="userSpaceOnUse">
      <stop stop-color="#D29394"/>
      <stop offset="1" stop-color="#D29394" stop-opacity="0"/>
    </linearGradient>
    <linearGradient id="K" x1="1598.64" x2="1598.64" y1="1733.55" y2="1721.64" gradientUnits="userSpaceOnUse">
      <stop stop-color="#CC8C8D"/>
      <stop offset="1" stop-color="#CC8C8D" stop-opacity="0"/>
    </linearGradient>
    <linearGradient id="M" x1="1517.85" x2="1559.74" y1="1856.25" y2="1802.66" gradientUnits="userSpaceOnUse">
      <stop stop-color="#D9A4A4"/>
      <stop offset=".663" stop-color="#D9A4A4" stop-opacity="0"/>
    </linearGradient>
    <linearGradient id="V" x1="1802.45" x2="1778.14" y1="1507.32" y2="1519.73" gradientUnits="userSpaceOnUse">
      <stop stop-color="#B4948D"/>
      <stop offset="1" stop-color="#B4948D" stop-opacity="0"/>
    </linearGradient>
    <linearGradient id="Y" x1="1491.41" x2="1467.07" y1="1507.32" y2="1519.73" gradientUnits="userSpaceOnUse">
      <stop stop-color="#B4948D"/>
      <stop offset="1" stop-color="#B4948D" stop-opacity="0"/>
    </linearGradient>
    <linearGradient id="aj" x1="1388.66" x2="1441.14" y1="1024.1" y2="1125.73" gradientUnits="userSpaceOnUse">
      <stop stop-color="#1A1316"/>
      <stop offset="1" stop-color="#24182D"/>
    </linearGradient>
    <linearGradient id="ao" x1="269.007" x2="223.717" y1="851.492" y2="851.492" gradientUnits="userSpaceOnUse">
      <stop stop-color="#AF6F5D"/>
      <stop offset="1" stop-color="#B87862"/>
    </linearGradient>
    <linearGradient id="aq" x1="1018.79" x2="937.741" y1="734.387" y2="942.157" gradientUnits="userSpaceOnUse">
      <stop stop-color="#F5C8A5"/>
      <stop offset="1" stop-color="#DCA189"/>
    </linearGradient>
    <linearGradient id="aw" x1="890.356" x2="346.42" y1="860.979" y2="928.05" gradientUnits="userSpaceOnUse">
      <stop stop-color="#FAC39E"/>
      <stop offset="1" stop-color="#C9917C"/>
    </linearGradient>
    <linearGradient id="ay" x1="223.187" x2="387.614" y1="1091.43" y2="1073.66" gradientUnits="userSpaceOnUse">
      <stop stop-color="#D99E84"/>
      <stop offset="1" stop-color="#D99E84" stop-opacity="0"/>
    </linearGradient>
    <linearGradient id="aD" x1="261.003" x2="530.851" y1="804.833" y2="408.16" gradientUnits="userSpaceOnUse">
      <stop stop-color="#E8AD8E"/>
      <stop offset="1" stop-color="#E8AD8E" stop-opacity="0"/>
    </linearGradient>
    <linearGradient id="aL" x1="543.742" x2="610.083" y1="917.308" y2="917.308" gradientUnits="userSpaceOnUse">
      <stop stop-color="#CB9173"/>
      <stop offset="1" stop-color="#CB9173" stop-opacity="0"/>
    </linearGradient>
    <linearGradient id="aM" x1="671.228" x2="598.699" y1="944.9" y2="944.021" gradientUnits="userSpaceOnUse">
      <stop stop-color="#FEC8A4"/>
      <stop offset="1" stop-color="#FEC8A4" stop-opacity="0"/>
    </linearGradient>
    <linearGradient id="aN" x1="618.618" x2="618.618" y1="1008.33" y2="959.337" gradientUnits="userSpaceOnUse">
      <stop stop-color="#C98583"/>
      <stop offset="1" stop-color="#C98583" stop-opacity="0"/>
    </linearGradient>
    <linearGradient id="aO" x1="613.762" x2="613.762" y1="1011.91" y2="997.608" gradientUnits="userSpaceOnUse">
      <stop stop-color="#C27B77"/>
      <stop offset="1" stop-color="#C27B77" stop-opacity="0"/>
    </linearGradient>
    <linearGradient id="aP" x1="531.49" x2="571.226" y1="1146.38" y2="1094.46" gradientUnits="userSpaceOnUse">
      <stop stop-color="#D79E8E"/>
      <stop offset=".663" stop-color="#D79E8E" stop-opacity="0"/>
    </linearGradient>
    <linearGradient id="aW" x1="814" x2="789.699" y1="773.987" y2="786.398" gradientUnits="userSpaceOnUse">
      <stop stop-color="#B4948D"/>
      <stop offset="1" stop-color="#B4948D" stop-opacity="0"/>
    </linearGradient>
    <linearGradient id="aZ" x1="502.966" x2="478.665" y1="773.987" y2="786.398" gradientUnits="userSpaceOnUse">
      <stop stop-color="#B4948D"/>
      <stop offset="1" stop-color="#B4948D" stop-opacity="0"/>
    </linearGradient>
    <linearGradient id="bd" x1="815.1" x2="775.272" y1="591.113" y2="523.718" gradientUnits="userSpaceOnUse">
      <stop stop-color="#A57146"/>
      <stop offset="1" stop-color="#A57146" stop-opacity="0"/>
    </linearGradient>
    <linearGradient id="bf" x1="439.886" x2="351.595" y1="580.204" y2="549.567" gradientUnits="userSpaceOnUse">
      <stop stop-color="#A57146"/>
      <stop offset="1" stop-color="#A57146" stop-opacity="0"/>
    </linearGradient>
  </defs>
</svg>
